<svg width="305" height="418" fill="none" xmlns="http://www.w3.org/2000/svg"><g clip-path="url(#clip0_367_727)" filter="url(#filter0_d_367_727)"><path d="M263.198 17.012V32.14c2.118.879 3.955 2.524 5.257 4.707 1.303 2.184 2.007 4.798 2.015 7.482 0 1.694-.278 3.373-.819 4.94-.542 1.565-1.335 2.988-2.336 4.187-1.001 1.199-2.189 2.15-3.497 2.799a9.254 9.254 0 0 1-4.125.982c-2.849-.003-5.581-1.357-7.598-3.767-2.017-2.41-3.154-5.678-3.163-9.09.007-2.683.711-5.297 2.014-7.48 1.303-2.184 3.14-3.829 5.257-4.708V17.012h-23.269V32.14c2.118.879 3.955 2.524 5.257 4.707 1.303 2.184 2.007 4.798 2.015 7.482 0 3.423-1.136 6.707-3.158 9.127-2.022 2.421-4.764 3.781-7.623 3.781-2.85-.001-5.584-1.355-7.602-3.765-2.018-2.41-3.156-5.679-3.165-9.091.008-2.684.712-5.298 2.015-7.481 1.302-2.184 3.139-3.829 5.257-4.708V17.012h-23.269V32.14c2.117.879 3.954 2.524 5.257 4.707 1.303 2.184 2.006 4.798 2.014 7.482 0 3.423-1.136 6.707-3.157 9.127-2.022 2.421-4.764 3.781-7.624 3.781-2.85-.001-5.583-1.355-7.601-3.765s-3.156-5.679-3.165-9.091c.007-2.684.711-5.298 2.014-7.481 1.303-2.184 3.14-3.829 5.257-4.708V17.012h-23.269V32.14c2.118.879 3.955 2.524 5.257 4.707 1.303 2.184 2.007 4.798 2.015 7.482 0 3.423-1.136 6.707-3.158 9.127-2.022 2.421-4.764 3.781-7.623 3.781-2.85-.001-5.584-1.355-7.602-3.765-2.018-2.41-3.156-5.679-3.165-9.091.008-2.684.712-5.298 2.015-7.481 1.302-2.184 3.139-3.829 5.257-4.708V17.012h-23.269V32.14c2.117.879 3.954 2.524 5.257 4.707 1.303 2.184 2.007 4.798 2.014 7.482.003 1.7-.275 3.384-.817 4.955-.543 1.57-1.339 2.998-2.344 4.2-1.004 1.202-2.197 2.154-3.51 2.802a9.254 9.254 0 0 1-4.139.975c-2.848-.011-5.577-1.372-7.589-3.786-2.013-2.414-3.145-5.684-3.148-9.094.008-2.684.711-5.298 2.014-7.481 1.303-2.184 3.14-3.829 5.257-4.708V17.012H111.84V32.14c2.118.879 3.955 2.524 5.258 4.707 1.302 2.184 2.006 4.798 2.014 7.482a15.14 15.14 0 0 1-.819 4.94 13.307 13.307 0 0 1-2.336 4.187c-1 1.199-2.189 2.15-3.496 2.799a9.26 9.26 0 0 1-4.125.982c-2.85-.001-5.584-1.355-7.602-3.765-2.018-2.41-3.156-5.679-3.165-9.091.008-2.684.712-5.298 2.014-7.481 1.303-2.184 3.14-3.829 5.257-4.708V17.012H81.572V32.14c2.117.879 3.954 2.524 5.257 4.707 1.303 2.184 2.006 4.798 2.014 7.482 0 1.694-.277 3.373-.819 4.94-.54 1.565-1.335 2.988-2.335 4.187-1.001 1.199-2.19 2.15-3.497 2.799a9.257 9.257 0 0 1-4.125.982c-2.847-.006-5.577-1.362-7.592-3.77-2.015-2.41-3.151-5.677-3.16-9.086.008-2.684.712-5.298 2.014-7.481 1.303-2.184 3.14-3.829 5.257-4.708V17.012H51.318V32.14c2.117.879 3.954 2.524 5.257 4.707 1.302 2.184 2.006 4.798 2.014 7.482 0 1.694-.277 3.373-.819 4.94-.541 1.565-1.335 2.988-2.335 4.187-1.001 1.199-2.19 2.15-3.497 2.799a9.258 9.258 0 0 1-4.125.982c-2.854.007-5.594-1.344-7.617-3.755-2.023-2.41-3.165-5.684-3.174-9.101.008-2.684.712-5.298 2.014-7.481 1.303-2.184 3.14-3.829 5.258-4.708V17.012H6.482V350.64L4 410l295.221-2.838 1.798-61.439V17.013h-37.821z" fill="#F9F2DE"/><g opacity=".3" stroke="#E8B797" stroke-width="1.86" stroke-miterlimit="10"><path d="M15.356 142.954h272.541M15.356 166.057h272.541M15.356 189.159h272.541M15.356 212.262h272.541M15.356 235.37h272.541M15.356 258.473h272.541M15.356 281.576h272.541M15.356 304.678h272.541M15.356 327.781h272.541M15.356 350.883h272.541M15.356 373.992h272.541M15.356 397.094h272.541"/></g><path d="M301.16 65H6.424v88.226H301.16V65z" fill="#CED3EE"/><path d="M47.047 90.855h-.257c-8.08 0-14.654-9.484-14.654-21.145V26.758h4.15V69.71c0 8.921 4.711 16.177 10.504 16.177h.257c5.788 0 10.505-7.256 10.505-16.177V17.5c0-6.907-3.612-12.532-8.052-12.532H31.927c-4.363 0-8.018 5.671-8.018 12.497l-4.081.035c0-9.716 5.429-17.5 12.119-17.5h17.558c6.728 0 12.201 7.853 12.201 17.5v52.21c-.005 11.66-6.578 21.145-14.659 21.145z" fill="#231F20"/><path d="M44.927 194v-12.76l-.26-2.34h1.52l.28 2.34V194h-1.54zm10.973-4v-7.44c0-.92-.2-1.553-.6-1.9-.4-.36-.927-.54-1.58-.54h-4.66v-1.22h5c.666 0 1.253.12 1.76.36.507.24.9.633 1.18 1.18.28.547.42 1.273.42 2.18V190H55.9zm-6.86 0v-5.4l.22-1.34h1.3V190h-1.52zm14.558.04l.16-1.22c1.107.24 2 .213 2.68-.08.68-.293 1.18-.833 1.5-1.62.32-.787.46-1.807.42-3.06-.014-1.027-.154-1.827-.42-2.4-.254-.587-.594-1-1.02-1.24a2.665 2.665 0 0 0-1.42-.38c-.547 0-1.007.12-1.38.36a2.48 2.48 0 0 0-.88.9c-.2.373-.347.78-.44 1.22l-.46-.84c.24-1.013.673-1.747 1.3-2.2.64-.467 1.333-.7 2.08-.7.573 0 1.1.093 1.58.28.493.187.927.487 1.3.9.373.4.666.94.88 1.62.227.68.347 1.507.36 2.48.04 1.547-.18 2.813-.66 3.8-.48.987-1.194 1.673-2.14 2.06-.947.373-2.093.413-3.44.12zm-3.7-.04l1.48-7.78-1.54-3.32h1.58l1.42 3.38-1.4 7.72h-1.54zm18.173-3.88c-.08-.627-.04-1.187.12-1.68.16-.493.38-.94.66-1.34.293-.4.593-.78.9-1.14.307-.373.567-.747.78-1.12.213-.373.32-.78.32-1.22 0-.373-.073-.713-.22-1.02a1.59 1.59 0 0 0-.68-.74c-.293-.187-.667-.28-1.12-.28-.44 0-.867.107-1.28.32-.4.2-.76.487-1.08.86l-.84-.78c.413-.467.9-.853 1.46-1.16.56-.307 1.193-.46 1.9-.46.667 0 1.247.133 1.74.4.493.253.873.62 1.14 1.1.28.467.42 1.02.42 1.66 0 .52-.113 1-.34 1.44-.213.427-.48.833-.8 1.22-.307.373-.607.76-.9 1.16a5.626 5.626 0 0 0-.72 1.26c-.173.453-.227.96-.16 1.52h-1.3zm.7 4.12c-.293 0-.553-.107-.78-.32-.213-.213-.32-.493-.32-.84 0-.36.107-.647.32-.86.227-.213.487-.32.78-.32.307 0 .567.107.78.32.213.213.32.5.32.86 0 .347-.107.627-.32.84-.213.213-.473.32-.78.32zM91.95 190v-7.44c0-.92-.2-1.553-.6-1.9-.387-.36-.907-.54-1.56-.54h-4.12v-1.22h4.46c.667 0 1.247.12 1.74.36.507.24.9.633 1.18 1.18.293.547.44 1.273.44 2.18V190h-1.54zm-6.8 0v-1.22h7.82l-.14 1.22h-7.68zm-.4 0v-11.1h1.54V190h-1.54zm11.662-4.2V181.24l-.26-2.34h1.52l.28 2.34v2.98l-.02 1.26-1.52.32zm9.432 4.2v-7.44c0-.92-.2-1.553-.6-1.9-.386-.36-.906-.54-1.56-.54h-3.54v-1.22h3.88c.667 0 1.247.12 1.74.36.507.24.9.633 1.18 1.18.294.547.44 1.273.44 2.18V190h-1.54zm7.754.04l.16-1.22c1.106.24 2 .213 2.68-.08.68-.293 1.18-.833 1.5-1.62.32-.787.46-1.807.42-3.06-.014-1.027-.154-1.827-.42-2.4-.254-.587-.594-1-1.02-1.24a2.668 2.668 0 0 0-1.42-.38c-.547 0-1.007.12-1.38.36a2.472 2.472 0 0 0-.88.9c-.2.373-.347.78-.44 1.22l-.46-.84c.24-1.013.673-1.747 1.3-2.2.64-.467 1.333-.7 2.08-.7.573 0 1.1.093 1.58.28.493.187.926.487 1.3.9.373.4.666.94.88 1.62.226.68.346 1.507.36 2.48.04 1.547-.18 2.813-.66 3.8-.48.987-1.194 1.673-2.14 2.06-.947.373-2.094.413-3.44.12zm-3.7-.04l1.48-7.78-1.54-3.32h1.58l1.42 3.38-1.4 7.72h-1.54zm12.529 0v-8.76l-.26-2.34h1.52l.28 2.34V190h-1.54zm11.273 0v-7.16c0-1.813-.72-2.72-2.16-2.72h-4.94v-1.22h5.28c.693 0 1.293.147 1.8.44.507.28.893.72 1.16 1.32.267.587.4 1.333.4 2.24v7.1h-1.54zm-7.1 0v-10.58h1.54V190h-1.54zm16.789 0v-7.44c0-.92-.2-1.553-.6-1.9-.386-.36-.906-.54-1.56-.54h-3.6v-1.22h3.94c.667 0 1.254.12 1.76.36.507.24.9.633 1.18 1.18.28.547.42 1.273.42 2.18V190h-1.54zm-5.76 0v-1.22h8.72V190h-8.72zm15.892.2l-1.4-11.3h1.48l1.2 9.96c1.04-.067 1.953-.253 2.74-.56.786-.32 1.446-.76 1.98-1.32.546-.573.953-1.287 1.22-2.14.266-.867.393-1.873.38-3.02l-.02-2.92h1.54l.02 2.86c.013 1.893-.32 3.46-1 4.7-.667 1.24-1.68 2.173-3.04 2.8-1.36.613-3.06.927-5.1.94zm.62-4.32l-.36-1.08c.706-.333 1.266-.687 1.68-1.06.426-.373.733-.847.92-1.42.186-.573.286-1.307.3-2.2l.02-1.18h1.48l-.02 1.16c-.014 1-.154 1.86-.42 2.58a4.439 4.439 0 0 1-1.28 1.84c-.574.507-1.347.96-2.32 1.36zm14.437 4.16l.16-1.22c1.107.24 2 .213 2.68-.08.68-.293 1.18-.833 1.5-1.62.32-.787.46-1.807.42-3.06-.013-1.027-.153-1.827-.42-2.4-.253-.587-.593-1-1.02-1.24a2.663 2.663 0 0 0-1.42-.38c-.546 0-1.006.12-1.38.36a2.488 2.488 0 0 0-.88.9 4.6 4.6 0 0 0-.44 1.22l-.46-.84c.24-1.013.674-1.747 1.3-2.2.64-.467 1.334-.7 2.08-.7.574 0 1.1.093 1.58.28a3.32 3.32 0 0 1 1.3.9c.374.4.667.94.88 1.62.227.68.347 1.507.36 2.48.04 1.547-.18 2.813-.66 3.8-.48.987-1.193 1.673-2.14 2.06-.946.373-2.093.413-3.44.12zm-3.7-.04l1.48-7.78-1.54-3.32h1.58l1.42 3.38-1.4 7.72h-1.54zm11.57.28l-.16-1.1c.546-.053.966-.173 1.26-.36a1.48 1.48 0 0 0 .64-.78c.12-.347.18-.767.18-1.26v-7.88h4.9c.666 0 1.246.12 1.74.36.506.24.9.633 1.18 1.18.293.547.44 1.273.44 2.18V190h-1.54v-7.44c0-.92-.2-1.553-.6-1.9-.387-.36-.907-.54-1.56-.54h-3.02v6.5c0 .787-.127 1.44-.38 1.96-.24.507-.614.9-1.12 1.18-.494.267-1.147.44-1.96.52zm13.889-.08l-1.4-11.3h1.48l1.2 9.96c1.04-.067 1.953-.253 2.74-.56.787-.32 1.447-.76 1.98-1.32.547-.573.953-1.287 1.22-2.14.267-.867.393-1.873.38-3.02l-.02-2.92h1.54l.02 2.86c.013 1.893-.32 3.46-1 4.7-.667 1.24-1.68 2.173-3.04 2.8-1.36.613-3.06.927-5.1.94zm.62-4.32l-.36-1.08c.707-.333 1.267-.687 1.68-1.06.427-.373.733-.847.92-1.42.187-.573.287-1.307.3-2.2l.02-1.18h1.48l-.02 1.16c-.013 1-.153 1.86-.42 2.58a4.43 4.43 0 0 1-1.28 1.84c-.573.507-1.347.96-2.32 1.36zm14.438 4.16l.16-1.22c1.106.24 2 .213 2.68-.08.68-.293 1.18-.833 1.5-1.62.32-.787.46-1.807.42-3.06-.014-1.027-.154-1.827-.42-2.4-.254-.587-.594-1-1.02-1.24a2.668 2.668 0 0 0-1.42-.38c-.547 0-1.007.12-1.38.36a2.472 2.472 0 0 0-.88.9c-.2.373-.347.78-.44 1.22l-.46-.84c.24-1.013.673-1.747 1.3-2.2.64-.467 1.333-.7 2.08-.7.573 0 1.1.093 1.58.28.493.187.926.487 1.3.9.373.4.666.94.88 1.62.226.68.346 1.507.36 2.48.04 1.547-.18 2.813-.66 3.8-.48.987-1.194 1.673-2.14 2.06-.947.373-2.094.413-3.44.12zm-3.7-.04l1.48-7.78-1.54-3.32h1.58l1.42 3.38-1.4 7.72h-1.54zm21.093 0v-7.54c0-.507.047-.953.14-1.34.093-.4.227-.733.4-1h-5.6v-1.22h8.56v1.22h-1.48c-.2.333-.333.72-.4 1.16-.067.427-.1.82-.1 1.18V190h-1.52zm7.783 0l3.86-9.88h-6.2v-1.22h7.74v1.3l-3.86 9.8h-1.54zm-2.34-9.88v-4.46h1.4v4.46h-1.4zm10.212 5.68V181.24l-.26-2.34h1.52l.28 2.34v2.98l-.02 1.26-1.52.32zm10.972 4.2v-7.44c0-.92-.2-1.553-.6-1.9-.4-.36-.926-.54-1.58-.54h-4.66v-1.22h5c.667 0 1.254.12 1.76.36.507.24.9.633 1.18 1.18.28.547.42 1.273.42 2.18V190h-1.52zm-6.86 0v-5.4l.22-1.34h1.3V190h-1.52zm20.862 4v-11.44c0-.92-.2-1.553-.6-1.9-.4-.36-.92-.54-1.56-.54h-3.88v-1.22h4.2c.667 0 1.254.12 1.76.36.507.24.9.633 1.18 1.18.28.547.42 1.273.42 2.18V194h-1.52zm4.479-8.2V181.24l-.26-2.34h1.52l.28 2.34v2.98l-.02 1.26-1.52.32zm13.413 4.2h-1.68l-4.56-6.82-2.14 6.82h-1.46l2.18-6.88.54-1.32-1.84-2.9h1.58l1.78 2.8 1.88 2.8.46-1.68 1.2-3.92h1.48l-2.24 6.94 2.82 4.16zM50.044 222.12c-.08-.627-.04-1.187.12-1.68.16-.493.38-.94.66-1.34.293-.4.593-.78.9-1.14.306-.373.566-.747.78-1.12.213-.373.32-.78.32-1.22 0-.373-.074-.713-.22-1.02a1.59 1.59 0 0 0-.68-.74c-.294-.187-.667-.28-1.12-.28-.44 0-.867.107-1.28.32-.4.2-.76.487-1.08.86l-.84-.78c.413-.467.9-.853 1.46-1.16.56-.307 1.193-.46 1.9-.46.666 0 1.246.133 1.74.4.493.253.873.62 1.14 1.1.28.467.42 1.02.42 1.66 0 .52-.114 1-.34 1.44-.214.427-.48.833-.8 1.22-.307.373-.607.76-.9 1.16a5.618 5.618 0 0 0-.72 1.26c-.174.453-.227.96-.16 1.52h-1.3zm.7 4.12c-.294 0-.554-.107-.78-.32-.214-.213-.32-.493-.32-.84 0-.36.106-.647.32-.86.226-.213.486-.32.78-.32.306 0 .566.107.78.32.213.213.32.5.32.86 0 .347-.107.627-.32.84-.214.213-.474.32-.78.32zm13.179-.24v-7.44c0-.92-.2-1.553-.6-1.9-.387-.36-.907-.54-1.56-.54h-4.12v-1.22h4.46c.666 0 1.246.12 1.74.36.506.24.9.633 1.18 1.18.293.547.44 1.273.44 2.18V226h-1.54zm-6.8 0v-1.22h7.82l-.14 1.22h-7.68zm-.4 0v-11.1h1.54V226h-1.54zm11.661-4.2V217.24l-.26-2.34h1.52l.28 2.34v2.98l-.02 1.26-1.52.32zm9.433 4.2v-7.44c0-.92-.2-1.553-.6-1.9-.387-.36-.907-.54-1.56-.54h-3.54v-1.22h3.88c.666 0 1.246.12 1.74.36.507.24.9.633 1.18 1.18.293.547.44 1.273.44 2.18V226h-1.54zm7.754.04l.16-1.22c1.106.24 2 .213 2.68-.08.68-.293 1.18-.833 1.5-1.62.32-.787.46-1.807.42-3.06-.014-1.027-.154-1.827-.42-2.4-.254-.587-.594-1-1.02-1.24a2.665 2.665 0 0 0-1.42-.38c-.547 0-1.007.12-1.38.36a2.48 2.48 0 0 0-.88.9c-.2.373-.347.78-.44 1.22l-.46-.84c.24-1.013.673-1.747 1.3-2.2.64-.467 1.333-.7 2.08-.7.573 0 1.1.093 1.58.28.493.187.926.487 1.3.9.373.4.666.94.88 1.62.226.68.346 1.507.36 2.48.04 1.547-.18 2.813-.66 3.8-.48.987-1.194 1.673-2.14 2.06-.947.373-2.094.413-3.44.12zm-3.7-.04l1.48-7.78-1.54-3.32h1.58l1.42 3.38-1.4 7.72h-1.54zm12.529 0v-8.76l-.26-2.34h1.52l.28 2.34V226H94.4zm11.273 0v-7.16c0-1.813-.72-2.72-2.16-2.72h-4.94v-1.22h5.28c.693 0 1.293.147 1.8.44.506.28.893.72 1.16 1.32.266.587.4 1.333.4 2.24v7.1h-1.54zm-7.1 0v-10.58h1.54V226h-1.54zm18.069 0v-7.44c0-.92-.2-1.553-.6-1.9-.4-.36-.927-.54-1.58-.54h-4.66v-1.22h5c.667 0 1.253.12 1.76.36.507.24.9.633 1.18 1.18.28.547.42 1.273.42 2.18V226h-1.52zm-6.86 0v-5.4l.22-1.34h1.3V226h-1.52zm22.422 0v-7.44c0-.92-.2-1.553-.6-1.9-.387-.36-.907-.54-1.56-.54h-4.12v-1.22h4.46c.667 0 1.247.12 1.74.36.507.24.9.633 1.18 1.18.293.547.44 1.273.44 2.18V226h-1.54zm-6.8 0v-1.22h7.82l-.14 1.22h-7.68zm-.4 0v-11.1h1.54V226h-1.54zm11.661-4.2V217.24l-.26-2.34h1.52l.28 2.34v2.98l-.02 1.26-1.52.32zm5.293 4.4l-1.4-11.3h1.48l1.2 9.96c1.04-.067 1.953-.253 2.74-.56.787-.32 1.447-.76 1.98-1.32.547-.573.953-1.287 1.22-2.14.267-.867.393-1.873.38-3.02l-.02-2.92h1.54l.02 2.86c.013 1.893-.32 3.46-1 4.7-.667 1.24-1.68 2.173-3.04 2.8-1.36.613-3.06.927-5.1.94zm.62-4.32l-.36-1.08c.707-.333 1.267-.687 1.68-1.06.427-.373.733-.847.92-1.42.187-.573.287-1.307.3-2.2l.02-1.18h1.48l-.02 1.16c-.013 1-.153 1.86-.42 2.58a4.43 4.43 0 0 1-1.28 1.84c-.573.507-1.347.96-2.32 1.36zm14.438 4.16l.16-1.22c1.106.24 2 .213 2.68-.08.68-.293 1.18-.833 1.5-1.62.32-.787.46-1.807.42-3.06-.014-1.027-.154-1.827-.42-2.4-.254-.587-.594-1-1.02-1.24a2.668 2.668 0 0 0-1.42-.38c-.547 0-1.007.12-1.38.36a2.472 2.472 0 0 0-.88.9c-.2.373-.347.78-.44 1.22l-.46-.84c.24-1.013.673-1.747 1.3-2.2.64-.467 1.333-.7 2.08-.7.573 0 1.1.093 1.58.28.493.187.926.487 1.3.9.373.4.666.94.88 1.62.226.68.346 1.507.36 2.48.04 1.547-.18 2.813-.66 3.8-.48.987-1.194 1.673-2.14 2.06-.947.373-2.094.413-3.44.12zm-3.7-.04l1.48-7.78-1.54-3.32h1.58l1.42 3.38-1.4 7.72h-1.54zm13.349.2l-1.4-11.3h1.48l1.2 9.96c1.04-.067 1.953-.253 2.74-.56.787-.32 1.447-.76 1.98-1.32.547-.573.953-1.287 1.22-2.14.267-.867.393-1.873.38-3.02l-.02-2.92h1.54l.02 2.86c.013 1.893-.32 3.46-1 4.7-.667 1.24-1.68 2.173-3.04 2.8-1.36.613-3.06.927-5.1.94zm.62-4.32l-.36-1.08c.707-.333 1.267-.687 1.68-1.06.427-.373.733-.847.92-1.42.187-.573.287-1.307.3-2.2l.02-1.18h1.48l-.02 1.16c-.013 1-.153 1.86-.42 2.58a4.43 4.43 0 0 1-1.28 1.84c-.573.507-1.347.96-2.32 1.36zm14.438 4.16l.16-1.22c1.106.24 2 .213 2.68-.08.68-.293 1.18-.833 1.5-1.62.32-.787.46-1.807.42-3.06-.014-1.027-.154-1.827-.42-2.4-.254-.587-.594-1-1.02-1.24a2.668 2.668 0 0 0-1.42-.38c-.547 0-1.007.12-1.38.36a2.472 2.472 0 0 0-.88.9c-.2.373-.347.78-.44 1.22l-.46-.84c.24-1.013.673-1.747 1.3-2.2.64-.467 1.333-.7 2.08-.7.573 0 1.1.093 1.58.28.493.187.926.487 1.3.9.373.4.666.94.88 1.62.226.68.346 1.507.36 2.48.04 1.547-.18 2.813-.66 3.8-.48.987-1.194 1.673-2.14 2.06-.947.373-2.094.413-3.44.12zm-3.7-.04l1.48-7.78-1.54-3.32h1.58l1.42 3.38-1.4 7.72h-1.54zm16.533 4v-12.76l-.26-2.34h1.52l.28 2.34V230h-1.54zm10.973-4v-7.44c0-.92-.2-1.553-.6-1.9-.4-.36-.927-.54-1.58-.54h-4.66v-1.22h5c.666 0 1.253.12 1.76.36.506.24.9.633 1.18 1.18.28.547.42 1.273.42 2.18V226h-1.52zm-6.86 0v-5.4l.22-1.34h1.3V226h-1.52zm12.918 0l3.86-9.88h-6.2v-1.22h7.74v1.3l-3.86 9.8h-1.54zm-2.34-9.88v-4.46h1.4v4.46h-1.4zm13.255 10.16l-.16-1.1c.547-.053.967-.173 1.26-.36.307-.187.52-.447.64-.78.12-.347.18-.767.18-1.26v-7.88h4.9c.667 0 1.247.12 1.74.36.507.24.9.633 1.18 1.18.294.547.44 1.273.44 2.18V226h-1.54v-7.44c0-.92-.2-1.553-.6-1.9-.386-.36-.906-.54-1.56-.54h-3.02v6.5c0 .787-.126 1.44-.38 1.96-.24.507-.613.9-1.12 1.18-.493.267-1.146.44-1.96.52zm13.07-.28v-8.76l-.26-2.34h1.52l.28 2.34V226h-1.54zm9.432 0v-7.44c0-.92-.2-1.553-.6-1.9-.386-.36-.906-.54-1.56-.54h-3.54v-1.22h3.88c.667 0 1.247.12 1.74.36.507.24.9.633 1.18 1.18.294.547.44 1.273.44 2.18V226h-1.54zm5.234.2l-1.34-11.3h1.54l1.16 9.88a8.423 8.423 0 0 0 1.96-.42 4.89 4.89 0 0 0 1.62-.98c.48-.427.847-.967 1.1-1.62.253-.667.36-1.467.32-2.4v-.5c0-.547-.093-1.02-.28-1.42a2.07 2.07 0 0 0-.84-.98c-.373-.253-.86-.4-1.46-.44l-.98-.06.1-1.24 1.12.08c.76.04 1.42.207 1.98.5.573.293 1.02.713 1.34 1.26.32.547.493 1.247.52 2.1l.02.56c.04 1.213-.133 2.253-.52 3.12a5.345 5.345 0 0 1-1.66 2.12c-.72.547-1.567.96-2.54 1.24-.973.28-2.027.447-3.16.5zm13.575-.16l.16-1.22c1.106.24 2 .213 2.68-.08.68-.293 1.18-.833 1.5-1.62.32-.787.46-1.807.42-3.06-.014-1.027-.154-1.827-.42-2.4-.254-.587-.594-1-1.02-1.24a2.668 2.668 0 0 0-1.42-.38c-.547 0-1.007.12-1.38.36a2.472 2.472 0 0 0-.88.9c-.2.373-.347.78-.44 1.22l-.46-.84c.24-1.013.673-1.747 1.3-2.2.64-.467 1.333-.7 2.08-.7.573 0 1.1.093 1.58.28.493.187.926.487 1.3.9.373.4.666.94.88 1.62.226.68.346 1.507.36 2.48.04 1.547-.18 2.813-.66 3.8-.48.987-1.194 1.673-2.14 2.06-.947.373-2.094.413-3.44.12zm-3.7-.04l1.48-7.78-1.54-3.32h1.58l1.42 3.38-1.4 7.72h-1.54zm19.029 0v-7.44c0-.92-.2-1.553-.6-1.9-.4-.36-.927-.54-1.58-.54h-4.66v-1.22h5c.667 0 1.253.12 1.76.36.507.24.9.633 1.18 1.18.28.547.42 1.273.42 2.18V226h-1.52zm-6.86 0v-5.4l.22-1.34h1.3V226h-1.52zM43.169 257.8V253.24l-.26-2.34h1.52l.28 2.34v2.98l-.02 1.26-1.52.32zm5.233 4.4l-1.34-11.3h1.54l1.16 9.88a8.422 8.422 0 0 0 1.96-.42 4.882 4.882 0 0 0 1.62-.98 4.12 4.12 0 0 0 1.1-1.62c.253-.667.36-1.467.32-2.4v-.5c0-.547-.093-1.02-.28-1.42a2.074 2.074 0 0 0-.84-.98c-.373-.253-.86-.4-1.46-.44l-.98-.06.1-1.24 1.12.08c.76.04 1.42.207 1.98.5.573.293 1.02.713 1.34 1.26.32.547.493 1.247.52 2.1l.02.56c.04 1.213-.133 2.253-.52 3.12a5.341 5.341 0 0 1-1.66 2.12c-.72.547-1.567.96-2.54 1.24-.973.28-2.027.447-3.16.5zm9.421-.2v-1.22h3.48v-6.66c0-.68-.14-1.167-.42-1.46-.266-.307-.646-.5-1.14-.58l-1.34-.2.22-1.2 1.74.26c.8.12 1.414.447 1.84.98.427.52.64 1.24.64 2.16V262h-5.02zm7.364 0v-1.22h3.48v-6.66c0-.68-.14-1.167-.42-1.46-.267-.307-.647-.5-1.14-.58l-1.34-.2.22-1.2 1.74.26c.8.12 1.413.447 1.84.98.426.52.64 1.24.64 2.16V262h-5.02zm7.963-4.2V253.24l-.26-2.34h1.52l.28 2.34v2.98l-.02 1.26-1.52.32zm7.752 4.24l.16-1.22c1.107.24 2 .213 2.68-.08.68-.293 1.18-.833 1.5-1.62.32-.787.46-1.807.42-3.06-.013-1.027-.153-1.827-.42-2.4-.253-.587-.593-1-1.02-1.24a2.665 2.665 0 0 0-1.42-.38c-.546 0-1.006.12-1.38.36a2.48 2.48 0 0 0-.88.9c-.2.373-.346.78-.44 1.22l-.46-.84c.24-1.013.674-1.747 1.3-2.2.64-.467 1.334-.7 2.08-.7.574 0 1.1.093 1.58.28.494.187.927.487 1.3.9.374.4.667.94.88 1.62.227.68.347 1.507.36 2.48.04 1.547-.18 2.813-.66 3.8-.48.987-1.193 1.673-2.14 2.06-.946.373-2.093.413-3.44.12zm-3.7-.04l1.48-7.78-1.54-3.32h1.58l1.42 3.38-1.4 7.72h-1.54zm12.53 0v-8.76l-.26-2.34h1.52l.28 2.34V262h-1.54zm9.032 0v-7.54c0-.507.047-.953.14-1.34.094-.4.227-.733.4-1h-5.6v-1.22h8.561v1.22h-1.48c-.2.333-.334.72-.4 1.16-.067.427-.1.82-.1 1.18V262h-1.52zm12.644 0v-7.44c0-.92-.2-1.553-.6-1.9-.4-.36-.927-.54-1.58-.54h-4.66v-1.22h5c.666 0 1.253.12 1.76.36.506.24.9.633 1.18 1.18.28.547.42 1.273.42 2.18V262h-1.52zm-6.86 0v-5.4l.22-1.34h1.3V262h-1.52zm21.782 0v-7.44c0-.92-.2-1.553-.6-1.9-.4-.36-.927-.54-1.58-.54h-4.66v-1.22h5c.666 0 1.253.12 1.76.36.506.24.9.633 1.18 1.18.28.547.42 1.273.42 2.18V262h-1.52zm-6.86 0v-5.4l.22-1.34h1.3V262h-1.52zm12.918 0l3.86-9.88h-6.2v-1.22h7.74v1.3l-3.86 9.8h-1.54zm-2.34-9.88v-4.46h1.4v4.46h-1.4zm10.211 9.88v-8.76l-.26-2.34h1.52l.28 2.34V262h-1.54zm3.653.58l-.22-1.24 3.56-.68c.787-.147 1.427-.367 1.92-.66.507-.293.893-.68 1.16-1.16.28-.48.48-1.08.6-1.8.133-.72.213-1.587.24-2.6.027-1.013.04-2.193.04-3.54h1.52c0 1.44-.027 2.713-.08 3.82-.053 1.107-.173 2.073-.36 2.9-.187.813-.48 1.5-.88 2.06-.387.56-.92 1.027-1.6 1.4-.667.36-1.513.64-2.54.84l-3.36.66zm3.36-1.8l-2.62-9.88h1.54l2.58 9.88h-1.5zm8.045 1.22v-1.22h3.26c.493 0 .947-.06 1.36-.18.413-.133.773-.34 1.08-.62.307-.293.547-.68.72-1.16.187-.48.28-1.073.28-1.78v-1.22c0-.813-.107-1.493-.32-2.04-.2-.547-.513-.96-.94-1.24-.413-.28-.933-.42-1.56-.42h-2.1l-.52 2.22c-.16.773-.147 1.367.04 1.78.2.4.68.673 1.44.82l-.32 1.06c-.787-.08-1.393-.28-1.82-.6a2.082 2.082 0 0 1-.78-1.28c-.107-.533-.087-1.16.06-1.88l.76-3.34h3.5c.853 0 1.58.187 2.18.56.613.373 1.087.927 1.42 1.66.333.733.5 1.647.5 2.74v1.12c0 .92-.127 1.7-.38 2.34-.24.64-.58 1.16-1.02 1.56a4.095 4.095 0 0 1-1.5.86c-.56.173-1.16.26-1.8.26h-3.54zm17.36 0v-7.44c0-.92-.2-1.553-.6-1.9-.4-.36-.926-.54-1.58-.54h-4.66v-1.22h5c.667 0 1.254.12 1.76.36.507.24.9.633 1.18 1.18.28.547.42 1.273.42 2.18V262h-1.52zm-6.86 0v-5.4l.22-1.34h1.3V262h-1.52zm18.762 0l-.76-4.18v-3.72c0-.627-.08-1.1-.24-1.42-.147-.333-.467-.533-.96-.6l-1.28-.2.22-1.2 1.66.26c.8.12 1.353.427 1.66.92.307.493.46 1.2.46 2.12v3.86l.72 4.16h-1.48zm-3.96.28l-.56-1.24c.92-.333 1.693-.773 2.32-1.32.64-.56 1.16-1.293 1.56-2.2l.5.98a7.081 7.081 0 0 1-.92 1.7c-.36.48-.78.893-1.26 1.24a7.326 7.326 0 0 1-1.64.84zm7.921-.28v-8.76l-.26-2.34h1.52l.28 2.34V262h-1.54zm5.253.2l-1.22-10.08 1.44-.8 1.14 9.46c.547-.053 1.073-.14 1.58-.26.507-.133.973-.32 1.4-.56.44-.253.82-.573 1.14-.96.32-.387.56-.86.72-1.42.16-.573.22-1.253.18-2.04v-.48c0-.56-.093-1.06-.28-1.5a2.237 2.237 0 0 0-.8-1.04c-.36-.267-.807-.4-1.34-.4h-5.18l-.14-1.22h5.46c1.2 0 2.12.373 2.76 1.12.653.747 1 1.733 1.04 2.96l.02.6c.04 1.213-.14 2.24-.54 3.08a5.068 5.068 0 0 1-1.7 2c-.733.493-1.587.86-2.56 1.1a16.26 16.26 0 0 1-3.12.44zm14.533-.2v-8.76l-.26-2.34h1.52l.28 2.34V262h-1.54zm10.972 0v-7.44c0-.92-.2-1.553-.6-1.9-.4-.36-.926-.54-1.58-.54h-4.66v-1.22h5c.667 0 1.254.12 1.76.36.507.24.9.633 1.18 1.18.28.547.42 1.273.42 2.18V262h-1.52zm-6.86 0v-5.4l.22-1.34h1.3V262h-1.52zm14.558.04l.16-1.22c1.107.24 2 .213 2.68-.08.68-.293 1.18-.833 1.5-1.62.32-.787.46-1.807.42-3.06-.013-1.027-.153-1.827-.42-2.4-.253-.587-.593-1-1.02-1.24a2.663 2.663 0 0 0-1.42-.38c-.546 0-1.006.12-1.38.36a2.488 2.488 0 0 0-.88.9 4.6 4.6 0 0 0-.44 1.22l-.46-.84c.24-1.013.674-1.747 1.3-2.2.64-.467 1.334-.7 2.08-.7.574 0 1.1.093 1.58.28a3.32 3.32 0 0 1 1.3.9c.374.4.667.94.88 1.62.227.68.347 1.507.36 2.48.04 1.547-.18 2.813-.66 3.8-.48.987-1.193 1.673-2.14 2.06-.946.373-2.093.413-3.44.12zm-3.7-.04l1.48-7.78-1.54-3.32h1.58l1.42 3.38-1.4 7.72h-1.54zm18.174 0l3.86-9.88h-6.2v-1.22h7.74v1.3l-3.86 9.8h-1.54zm-2.34-9.88v-4.46h1.4v4.46h-1.4zm11.031 10.08l-1.4-11.3h1.48l1.2 9.96c1.04-.067 1.954-.253 2.74-.56.787-.32 1.447-.76 1.98-1.32.547-.573.954-1.287 1.22-2.14.267-.867.394-1.873.38-3.02l-.02-2.92h1.54l.02 2.86c.014 1.893-.32 3.46-1 4.7-.666 1.24-1.68 2.173-3.04 2.8-1.36.613-3.06.927-5.1.94zm.62-4.32l-.36-1.08c.707-.333 1.267-.687 1.68-1.06.427-.373.734-.847.92-1.42.187-.573.287-1.307.3-2.2l.02-1.18h1.48l-.02 1.16c-.013 1-.153 1.86-.42 2.58a4.42 4.42 0 0 1-1.28 1.84c-.573.507-1.346.96-2.32 1.36zm14.438 4.16l.16-1.22c1.107.24 2 .213 2.68-.08.68-.293 1.18-.833 1.5-1.62.32-.787.46-1.807.42-3.06-.013-1.027-.153-1.827-.42-2.4-.253-.587-.593-1-1.02-1.24a2.665 2.665 0 0 0-1.42-.38c-.547 0-1.007.12-1.38.36a2.48 2.48 0 0 0-.88.9c-.2.373-.347.78-.44 1.22l-.46-.84c.24-1.013.673-1.747 1.3-2.2.64-.467 1.333-.7 2.08-.7.573 0 1.1.093 1.58.28.493.187.927.487 1.3.9.373.4.667.94.88 1.62.227.68.347 1.507.36 2.48.04 1.547-.18 2.813-.66 3.8-.48.987-1.193 1.673-2.14 2.06-.947.373-2.093.413-3.44.12zm-3.7-.04l1.48-7.78-1.54-3.32h1.58l1.42 3.38-1.4 7.72h-1.54zm14.169 0l3.86-9.88h-6.2v-1.22h7.74v1.3l-3.86 9.8h-1.54zm-2.34-9.88v-4.46h1.4v4.46h-1.4zm-185.863 42c-.08-.627-.04-1.187.12-1.68.16-.493.38-.94.66-1.34.293-.4.594-.78.9-1.14.307-.373.567-.747.78-1.12.214-.373.32-.78.32-1.22 0-.373-.073-.713-.22-1.02a1.59 1.59 0 0 0-.68-.74c-.293-.187-.666-.28-1.12-.28-.44 0-.867.107-1.28.32-.4.2-.76.487-1.08.86l-.84-.78c.413-.467.9-.853 1.46-1.16.56-.307 1.194-.46 1.9-.46.667 0 1.247.133 1.74.4.493.253.874.62 1.14 1.1.28.467.42 1.02.42 1.66 0 .52-.113 1-.34 1.44-.213.427-.48.833-.8 1.22-.306.373-.606.76-.9 1.16a5.618 5.618 0 0 0-.72 1.26c-.173.453-.226.96-.16 1.52h-1.3zm.7 4.12c-.293 0-.553-.107-.78-.32-.213-.213-.32-.493-.32-.84 0-.36.107-.647.32-.86.227-.213.487-.32.78-.32.307 0 .567.107.78.32.213.213.32.5.32.86 0 .347-.106.627-.32.84-.213.213-.473.32-.78.32zm17.183-.24v-7.44c0-.92-.2-1.553-.6-1.9-.387-.36-.907-.54-1.56-.54h-4.12v-1.22h4.46c.667 0 1.247.12 1.74.36.507.24.9.633 1.18 1.18.293.547.44 1.273.44 2.18V298h-1.54zm-6.8 0v-1.22h7.82l-.14 1.22h-7.68zm-.4 0v-11.1h1.54V298h-1.54zm11.662-4.2V289.24l-.26-2.34h1.52l.28 2.34v2.98l-.02 1.26-1.52.32zm9.432 4.2v-7.44c0-.92-.2-1.553-.6-1.9-.386-.36-.906-.54-1.56-.54h-3.54v-1.22h3.88c.667 0 1.247.12 1.74.36.507.24.9.633 1.18 1.18.294.547.44 1.273.44 2.18V298h-1.54zm7.754.04l.16-1.22c1.106.24 2 .213 2.68-.08.68-.293 1.18-.833 1.5-1.62.32-.787.46-1.807.42-3.06-.014-1.027-.154-1.827-.42-2.4-.254-.587-.594-1-1.02-1.24a2.668 2.668 0 0 0-1.42-.38c-.547 0-1.007.12-1.38.36a2.472 2.472 0 0 0-.88.9c-.2.373-.347.78-.44 1.22l-.46-.84c.24-1.013.673-1.747 1.3-2.2.64-.467 1.333-.7 2.08-.7.573 0 1.1.093 1.58.28.493.187.926.487 1.3.9.373.4.666.94.88 1.62.226.68.346 1.507.36 2.48.04 1.547-.18 2.813-.66 3.8-.48.987-1.194 1.673-2.14 2.06-.947.373-2.094.413-3.44.12zm-3.7-.04l1.48-7.78-1.54-3.32h1.58l1.42 3.38-1.4 7.72h-1.54zm12.529 0v-8.76l-.26-2.34h1.52l.28 2.34V298h-1.54zm11.273 0v-7.16c0-1.813-.72-2.72-2.16-2.72h-4.94v-1.22h5.28c.693 0 1.293.147 1.8.44.506.28.893.72 1.16 1.32.266.587.4 1.333.4 2.24v7.1h-1.54zm-7.1 0v-10.58h1.54V298h-1.54zm18.069 0v-7.44c0-.92-.2-1.553-.6-1.9-.4-.36-.926-.54-1.58-.54h-4.66v-1.22h5c.667 0 1.254.12 1.76.36.507.24.9.633 1.18 1.18.28.547.42 1.273.42 2.18V298h-1.52zm-6.86 0v-5.4l.22-1.34h1.3V298h-1.52zm22.422 0v-7.44c0-.92-.2-1.553-.6-1.9-.386-.36-.906-.54-1.56-.54h-4.12v-1.22h4.46c.667 0 1.247.12 1.74.36.507.24.9.633 1.18 1.18.294.547.44 1.273.44 2.18V298h-1.54zm-6.8 0v-1.22h7.82l-.14 1.22h-7.68zm-.4 0v-11.1h1.54V298h-1.54zm10.842.58l-.22-1.24 3.56-.68c.786-.147 1.426-.367 1.92-.66.506-.293.893-.68 1.16-1.16.28-.48.48-1.08.6-1.8.133-.72.213-1.587.24-2.6.026-1.013.04-2.193.04-3.54h1.52c0 1.44-.027 2.713-.08 3.82-.054 1.107-.174 2.073-.36 2.9-.187.813-.48 1.5-.88 2.06-.387.56-.92 1.027-1.6 1.4-.667.36-1.514.64-2.54.84l-3.36.66zm3.36-1.8l-2.62-9.88h1.54l2.58 9.88h-1.5zM197.3 298v-7.54c0-.507.046-.953.14-1.34.093-.4.226-.733.4-1h-5.6v-1.22h8.56v1.22h-1.48c-.2.333-.334.72-.4 1.16-.067.427-.1.82-.1 1.18V298h-1.52zm7.783 0l3.86-9.88h-6.2v-1.22h7.74v1.3l-3.86 9.8h-1.54zm-2.34-9.88v-4.46h1.4v4.46h-1.4zm10.212 5.68V289.24l-.26-2.34h1.52l.28 2.34v2.98l-.02 1.26-1.52.32zm10.972 4.2v-7.44c0-.92-.2-1.553-.6-1.9-.4-.36-.926-.54-1.58-.54h-4.66v-1.22h5c.667 0 1.254.12 1.76.36.507.24.9.633 1.18 1.18.28.547.42 1.273.42 2.18V298h-1.52zm-6.86 0v-5.4l.22-1.34h1.3V298h-1.52zm21.782 0v-7.44c0-.92-.2-1.553-.6-1.9-.4-.36-.927-.54-1.58-.54h-4.66v-1.22h5c.667 0 1.253.12 1.76.36.507.24.9.633 1.18 1.18.28.547.42 1.273.42 2.18V298h-1.52zm-6.86 0v-5.4l.22-1.34h1.3V298h-1.52zm12.098.2l-1.4-11.3h1.48l1.2 9.96c1.04-.067 1.953-.253 2.74-.56.787-.32 1.447-.76 1.98-1.32.547-.573.953-1.287 1.22-2.14.267-.867.393-1.873.38-3.02l-.02-2.92h1.54l.02 2.86c.013 1.893-.32 3.46-1 4.7-.667 1.24-1.68 2.173-3.04 2.8-1.36.613-3.06.927-5.1.94zm.62-4.32l-.36-1.08c.707-.333 1.267-.687 1.68-1.06.427-.373.733-.847.92-1.42.187-.573.287-1.307.3-2.2l.02-1.18h1.48l-.02 1.16c-.013 1-.153 1.86-.42 2.58a4.43 4.43 0 0 1-1.28 1.84c-.573.507-1.347.96-2.32 1.36zm11.158 4.12v-8.76l-.26-2.34h1.52l.28 2.34V298h-1.54zm3.652.58l-.22-1.24 3.56-.68c.787-.147 1.427-.367 1.92-.66a3.02 3.02 0 0 0 1.16-1.16c.28-.48.48-1.08.6-1.8.134-.72.214-1.587.24-2.6.027-1.013.04-2.193.04-3.54h1.52a79.5 79.5 0 0 1-.08 3.82c-.053 1.107-.173 2.073-.36 2.9-.186.813-.48 1.5-.88 2.06-.386.56-.92 1.027-1.6 1.4-.666.36-1.513.64-2.54.84l-3.36.66zm3.36-1.8l-2.62-9.88h1.54l2.58 9.88h-1.5zm8.905 1.42l-1.4-11.3h1.48l1.2 9.96c1.04-.067 1.954-.253 2.74-.56.787-.32 1.447-.76 1.98-1.32.547-.573.954-1.287 1.22-2.14.267-.867.394-1.873.38-3.02l-.02-2.92h1.54l.02 2.86c.014 1.893-.32 3.46-1 4.7-.666 1.24-1.68 2.173-3.04 2.8-1.36.613-3.06.927-5.1.94zm.62-4.32l-.36-1.08c.707-.333 1.267-.687 1.68-1.06.427-.373.734-.847.92-1.42.187-.573.287-1.307.3-2.2l.02-1.18h1.48l-.02 1.16c-.013 1-.153 1.86-.42 2.58a4.42 4.42 0 0 1-1.28 1.84c-.573.507-1.346.96-2.32 1.36zm-171.479 36.24c-.08-.627-.04-1.187.12-1.68.16-.493.38-.94.66-1.34.293-.4.593-.78.9-1.14.306-.373.566-.747.78-1.12.213-.373.32-.78.32-1.22 0-.373-.074-.713-.22-1.02a1.595 1.595 0 0 0-.68-.74c-.294-.187-.667-.28-1.12-.28-.44 0-.867.107-1.28.32-.4.2-.76.487-1.08.86l-.84-.78c.413-.467.9-.853 1.46-1.16.56-.307 1.193-.46 1.9-.46.666 0 1.246.133 1.74.4.493.253.873.62 1.14 1.1.28.467.42 1.02.42 1.66 0 .52-.114 1-.34 1.44-.214.427-.48.833-.8 1.22-.307.373-.607.76-.9 1.16a5.572 5.572 0 0 0-.72 1.26c-.174.453-.227.96-.16 1.52h-1.3zm.7 4.12c-.294 0-.554-.107-.78-.32-.214-.213-.32-.493-.32-.84 0-.36.106-.647.32-.86.226-.213.486-.32.78-.32.306 0 .566.107.78.32.213.213.32.5.32.86 0 .347-.107.627-.32.84-.214.213-.474.32-.78.32zm5.079.04l-.16-1.1c.546-.053.966-.173 1.26-.36a1.48 1.48 0 0 0 .64-.78c.12-.347.18-.767.18-1.26v-7.88h4.9c.666 0 1.246.12 1.74.36.506.24.9.633 1.18 1.18.293.547.44 1.273.44 2.18V334h-1.54v-7.44c0-.92-.2-1.553-.6-1.9-.387-.36-.907-.54-1.56-.54h-3.02v6.5c0 .787-.127 1.44-.38 1.96-.24.507-.614.9-1.12 1.18-.494.267-1.147.44-1.96.52zm13.069-4.48V325.24l-.26-2.34h1.52l.28 2.34v2.98l-.02 1.26-1.52.32zm5.293 4.4l-1.4-11.3h1.48l1.2 9.96c1.04-.067 1.953-.253 2.74-.56.786-.32 1.446-.76 1.98-1.32.546-.573.953-1.287 1.22-2.14.266-.867.393-1.873.38-3.02l-.02-2.92h1.54l.02 2.86c.013 1.893-.32 3.46-1 4.7-.667 1.24-1.68 2.173-3.04 2.8-1.36.613-3.06.927-5.1.94zm.62-4.32l-.36-1.08c.706-.333 1.266-.687 1.68-1.06.426-.373.733-.847.92-1.42.186-.573.286-1.307.3-2.2l.02-1.18h1.48l-.02 1.16c-.014 1-.154 1.86-.42 2.58a4.439 4.439 0 0 1-1.28 1.84c-.574.507-1.347.96-2.32 1.36zm10.064 4.7l-.22-1.24 3.56-.68c.786-.147 1.426-.367 1.92-.66.506-.293.893-.68 1.16-1.16.28-.48.48-1.08.6-1.8.133-.72.213-1.587.24-2.6.026-1.013.04-2.193.04-3.54h1.52c0 1.44-.027 2.713-.08 3.82-.054 1.107-.174 2.073-.36 2.9-.187.813-.48 1.5-.88 2.06-.387.56-.92 1.027-1.6 1.4-.667.36-1.514.64-2.54.84l-3.36.66zm3.36-1.8l-2.62-9.88h1.54l2.58 9.88h-1.5zm7.485 1.22v-1.22h3.48v-6.66c0-.68-.14-1.167-.42-1.46-.267-.307-.647-.5-1.14-.58l-1.34-.2.22-1.2 1.74.26c.8.12 1.413.447 1.84.98.426.52.64 1.24.64 2.16V334h-5.02zm8.783.2l-1.4-11.3h1.48l1.2 9.96c1.04-.067 1.953-.253 2.74-.56.787-.32 1.447-.76 1.98-1.32.547-.573.953-1.287 1.22-2.14.267-.867.393-1.873.38-3.02l-.02-2.92h1.54l.02 2.86c.013 1.893-.32 3.46-1 4.7-.667 1.24-1.68 2.173-3.04 2.8-1.36.613-3.06.927-5.1.94zm.62-4.32l-.36-1.08c.707-.333 1.267-.687 1.68-1.06.427-.373.733-.847.92-1.42.187-.573.287-1.307.3-2.2l.02-1.18h1.48l-.02 1.16c-.013 1-.153 1.86-.42 2.58a4.43 4.43 0 0 1-1.28 1.84c-.573.507-1.347.96-2.32 1.36zm21.662 4.12v-7.44c0-.92-.2-1.553-.6-1.9-.4-.36-.927-.54-1.58-.54h-4.66v-1.22h5c.666 0 1.253.12 1.76.36.506.24.9.633 1.18 1.18.28.547.42 1.273.42 2.18V334h-1.52zm-6.86 0v-5.4l.22-1.34h1.3V334h-1.52zm11.278-4.2V325.24l-.26-2.34h1.52l.28 2.34v2.98l-.02 1.26-1.52.32zm10.712 4.2l-6.62-11.1h1.58l6.62 11.1h-1.58zm-7.02 0v-1.22h7.58l.46 1.22h-8.04zm5.56-4.64l-.86-1.36 2.18-5.1h1.56l-2.88 6.46zm7.173 4.64l3.86-9.88h-6.2v-1.22h7.74v1.3l-3.86 9.8h-1.54zm-2.34-9.88v-4.46h1.4v4.46h-1.4zm10.212 9.88v-8.76l-.26-2.34h1.52l.28 2.34V334h-1.54zm4.432 0v-1.22h3.26c.493 0 .947-.06 1.36-.18.413-.133.773-.34 1.08-.62.307-.293.547-.68.72-1.16.187-.48.28-1.073.28-1.78v-1.22c0-.813-.107-1.493-.32-2.04-.2-.547-.513-.96-.94-1.24-.413-.28-.933-.42-1.56-.42h-2.1l-.52 2.22c-.16.773-.147 1.367.04 1.78.2.4.68.673 1.44.82l-.32 1.06c-.787-.08-1.393-.28-1.82-.6a2.082 2.082 0 0 1-.78-1.28c-.107-.533-.087-1.16.06-1.88l.76-3.34h3.5c.853 0 1.58.187 2.18.56.613.373 1.087.927 1.42 1.66.333.733.5 1.647.5 2.74v1.12c0 .92-.127 1.7-.38 2.34-.24.64-.58 1.16-1.02 1.56a4.095 4.095 0 0 1-1.5.86c-.56.173-1.16.26-1.8.26h-3.54zm10.86-4.2V325.24l-.26-2.34h1.52l.28 2.34v2.98l-.02 1.26-1.52.32zm3.873 4.2v-1.22h3.48v-6.66c0-.68-.14-1.167-.42-1.46-.267-.307-.647-.5-1.14-.58l-1.34-.2.22-1.2 1.74.26c.8.12 1.413.447 1.84.98.427.52.64 1.24.64 2.16V334h-5.02zm11.243.04l.16-1.22c1.107.24 2 .213 2.68-.08.68-.293 1.18-.833 1.5-1.62.32-.787.46-1.807.42-3.06-.013-1.027-.153-1.827-.42-2.4-.253-.587-.593-1-1.02-1.24a2.663 2.663 0 0 0-1.42-.38c-.546 0-1.006.12-1.38.36a2.488 2.488 0 0 0-.88.9 4.6 4.6 0 0 0-.44 1.22l-.46-.84c.24-1.013.674-1.747 1.3-2.2.64-.467 1.334-.7 2.08-.7.574 0 1.1.093 1.58.28a3.32 3.32 0 0 1 1.3.9c.374.4.667.94.88 1.62.227.68.347 1.507.36 2.48.04 1.547-.18 2.813-.66 3.8-.48.987-1.193 1.673-2.14 2.06-.946.373-2.093.413-3.44.12zm-3.7-.04l1.48-7.78-1.54-3.32h1.58l1.42 3.38-1.4 7.72h-1.54zm19.03 0v-7.44c0-.92-.2-1.553-.6-1.9-.4-.36-.927-.54-1.58-.54h-4.66v-1.22h5c.666 0 1.253.12 1.76.36.506.24.9.633 1.18 1.18.28.547.42 1.273.42 2.18V334h-1.52zm-6.86 0v-5.4l.22-1.34h1.3V334h-1.52zm21.782 0v-7.44c0-.92-.2-1.553-.6-1.9-.4-.36-.927-.54-1.58-.54h-4.66v-1.22h5c.666 0 1.253.12 1.76.36.506.24.9.633 1.18 1.18.28.547.42 1.273.42 2.18V334h-1.52zm-6.86 0v-5.4l.22-1.34h1.3V334h-1.52zm14.558.04l.16-1.22c1.106.24 2 .213 2.68-.08.68-.293 1.18-.833 1.5-1.62.32-.787.46-1.807.42-3.06-.014-1.027-.154-1.827-.42-2.4-.254-.587-.594-1-1.02-1.24a2.668 2.668 0 0 0-1.42-.38c-.547 0-1.007.12-1.38.36a2.472 2.472 0 0 0-.88.9c-.2.373-.347.78-.44 1.22l-.46-.84c.24-1.013.673-1.747 1.3-2.2.64-.467 1.333-.7 2.08-.7.573 0 1.1.093 1.58.28.493.187.926.487 1.3.9.373.4.666.94.88 1.62.226.68.346 1.507.36 2.48.04 1.547-.18 2.813-.66 3.8-.48.987-1.194 1.673-2.14 2.06-.947.373-2.094.413-3.44.12zm-3.7-.04l1.48-7.78-1.54-3.32h1.58l1.42 3.38-1.4 7.72h-1.54zm-227.26 36v-7.44c0-.92-.2-1.553-.6-1.9-.4-.36-.927-.54-1.58-.54h-4.66v-1.22h5c.667 0 1.253.12 1.76.36.507.24.9.633 1.18 1.18.28.547.42 1.273.42 2.18V370h-1.52zm-6.86 0v-5.4l.22-1.34h1.3V370h-1.52zm14.558.04l.16-1.22c1.107.24 2 .213 2.68-.08.68-.293 1.18-.833 1.5-1.62.32-.787.46-1.807.42-3.06-.013-1.027-.153-1.827-.42-2.4-.253-.587-.593-1-1.02-1.24a2.665 2.665 0 0 0-1.42-.38c-.547 0-1.007.12-1.38.36a2.48 2.48 0 0 0-.88.9c-.2.373-.347.78-.44 1.22l-.46-.84c.24-1.013.673-1.747 1.3-2.2.64-.467 1.333-.7 2.08-.7.573 0 1.1.093 1.58.28.493.187.927.487 1.3.9.373.4.667.94.88 1.62.227.68.347 1.507.36 2.48.04 1.547-.18 2.813-.66 3.8-.48.987-1.193 1.673-2.14 2.06-.947.373-2.093.413-3.44.12zm-3.7-.04l1.48-7.78-1.54-3.32h1.58l1.42 3.38-1.4 7.72h-1.54zm12.53 0v-8.76l-.26-2.34h1.52l.28 2.34V370h-1.54zm9.032 0v-7.54c0-.507.047-.953.14-1.34.093-.4.227-.733.4-1h-5.6v-1.22h8.56v1.22h-1.48c-.2.333-.333.72-.4 1.16-.067.427-.1.82-.1 1.18V370h-1.52zm5.483 0v-1.22h2.64c.733 0 1.34-.14 1.82-.42.48-.28.84-.693 1.08-1.24.24-.56.36-1.24.36-2.04v-1.26c0-.813-.12-1.493-.36-2.04-.24-.547-.6-.96-1.08-1.24-.48-.28-1.087-.42-1.82-.42h-2.64v-1.22h2.94c.96 0 1.773.187 2.44.56.667.373 1.173.933 1.52 1.68.36.747.54 1.66.54 2.74v1.14c0 1.08-.18 1.993-.54 2.74-.347.747-.853 1.307-1.52 1.68s-1.48.56-2.44.56h-2.94zm10.074 0v-8.76l-.26-2.34h1.52l.28 2.34V370h-1.54zm10.117-3.88c-.08-.627-.04-1.187.12-1.68.16-.493.38-.94.66-1.34.293-.4.593-.78.9-1.14.306-.373.566-.747.78-1.12.213-.373.32-.78.32-1.22 0-.373-.074-.713-.22-1.02a1.59 1.59 0 0 0-.68-.74c-.294-.187-.667-.28-1.12-.28-.44 0-.867.107-1.28.32-.4.2-.76.487-1.08.86l-.84-.78c.413-.467.9-.853 1.46-1.16.56-.307 1.193-.46 1.9-.46.666 0 1.246.133 1.74.4.493.253.873.62 1.14 1.1.28.467.42 1.02.42 1.66 0 .52-.114 1-.34 1.44-.214.427-.48.833-.8 1.22-.307.373-.607.76-.9 1.16a5.626 5.626 0 0 0-.72 1.26c-.174.453-.227.96-.16 1.52h-1.3zm.7 4.12c-.294 0-.554-.107-.78-.32-.214-.213-.32-.493-.32-.84 0-.36.106-.647.32-.86.226-.213.486-.32.78-.32.306 0 .566.107.78.32.213.213.32.5.32.86 0 .347-.107.627-.32.84-.214.213-.474.32-.78.32zm15.263-.24v-7.44c0-.92-.2-1.553-.6-1.9-.387-.36-.907-.54-1.56-.54h-3.6v-1.22h3.94c.666 0 1.253.12 1.76.36.506.24.9.633 1.18 1.18.28.547.42 1.273.42 2.18V370h-1.54zm-5.76 0v-1.22h8.72V370h-8.72zm11.887.2l-1.4-11.3h1.48l1.2 9.96c1.04-.067 1.953-.253 2.74-.56.787-.32 1.447-.76 1.98-1.32.547-.573.953-1.287 1.22-2.14.267-.867.393-1.873.38-3.02l-.02-2.92h1.54l.02 2.86c.013 1.893-.32 3.46-1 4.7-.667 1.24-1.68 2.173-3.04 2.8-1.36.613-3.06.927-5.1.94zm.62-4.32l-.36-1.08c.707-.333 1.267-.687 1.68-1.06.427-.373.733-.847.92-1.42.187-.573.287-1.307.3-2.2l.02-1.18h1.48l-.02 1.16c-.013 1-.153 1.86-.42 2.58a4.43 4.43 0 0 1-1.28 1.84c-.573.507-1.347.96-2.32 1.36zm14.158 4.12l-.16-1.22a6.41 6.41 0 0 0 1.28-.28c.413-.147.78-.373 1.1-.68.32-.32.58-.76.78-1.32.213-.573.353-1.3.42-2.18l.34-4.2h-7.2v-1.22h8.84l-.06 1.1-.32 4.02c-.054.987-.214 1.853-.48 2.6-.254.733-.6 1.347-1.04 1.84a4.14 4.14 0 0 1-1.54 1.12 5.424 5.424 0 0 1-1.96.42zm-3.4 4v-9.68l.22-1.36h1.32V374h-1.54zm17.876-4v-7.44c0-.92-.2-1.553-.6-1.9-.4-.36-.927-.54-1.58-.54h-4.66v-1.22h5c.667 0 1.253.12 1.76.36.507.24.9.633 1.18 1.18.28.547.42 1.273.42 2.18V370h-1.52zm-6.86 0v-5.4l.22-1.34h1.3V370h-1.52zm11.278 0v-8.76l-.26-2.34h1.52l.28 2.34V370h-1.54zm9.457 0v-7.54c0-.507.046-.953.14-1.34.106-.4.246-.733.42-1h-2v-1.22h5.02v1.22h-1.58a2.9 2.9 0 0 0-.38 1.16 9.44 9.44 0 0 0-.08 1.18V370h-1.54zm6.246 0v-8.76l-.26-2.34h1.52l.28 2.34V370h-1.54zm3.813 0v-1.22h2.64c.733 0 1.34-.14 1.82-.42.48-.28.84-.693 1.08-1.24.24-.56.36-1.24.36-2.04v-1.26c0-.813-.12-1.493-.36-2.04-.24-.547-.6-.96-1.08-1.24-.48-.28-1.087-.42-1.82-.42h-2.64v-1.22h2.94c.96 0 1.773.187 2.44.56.666.373 1.173.933 1.52 1.68.36.747.54 1.66.54 2.74v1.14c0 1.08-.18 1.993-.54 2.74-.347.747-.854 1.307-1.52 1.68-.667.373-1.48.56-2.44.56h-2.94zm10.074-4.2V361.24l-.26-2.34h1.52l.28 2.34v2.98l-.02 1.26-1.52.32zm9.433 4.2v-7.44c0-.92-.2-1.553-.6-1.9-.387-.36-.907-.54-1.56-.54h-3.54v-1.22h3.88c.666 0 1.246.12 1.74.36.506.24.9.633 1.18 1.18.293.547.44 1.273.44 2.18V370h-1.54zm10.973 0v-7.44c0-.92-.2-1.553-.6-1.9-.4-.36-.927-.54-1.58-.54h-4.66v-1.22h5c.667 0 1.253.12 1.76.36.507.24.9.633 1.18 1.18.28.547.42 1.273.42 2.18V370h-1.52zm-6.86 0v-5.4l.22-1.34h1.3V370h-1.52zm15.282-4.2V361.24l-.26-2.34h1.52l.28 2.34v2.98l-.02 1.26-1.52.32zm11.273 4.2v-7.16c0-1.813-.72-2.72-2.16-2.72h-4.94v-1.22h5.28c.693 0 1.293.147 1.8.44.506.28.893.72 1.16 1.32.266.587.4 1.333.4 2.24v7.1h-1.54zm-7.1 0v-10.58h1.54V370h-1.54zm11.569 0v-8.76l-.26-2.34h1.52l.28 2.34V370h-1.54zm4.473 0v-8.76l-.26-2.34h1.52l.28 2.34V370h-1.54zm5.233.2l-1.34-11.3h1.54l1.16 9.88a8.434 8.434 0 0 0 1.96-.42 4.89 4.89 0 0 0 1.62-.98c.48-.427.846-.967 1.1-1.62.253-.667.36-1.467.32-2.4v-.5c0-.547-.094-1.02-.28-1.42a2.081 2.081 0 0 0-.84-.98c-.374-.253-.86-.4-1.46-.44l-.98-.06.1-1.24 1.12.08c.76.04 1.42.207 1.98.5.573.293 1.02.713 1.34 1.26.32.547.493 1.247.52 2.1l.02.56c.04 1.213-.134 2.253-.52 3.12a5.345 5.345 0 0 1-1.66 2.12c-.72.547-1.567.96-2.54 1.24-.974.28-2.027.447-3.16.5zm21.438-.2v-7.44c0-.92-.2-1.553-.6-1.9-.387-.36-.907-.54-1.56-.54h-4.12v-1.22h4.46c.667 0 1.247.12 1.74.36.507.24.9.633 1.18 1.18.293.547.44 1.273.44 2.18V370h-1.54zm-6.8 0v-1.22h7.82l-.14 1.22h-7.68zm-.4 0v-11.1h1.54V370h-1.54zm18.162 0v-7.44c0-.92-.2-1.553-.6-1.9-.4-.36-.927-.54-1.58-.54h-4.66v-1.22h5c.666 0 1.253.12 1.76.36.506.24.9.633 1.18 1.18.28.547.42 1.273.42 2.18V370h-1.52zm-6.86 0v-5.4l.22-1.34h1.3V370h-1.52zm14.558.04l.16-1.22c1.106.24 2 .213 2.68-.08.68-.293 1.18-.833 1.5-1.62.32-.787.46-1.807.42-3.06-.014-1.027-.154-1.827-.42-2.4-.254-.587-.594-1-1.02-1.24a2.668 2.668 0 0 0-1.42-.38c-.547 0-1.007.12-1.38.36a2.472 2.472 0 0 0-.88.9c-.2.373-.347.78-.44 1.22l-.46-.84c.24-1.013.673-1.747 1.3-2.2.64-.467 1.333-.7 2.08-.7.573 0 1.1.093 1.58.28.493.187.926.487 1.3.9.373.4.666.94.88 1.62.226.68.346 1.507.36 2.48.04 1.547-.18 2.813-.66 3.8-.48.987-1.194 1.673-2.14 2.06-.947.373-2.094.413-3.44.12zm-3.7-.04l1.48-7.78-1.54-3.32h1.58l1.42 3.38-1.4 7.72h-1.54zM67.218 103.702c1.546 0 2.755.435 3.625 1.305.87.87 1.305 2.243 1.305 4.118V120h-13.34v-16.298h8.41zm1.827 13.92v-8.642c0-1.025-.223-1.759-.667-2.204-.445-.464-1.093-.696-1.943-.696H61.91v11.542h7.134zm6.871-10.527l-.347-3.393h3.073l.377 3.393v4.408l-.029 1.827-3.073.58v-6.815zm13.927 1.885c0-1.025-.222-1.759-.667-2.204-.444-.464-1.092-.696-1.943-.696h-5.365v-2.378h6.148c1.547 0 2.755.435 3.625 1.305.87.87 1.305 2.243 1.305 4.118V120h-3.103v-11.02zm21.648 2.813c0 2.707-.599 4.814-1.798 6.322-1.199 1.489-2.9 2.233-5.104 2.233-.812 0-1.643-.097-2.494-.29l.319-2.378c.735.155 1.363.232 1.885.232 1.469 0 2.542-.512 3.219-1.537s1.015-2.523 1.015-4.495c0-2.107-.329-3.615-.986-4.524-.638-.928-1.556-1.392-2.755-1.392-.928 0-1.692.271-2.291.812-.58.522-.967 1.228-1.16 2.117L99.398 120h-3.103l2.088-11.223-2.262-5.075h3.219l1.305 3.422c.406-1.218 1.025-2.127 1.856-2.726.831-.619 1.779-.928 2.842-.928 1.933 0 3.441.677 4.524 2.03 1.083 1.334 1.624 3.432 1.624 6.293zm3.338-4.698l-.348-3.393h3.074l.377 3.393V120h-3.103v-12.905zm14.999-3.393c1.566 0 2.775.474 3.625 1.421.87.947 1.305 2.378 1.305 4.292V120h-3.103v-10.73c0-2.127-.87-3.19-2.61-3.19h-4.466V120h-3.103V103.702h8.352zm22.804 0c1.546 0 2.755.435 3.625 1.305.87.87 1.305 2.243 1.305 4.118V120h-13.34v-16.298h8.41zm1.827 13.92v-8.642c0-1.025-.223-1.759-.667-2.204-.445-.464-1.093-.696-1.943-.696h-4.524v11.542h7.134zm19.429-13.92c0 3.905-.155 6.844-.464 8.816-.29 1.953-1.015 3.548-2.175 4.785-1.141 1.218-2.987 2.078-5.539 2.581l-5.452 1.073-.435-2.436 4.901-.957-3.567-13.862h3.103l3.248 13.137c1.044-.464 1.798-1.16 2.262-2.088.464-.928.754-2.098.87-3.509.116-1.431.174-3.567.174-6.409v-1.131h3.074zm7.771 14.587c1.121-.116 1.875-.416 2.262-.899.387-.483.58-1.266.58-2.349v-11.339h7.83c1.547 0 2.755.435 3.625 1.305.87.87 1.305 2.243 1.305 4.118V120h-3.103v-11.02c0-1.025-.222-1.759-.667-2.204-.445-.464-1.092-.696-1.943-.696h-3.944v8.613c0 1.914-.445 3.306-1.334 4.176-.889.87-2.33 1.402-4.321 1.595l-.29-2.175zm19.377-11.194l-.348-3.393h3.074l.377 3.393V120h-3.103v-12.905zm17.87-3.393v2.581L213.483 120h-3.103l5.423-13.92h-8.729v-6.873h2.813v4.495h9.019zm12.596 5.278c0-1.025-.222-1.759-.667-2.204-.445-.464-1.092-.696-1.943-.696h-7.134v-2.378h7.917c1.547 0 2.755.435 3.625 1.305.87.87 1.305 2.243 1.305 4.118V120h-3.103v-11.02zm-9.831 3.132l.435-1.943h2.668V120h-3.103v-7.888zm15.852 5.51h4.698v-9.106c0-.831-.165-1.431-.493-1.798-.329-.387-.822-.628-1.479-.725l-1.972-.29.406-2.349 3.016.435c1.16.174 2.049.667 2.668 1.479.638.793.957 1.856.957 3.19V120h-7.801v-2.378zm10.151.667c1.121-.116 1.875-.416 2.262-.899.386-.483.58-1.266.58-2.349v-11.339h7.83c1.546 0 2.755.435 3.625 1.305.87.87 1.305 2.243 1.305 4.118V120h-3.103v-11.02c0-1.025-.223-1.759-.667-2.204-.445-.464-1.093-.696-1.943-.696h-3.944v8.613c0 1.914-.445 3.306-1.334 4.176-.89.87-2.33 1.402-4.321 1.595l-.29-2.175zm28.772-9.309c0-1.025-.222-1.759-.667-2.204-.444-.464-1.092-.696-1.943-.696h-7.134v-2.378h7.917c1.547 0 2.755.435 3.625 1.305.87.87 1.305 2.243 1.305 4.118V120h-3.103v-11.02zm-9.831 3.132l.435-1.943h2.668V120h-3.103v-7.888z" fill="#000"/></g><defs><filter id="filter0_d_367_727" x="0" y="0" width="305" height="418" filterUnits="userSpaceOnUse" color-interpolation-filters="sRGB"><feFlood flood-opacity="0" result="BackgroundImageFix"/><feColorMatrix in="SourceAlpha" values="0 0 0 0 0 0 0 0 0 0 0 0 0 0 0 0 0 0 127 0" result="hardAlpha"/><feOffset dy="4"/><feGaussianBlur stdDeviation="2"/><feComposite in2="hardAlpha" operator="out"/><feColorMatrix values="0 0 0 0 0 0 0 0 0 0 0 0 0 0 0 0 0 0 0.25 0"/><feBlend in2="BackgroundImageFix" result="effect1_dropShadow_367_727"/><feBlend in="SourceGraphic" in2="effect1_dropShadow_367_727" result="shape"/></filter><clipPath id="clip0_367_727"><path fill="#fff" transform="translate(4)" d="M0 0h297v410H0z"/></clipPath></defs></svg>