<svg width="305" height="418" fill="none" xmlns="http://www.w3.org/2000/svg"><g clip-path="url(#clip0_367_799)" filter="url(#filter0_d_367_799)"><path d="M263.198 17.012V32.14c2.118.879 3.955 2.524 5.257 4.707 1.303 2.184 2.007 4.798 2.015 7.482 0 1.694-.278 3.373-.819 4.94-.542 1.565-1.335 2.988-2.336 4.187-1.001 1.199-2.189 2.15-3.497 2.799a9.254 9.254 0 0 1-4.125.982c-2.849-.003-5.581-1.357-7.598-3.767-2.017-2.41-3.154-5.678-3.163-9.09.007-2.683.711-5.297 2.014-7.48 1.303-2.184 3.14-3.829 5.257-4.708V17.012h-23.269V32.14c2.118.879 3.955 2.524 5.257 4.707 1.303 2.184 2.007 4.798 2.015 7.482 0 3.423-1.136 6.707-3.158 9.127-2.022 2.421-4.764 3.781-7.623 3.781-2.85-.001-5.584-1.355-7.602-3.765-2.018-2.41-3.156-5.679-3.165-9.091.008-2.684.712-5.298 2.015-7.481 1.302-2.184 3.139-3.829 5.257-4.708V17.012h-23.269V32.14c2.117.879 3.954 2.524 5.257 4.707 1.303 2.184 2.006 4.798 2.014 7.482 0 3.423-1.136 6.707-3.157 9.127-2.022 2.421-4.764 3.781-7.624 3.781-2.85-.001-5.583-1.355-7.601-3.765s-3.156-5.679-3.165-9.091c.007-2.684.711-5.298 2.014-7.481 1.303-2.184 3.14-3.829 5.257-4.708V17.012h-23.269V32.14c2.118.879 3.955 2.524 5.257 4.707 1.303 2.184 2.007 4.798 2.015 7.482 0 3.423-1.136 6.707-3.158 9.127-2.022 2.421-4.764 3.781-7.623 3.781-2.85-.001-5.584-1.355-7.602-3.765-2.018-2.41-3.156-5.679-3.165-9.091.008-2.684.712-5.298 2.015-7.481 1.302-2.184 3.139-3.829 5.257-4.708V17.012h-23.269V32.14c2.117.879 3.954 2.524 5.257 4.707 1.303 2.184 2.007 4.798 2.014 7.482.003 1.7-.275 3.384-.817 4.955-.543 1.57-1.339 2.998-2.344 4.2-1.004 1.202-2.197 2.154-3.51 2.802a9.254 9.254 0 0 1-4.139.975c-2.848-.011-5.577-1.372-7.589-3.786-2.013-2.414-3.145-5.684-3.148-9.094.008-2.684.711-5.298 2.014-7.481 1.303-2.184 3.14-3.829 5.257-4.708V17.012H111.84V32.14c2.118.879 3.955 2.524 5.258 4.707 1.302 2.184 2.006 4.798 2.014 7.482a15.14 15.14 0 0 1-.819 4.94 13.307 13.307 0 0 1-2.336 4.187c-1 1.199-2.189 2.15-3.496 2.799a9.26 9.26 0 0 1-4.125.982c-2.85-.001-5.584-1.355-7.602-3.765-2.018-2.41-3.156-5.679-3.165-9.091.008-2.684.712-5.298 2.014-7.481 1.303-2.184 3.14-3.829 5.257-4.708V17.012H81.572V32.14c2.117.879 3.954 2.524 5.257 4.707 1.303 2.184 2.006 4.798 2.014 7.482 0 1.694-.277 3.373-.819 4.94-.54 1.565-1.335 2.988-2.335 4.187-1.001 1.199-2.19 2.15-3.497 2.799a9.257 9.257 0 0 1-4.125.982c-2.847-.006-5.577-1.362-7.592-3.77-2.015-2.41-3.151-5.677-3.16-9.086.008-2.684.712-5.298 2.014-7.481 1.303-2.184 3.14-3.829 5.257-4.708V17.012H51.318V32.14c2.117.879 3.954 2.524 5.257 4.707 1.302 2.184 2.006 4.798 2.014 7.482 0 1.694-.277 3.373-.819 4.94-.541 1.565-1.335 2.988-2.335 4.187-1.001 1.199-2.19 2.15-3.497 2.799a9.258 9.258 0 0 1-4.125.982c-2.854.007-5.594-1.344-7.617-3.755-2.023-2.41-3.165-5.684-3.174-9.101.008-2.684.712-5.298 2.014-7.481 1.303-2.184 3.14-3.829 5.258-4.708V17.012H6.482V350.64L4 410l295.221-2.838 1.798-61.439V17.013h-37.821z" fill="#F9F2DE"/><g opacity=".3" stroke="#E8B797" stroke-width="1.86" stroke-miterlimit="10"><path d="M15.356 142.954h272.541M15.356 166.057h272.541M15.356 189.159h272.541M15.356 212.262h272.541M15.356 235.37h272.541M15.356 258.473h272.541M15.356 281.576h272.541M15.356 304.678h272.541M15.356 327.781h272.541M15.356 350.883h272.541M15.356 373.992h272.541M15.356 397.094h272.541"/></g><path d="M301.16 65H6.424v88.226H301.16V65z" fill="#D4F5EF"/><path d="M47.047 90.855h-.257c-8.081 0-14.654-9.484-14.654-21.145V26.758h4.15V69.71c0 8.921 4.711 16.177 10.504 16.177h.257c5.788 0 10.505-7.256 10.505-16.177V17.5c0-6.907-3.612-12.532-8.052-12.532H31.927c-4.363 0-8.018 5.671-8.018 12.497l-4.081.035c0-9.716 5.429-17.5 12.119-17.5h17.558c6.728 0 12.201 7.853 12.201 17.5v52.21c-.005 11.66-6.578 21.145-14.66 21.145z" fill="#231F20"/><path d="M64.47 192v-7.44c0-.92-.2-1.553-.6-1.9-.387-.36-.907-.54-1.56-.54h-4.12v-1.22h4.46c.666 0 1.246.12 1.74.36.506.24.9.633 1.18 1.18.293.547.44 1.273.44 2.18V192h-1.54zm-6.8 0v-1.22h7.82l-.14 1.22h-7.68zm-.4 0v-11.1h1.54V192h-1.54zm13.301 0l3.86-9.88h-6.2v-1.22h7.74v1.3l-3.86 9.8h-1.54zm-2.34-9.88v-4.46h1.4v4.46h-1.4zM78.443 192v-8.76l-.26-2.34h1.52l.28 2.34V192h-1.54zm3.653.58l-.22-1.24 3.56-.68c.786-.147 1.426-.367 1.92-.66.506-.293.893-.68 1.16-1.16.28-.48.48-1.08.6-1.8.133-.72.213-1.587.24-2.6.026-1.013.04-2.193.04-3.54h1.52c0 1.44-.027 2.713-.08 3.82-.054 1.107-.174 2.073-.36 2.9-.187.813-.48 1.5-.88 2.06-.387.56-.92 1.027-1.6 1.4-.667.36-1.514.64-2.54.84l-3.36.66zm3.36-1.8l-2.62-9.88h1.54l2.58 9.88h-1.5zM100.04 192v-7.44c0-.92-.2-1.553-.6-1.9-.4-.36-.926-.54-1.58-.54H93.2v-1.22h5c.667 0 1.254.12 1.76.36.507.24.9.633 1.18 1.18.28.547.42 1.273.42 2.18V192h-1.52zm-6.86 0v-5.4l.22-1.34h1.3V192h-1.52zm16.922 0l3.86-9.88h-6.2v-1.22h7.74v1.3l-3.86 9.8h-1.54zm-2.34-9.88v-4.46h1.4v4.46h-1.4zm11.032 10.08l-1.4-11.3h1.48l1.2 9.96c1.04-.067 1.953-.253 2.74-.56.787-.32 1.447-.76 1.98-1.32.547-.573.953-1.287 1.22-2.14.267-.867.393-1.873.38-3.02l-.02-2.92h1.54l.02 2.86c.013 1.893-.32 3.46-1 4.7-.667 1.24-1.68 2.173-3.04 2.8-1.36.613-3.06.927-5.1.94zm.62-4.32l-.36-1.08c.707-.333 1.267-.687 1.68-1.06.427-.373.733-.847.92-1.42.187-.573.287-1.307.3-2.2l.02-1.18h1.48l-.02 1.16c-.013 1-.153 1.86-.42 2.58a4.43 4.43 0 0 1-1.28 1.84c-.573.507-1.347.96-2.32 1.36zm21.662 4.12v-7.44c0-.92-.2-1.553-.6-1.9-.4-.36-.927-.54-1.58-.54h-4.66v-1.22h5c.666 0 1.253.12 1.76.36.506.24.9.633 1.18 1.18.28.547.42 1.273.42 2.18V192h-1.52zm-6.86 0v-5.4l.22-1.34h1.3V192h-1.52zm10.678 0v-1.22h3.48v-6.66c0-.68-.14-1.167-.42-1.46-.267-.307-.647-.5-1.14-.58l-1.34-.2.22-1.2 1.74.26c.8.12 1.413.447 1.84.98.426.52.64 1.24.64 2.16V192h-5.02zm13.183 0v-7.44c0-.92-.2-1.553-.6-1.9-.387-.36-.907-.54-1.56-.54h-3.6v-1.22h3.94c.667 0 1.253.12 1.76.36.507.24.9.633 1.18 1.18.28.547.42 1.273.42 2.18V192h-1.54zm-5.76 0v-1.22h8.72V192h-8.72zm17.567 0v-7.44c0-.92-.2-1.553-.6-1.9-.4-.36-.926-.54-1.58-.54h-4.66v-1.22h5c.667 0 1.254.12 1.76.36.507.24.9.633 1.18 1.18.28.547.42 1.273.42 2.18V192h-1.52zm-6.86 0v-5.4l.22-1.34h1.3V192h-1.52zm16.102.2l-1.4-11.3h1.48l1.2 9.96c1.04-.067 1.953-.253 2.74-.56.787-.32 1.447-.76 1.98-1.32.547-.573.953-1.287 1.22-2.14.267-.867.393-1.873.38-3.02l-.02-2.92h1.54l.02 2.86c.013 1.893-.32 3.46-1 4.7-.667 1.24-1.68 2.173-3.04 2.8-1.36.613-3.06.927-5.1.94zm.62-4.32l-.36-1.08c.707-.333 1.267-.687 1.68-1.06.427-.373.733-.847.92-1.42.187-.573.287-1.307.3-2.2l.02-1.18h1.48l-.02 1.16c-.013 1-.153 1.86-.42 2.58a4.43 4.43 0 0 1-1.28 1.84c-.573.507-1.347.96-2.32 1.36zm10.498 4.12v-1.22h2.64c.733 0 1.34-.14 1.82-.42.48-.28.84-.693 1.08-1.24.24-.56.36-1.24.36-2.04v-1.26c0-.813-.12-1.493-.36-2.04-.24-.547-.6-.96-1.08-1.24-.48-.28-1.087-.42-1.82-.42h-2.64v-1.22h2.94c.96 0 1.773.187 2.44.56.666.373 1.173.933 1.52 1.68.36.747.54 1.66.54 2.74v1.14c0 1.08-.18 1.993-.54 2.74-.347.747-.854 1.307-1.52 1.68-.667.373-1.48.56-2.44.56h-2.94zm10.074 0v-8.76l-.26-2.34h1.52l.28 2.34V192h-1.54zm9.432 0v-7.44c0-.92-.2-1.553-.6-1.9-.386-.36-.906-.54-1.56-.54h-3.54v-1.22h3.88c.667 0 1.247.12 1.74.36.507.24.9.633 1.18 1.18.294.547.44 1.273.44 2.18V192h-1.54zm13.038 0v-7.54c0-.507.047-.953.14-1.34.093-.4.227-.733.4-1h-5.6v-1.22h8.56v1.22h-1.48c-.2.333-.333.72-.4 1.16-.067.427-.1.82-.1 1.18V192h-1.52zm7.783 0l3.86-9.88h-6.2v-1.22h7.74v1.3l-3.86 9.8h-1.54zm-2.34-9.88v-4.46h1.4v4.46h-1.4zm10.212 5.68V183.24l-.26-2.34h1.52l.28 2.34v2.98l-.02 1.26-1.52.32zm10.972 4.2v-7.44c0-.92-.2-1.553-.6-1.9-.4-.36-.926-.54-1.58-.54h-4.66v-1.22h5c.667 0 1.254.12 1.76.36.507.24.9.633 1.18 1.18.28.547.42 1.273.42 2.18V192h-1.52zm-6.86 0v-5.4l.22-1.34h1.3V192h-1.52zm20.862 4v-11.44c0-.92-.2-1.553-.6-1.9-.4-.36-.92-.54-1.56-.54h-3.88v-1.22h4.2c.667 0 1.254.12 1.76.36.507.24.9.633 1.18 1.18.28.547.42 1.273.42 2.18V196h-1.52zm4.479-8.2V183.24l-.26-2.34h1.52l.28 2.34v2.98l-.02 1.26-1.52.32zm13.413 4.2h-1.68l-4.56-6.82-2.14 6.82h-1.46l2.18-6.88.54-1.32-1.84-2.9h1.58l1.78 2.8 1.88 2.8.46-1.68 1.2-3.92h1.48l-2.24 6.94 2.82 4.16zm-237.17 40l-.16-1.22c.453-.053.88-.147 1.28-.28.413-.147.78-.373 1.1-.68.32-.32.58-.76.78-1.32.212-.573.352-1.3.42-2.18l.34-4.2h-7.2v-1.22h8.84l-.06 1.1-.32 4.02c-.054.987-.214 1.853-.48 2.6-.254.733-.6 1.347-1.04 1.84-.428.493-.94.867-1.54 1.12a5.422 5.422 0 0 1-1.96.42zm-3.4 4v-9.68l.22-1.36h1.32V236h-1.54zm18.176-4v-7.16c0-1.813-.72-2.72-2.16-2.72h-4.94v-1.22h5.28c.693 0 1.293.147 1.8.44.506.28.893.72 1.16 1.32.266.587.4 1.333.4 2.24v7.1h-1.54zm-7.1 0v-10.58h1.54V232h-1.54zm12.39.2l-1.4-11.3h1.48l1.2 9.96c1.04-.067 1.953-.253 2.74-.56.786-.32 1.446-.76 1.98-1.32.546-.573.953-1.287 1.22-2.14.266-.867.393-1.873.38-3.02l-.02-2.92h1.54l.02 2.86c.013 1.893-.32 3.46-1 4.7-.667 1.24-1.68 2.173-3.04 2.8-1.36.613-3.06.927-5.1.94zm.62-4.32l-.36-1.08c.706-.333 1.266-.687 1.68-1.06.426-.373.733-.847.92-1.42.186-.573.286-1.307.3-2.2l.02-1.18h1.48l-.02 1.16c-.014 1-.154 1.86-.42 2.58a4.429 4.429 0 0 1-1.28 1.84c-.574.507-1.347.96-2.32 1.36zm14.437 4.16l.16-1.22c1.106.24 2 .213 2.68-.08.68-.293 1.18-.833 1.5-1.62.32-.787.46-1.807.42-3.06-.014-1.027-.154-1.827-.42-2.4-.254-.587-.594-1-1.02-1.24a2.665 2.665 0 0 0-1.42-.38c-.547 0-1.007.12-1.38.36a2.48 2.48 0 0 0-.88.9c-.2.373-.347.78-.44 1.22l-.46-.84c.24-1.013.673-1.747 1.3-2.2.64-.467 1.333-.7 2.08-.7.573 0 1.1.093 1.58.28.493.187.926.487 1.3.9.373.4.666.94.88 1.62.227.68.347 1.507.36 2.48.04 1.547-.18 2.813-.66 3.8-.48.987-1.194 1.673-2.14 2.06-.947.373-2.093.413-3.44.12zm-3.7-.04l1.48-7.78-1.54-3.32h1.58l1.42 3.38-1.4 7.72h-1.54zm14.17 0l3.86-9.88h-6.2v-1.22h7.74v1.3l-3.86 9.8h-1.54zm-2.34-9.88v-4.46h1.4v4.46h-1.4zm18.775 9.88v-7.54c0-.507.047-.953.14-1.34.093-.4.227-.733.4-1h-5.6v-1.22h8.56v1.22h-1.48c-.2.333-.333.72-.4 1.16-.067.427-.1.82-.1 1.18V232h-1.52zm7.783 0l3.86-9.88h-6.2v-1.22h7.74v1.3l-3.86 9.8h-1.54zm-2.34-9.88v-4.46h1.4v4.46h-1.4zm10.212 5.68V223.24l-.26-2.34h1.52l.28 2.34v2.98l-.02 1.26-1.52.32zm10.972 4.2v-7.44c0-.92-.2-1.553-.6-1.9-.4-.36-.926-.54-1.58-.54h-4.66v-1.22h5c.667 0 1.254.12 1.76.36.507.24.9.633 1.18 1.18.28.547.42 1.273.42 2.18V232h-1.52zm-6.86 0v-5.4l.22-1.34h1.3V232h-1.52zm14.322.28l-.16-1.1c.547-.053.967-.173 1.26-.36.307-.187.52-.447.64-.78.12-.347.18-.767.18-1.26v-7.88h4.9c.667 0 1.247.12 1.74.36.507.24.9.633 1.18 1.18.294.547.44 1.273.44 2.18V232h-1.54v-7.44c0-.92-.2-1.553-.6-1.9-.386-.36-.906-.54-1.56-.54h-3.02v6.5c0 .787-.126 1.44-.38 1.96-.24.507-.613.9-1.12 1.18-.493.267-1.146.44-1.96.52zm14.71-.28l3.86-9.88h-6.2v-1.22h7.74v1.3l-3.86 9.8h-1.54zm-2.34-9.88v-4.46h1.4v4.46h-1.4zm10.211 9.88v-8.76l-.26-2.34h1.52l.28 2.34V232h-1.54zm3.813 0v-1.22h2.64c.733 0 1.34-.14 1.82-.42.48-.28.84-.693 1.08-1.24.24-.56.36-1.24.36-2.04v-1.26c0-.813-.12-1.493-.36-2.04-.24-.547-.6-.96-1.08-1.24-.48-.28-1.087-.42-1.82-.42h-2.64v-1.22h2.94c.96 0 1.773.187 2.44.56.667.373 1.173.933 1.52 1.68.36.747.54 1.66.54 2.74v1.14c0 1.08-.18 1.993-.54 2.74-.347.747-.853 1.307-1.52 1.68s-1.48.56-2.44.56h-2.94zm10.074-4.2V223.24l-.26-2.34h1.52l.28 2.34v2.98l-.02 1.26-1.52.32zm8.477 0V223.24l-.26-2.34h1.52l.28 2.34v2.98l-.02 1.26-1.52.32zm10.972 4.2v-7.44c0-.92-.2-1.553-.6-1.9-.4-.36-.926-.54-1.58-.54h-4.66v-1.22h5c.667 0 1.254.12 1.76.36.507.24.9.633 1.18 1.18.28.547.42 1.273.42 2.18V232h-1.52zm-6.86 0v-5.4l.22-1.34h1.3V232h-1.52zm14.558.04l.16-1.22c1.107.24 2 .213 2.68-.08.68-.293 1.18-.833 1.5-1.62.32-.787.46-1.807.42-3.06-.013-1.027-.153-1.827-.42-2.4-.253-.587-.593-1-1.02-1.24a2.663 2.663 0 0 0-1.42-.38c-.546 0-1.006.12-1.38.36a2.488 2.488 0 0 0-.88.9 4.6 4.6 0 0 0-.44 1.22l-.46-.84c.24-1.013.674-1.747 1.3-2.2.64-.467 1.334-.7 2.08-.7.574 0 1.1.093 1.58.28a3.32 3.32 0 0 1 1.3.9c.374.4.667.94.88 1.62.227.68.347 1.507.36 2.48.04 1.547-.18 2.813-.66 3.8-.48.987-1.193 1.673-2.14 2.06-.946.373-2.093.413-3.44.12zm-3.7-.04l1.48-7.78-1.54-3.32h1.58l1.42 3.38-1.4 7.72h-1.54zm18.174-3.88c-.08-.627-.04-1.187.12-1.68.16-.493.38-.94.66-1.34.293-.4.593-.78.9-1.14.306-.373.566-.747.78-1.12.213-.373.32-.78.32-1.22 0-.373-.074-.713-.22-1.02a1.595 1.595 0 0 0-.68-.74c-.294-.187-.667-.28-1.12-.28-.44 0-.867.107-1.28.32-.4.2-.76.487-1.08.86l-.84-.78c.413-.467.9-.853 1.46-1.16.56-.307 1.193-.46 1.9-.46.666 0 1.246.133 1.74.4.493.253.873.62 1.14 1.1.28.467.42 1.02.42 1.66 0 .52-.114 1-.34 1.44-.214.427-.48.833-.8 1.22-.307.373-.607.76-.9 1.16a5.572 5.572 0 0 0-.72 1.26c-.174.453-.227.96-.16 1.52h-1.3zm.7 4.12c-.294 0-.554-.107-.78-.32-.214-.213-.32-.493-.32-.84 0-.36.106-.647.32-.86.226-.213.486-.32.78-.32.306 0 .566.107.78.32.213.213.32.5.32.86 0 .347-.107.627-.32.84-.214.213-.474.32-.78.32zm6.038-4.44V223.24l-.26-2.34h1.52l.28 2.34v2.98l-.02 1.26-1.52.32zm3.259 4.48l-.16-1.1c.547-.053.967-.173 1.26-.36.307-.187.52-.447.64-.78.12-.347.18-.767.18-1.26v-7.88h4.9c.667 0 1.247.12 1.74.36.507.24.9.633 1.18 1.18.294.547.44 1.273.44 2.18V232h-1.54v-7.44c0-.92-.2-1.553-.6-1.9-.386-.36-.906-.54-1.56-.54h-3.02v6.5c0 .787-.126 1.44-.38 1.96-.24.507-.613.9-1.12 1.18-.493.267-1.146.44-1.96.52zm18.03-.28v-7.44c0-.92-.2-1.553-.6-1.9-.387-.36-.907-.54-1.56-.54h-3.54v-1.22h3.88c.666 0 1.246.12 1.74.36.506.24.9.633 1.18 1.18.293.547.44 1.273.44 2.18V232h-1.54zm9.693 0v-7.44c0-.92-.2-1.553-.6-1.9-.387-.36-.907-.54-1.56-.54h-3.6v-1.22h3.94c.667 0 1.253.12 1.76.36.507.24.9.633 1.18 1.18.28.547.42 1.273.42 2.18V232h-1.54zm-5.76 0v-1.22h8.72V232h-8.72zm17.868 0v-7.16c0-1.813-.72-2.72-2.16-2.72h-4.94v-1.22h5.28c.693 0 1.293.147 1.8.44.506.28.893.72 1.16 1.32.266.587.4 1.333.4 2.24v7.1h-1.54zm-7.1 0v-10.58h1.54V232h-1.54zm18.069 0v-7.44c0-.92-.2-1.553-.6-1.9-.4-.36-.927-.54-1.58-.54h-4.66v-1.22h5c.667 0 1.253.12 1.76.36.507.24.9.633 1.18 1.18.28.547.42 1.273.42 2.18V232h-1.52zm-6.86 0v-5.4l.22-1.34h1.3V232h-1.52zM70.764 272.28l-.16-1.1c.547-.053.967-.173 1.26-.36.307-.187.52-.447.64-.78.12-.347.18-.767.18-1.26v-7.88h4.9c.667 0 1.247.12 1.74.36.507.24.9.633 1.18 1.18.293.547.44 1.273.44 2.18V272h-1.54v-7.44c0-.92-.2-1.553-.6-1.9-.387-.36-.907-.54-1.56-.54h-3.02v6.5c0 .787-.127 1.44-.38 1.96-.24.507-.613.9-1.12 1.18-.493.267-1.147.44-1.96.52zm13.07-.28v-8.76l-.26-2.34h1.52l.28 2.34V272h-1.54zm7.952 0l-.76-4.18v-3.72c0-.627-.08-1.1-.24-1.42-.147-.333-.467-.533-.96-.6l-1.28-.2.22-1.2 1.66.26c.8.12 1.353.427 1.66.92.307.493.46 1.2.46 2.12v3.86l.72 4.16h-1.48zm-3.96.28l-.56-1.24c.92-.333 1.693-.773 2.32-1.32.64-.56 1.16-1.293 1.56-2.2l.5.98a7.092 7.092 0 0 1-.92 1.7c-.36.48-.78.893-1.26 1.24a7.32 7.32 0 0 1-1.64.84zm14.422-.28v-7.44c0-.92-.2-1.553-.6-1.9-.4-.36-.927-.54-1.581-.54h-4.66v-1.22h5.001c.666 0 1.253.12 1.76.36.506.24.9.633 1.18 1.18.28.547.42 1.273.42 2.18V272h-1.52zm-6.86 0v-5.4l.22-1.34h1.3V272h-1.52zm10.677 0v-1.22h3.48v-6.66c0-.68-.14-1.167-.42-1.46-.266-.307-.646-.5-1.14-.58l-1.34-.2.22-1.2 1.74.26c.8.12 1.414.447 1.84.98.427.52.64 1.24.64 2.16V272h-5.02zm7.004.28l-.16-1.1c.546-.053.966-.173 1.26-.36a1.48 1.48 0 0 0 .64-.78c.12-.347.18-.767.18-1.26v-7.88h4.9c.666 0 1.246.12 1.74.36.506.24.9.633 1.18 1.18.293.547.44 1.273.44 2.18V272h-1.54v-7.44c0-.92-.2-1.553-.6-1.9-.387-.36-.907-.54-1.56-.54h-3.02v6.5c0 .787-.127 1.44-.38 1.96-.24.507-.614.9-1.12 1.18-.494.267-1.147.44-1.96.52zm19.569-.28v-7.44c0-.92-.2-1.553-.6-1.9-.4-.36-.927-.54-1.58-.54h-4.66v-1.22h5c.667 0 1.253.12 1.76.36.507.24.9.633 1.18 1.18.28.547.42 1.273.42 2.18V272h-1.52zm-6.86 0v-5.4l.22-1.34h1.3V272h-1.52zm16.922 0l3.86-9.88h-6.2v-1.22h7.74v1.3l-3.86 9.8h-1.54zm-2.34-9.88v-4.46h1.4v4.46h-1.4zm9.392 10.46l-.22-1.24 3.56-.68c.786-.147 1.426-.367 1.92-.66.506-.293.893-.68 1.16-1.16.28-.48.48-1.08.6-1.8.133-.72.213-1.587.24-2.6.026-1.013.04-2.193.04-3.54h1.52c0 1.44-.027 2.713-.08 3.82-.054 1.107-.174 2.073-.36 2.9-.187.813-.48 1.5-.88 2.06-.387.56-.92 1.027-1.6 1.4-.667.36-1.514.64-2.54.84l-3.36.66zm3.36-1.8l-2.62-9.88h1.54l2.58 9.88h-1.5zm13.729 1.22l3.86-9.88h-6.2v-1.22h7.74v1.3l-3.86 9.8h-1.54zm-2.34-9.88v-4.46h1.4v4.46h-1.4zm9.551 9.88v-1.22h2.64c.734 0 1.34-.14 1.82-.42.48-.28.84-.693 1.08-1.24.24-.56.36-1.24.36-2.04v-1.26c0-.813-.12-1.493-.36-2.04-.24-.547-.6-.96-1.08-1.24-.48-.28-1.086-.42-1.82-.42h-2.64v-1.22h2.94c.96 0 1.774.187 2.44.56.667.373 1.174.933 1.52 1.68.36.747.54 1.66.54 2.74v1.14c0 1.08-.18 1.993-.54 2.74-.346.747-.853 1.307-1.52 1.68-.666.373-1.48.56-2.44.56h-2.94zm9.114.28l-.16-1.1c.547-.053.967-.173 1.26-.36.307-.187.52-.447.64-.78.12-.347.18-.767.18-1.26v-7.88h4.9c.667 0 1.247.12 1.74.36.507.24.9.633 1.18 1.18.294.547.44 1.273.44 2.18V272h-1.54v-7.44c0-.92-.2-1.553-.6-1.9-.386-.36-.906-.54-1.56-.54h-3.02v6.5c0 .787-.126 1.44-.38 1.96-.24.507-.613.9-1.12 1.18-.493.267-1.146.44-1.96.52zm13.85-.08l-1.22-10.08 1.44-.8 1.14 9.46a11.81 11.81 0 0 0 1.58-.26c.506-.133.973-.32 1.4-.56.44-.253.82-.573 1.14-.96.32-.387.56-.86.72-1.42.16-.573.22-1.253.18-2.04v-.48c0-.56-.094-1.06-.28-1.5a2.243 2.243 0 0 0-.8-1.04c-.36-.267-.807-.4-1.34-.4h-5.18l-.14-1.22h5.46c1.2 0 2.12.373 2.76 1.12.653.747 1 1.733 1.04 2.96l.02.6c.04 1.213-.14 2.24-.54 3.08a5.068 5.068 0 0 1-1.7 2c-.734.493-1.587.86-2.56 1.1-.974.24-2.014.387-3.12.44zm9.323-.2v-1.22h3.48v-6.66c0-.68-.14-1.167-.42-1.46-.267-.307-.647-.5-1.14-.58l-1.34-.2.22-1.2 1.74.26c.8.12 1.413.447 1.84.98.427.52.64 1.24.64 2.16V272h-5.02zm13.607-3.88c-.08-.627-.04-1.187.12-1.68.16-.493.38-.94.66-1.34.293-.4.593-.78.9-1.14.307-.373.567-.747.78-1.12.213-.373.32-.78.32-1.22 0-.373-.073-.713-.22-1.02a1.59 1.59 0 0 0-.68-.74c-.293-.187-.667-.28-1.12-.28-.44 0-.867.107-1.28.32-.4.2-.76.487-1.08.86l-.84-.78c.413-.467.9-.853 1.46-1.16.56-.307 1.193-.46 1.9-.46.667 0 1.247.133 1.74.4.493.253.873.62 1.14 1.1.28.467.42 1.02.42 1.66 0 .52-.113 1-.34 1.44-.213.427-.48.833-.8 1.22-.307.373-.607.76-.9 1.16a5.65 5.65 0 0 0-.72 1.26c-.173.453-.227.96-.16 1.52h-1.3zm.7 4.12c-.293 0-.553-.107-.78-.32-.213-.213-.32-.493-.32-.84 0-.36.107-.647.32-.86.227-.213.487-.32.78-.32.307 0 .567.107.78.32.213.213.32.5.32.86 0 .347-.107.627-.32.84-.213.213-.473.32-.78.32zm6.039-4.44V263.24l-.26-2.34h1.52l.28 2.34v2.98l-.02 1.26-1.52.32zm6.113 4.2l3.86-9.88h-6.2v-1.22h7.74v1.3l-3.86 9.8h-1.54zm-2.34-9.88v-4.46h1.4v4.46h-1.4zm10.211 9.88v-8.76l-.26-2.34h1.52l.28 2.34V272h-1.54zm9.693 0v-7.44c0-.92-.2-1.553-.6-1.9-.387-.36-.907-.54-1.56-.54h-3.6v-1.22h3.94c.667 0 1.253.12 1.76.36.507.24.9.633 1.18 1.18.28.547.42 1.273.42 2.18V272h-1.54zm-5.76 0v-1.22h8.72V272h-8.72zm14.347.04l.16-1.22c1.107.24 2 .213 2.68-.08.68-.293 1.18-.833 1.5-1.62.32-.787.46-1.807.42-3.06-.013-1.027-.153-1.827-.42-2.4-.253-.587-.593-1-1.02-1.24a2.663 2.663 0 0 0-1.42-.38c-.546 0-1.006.12-1.38.36a2.488 2.488 0 0 0-.88.9 4.6 4.6 0 0 0-.44 1.22l-.46-.84c.24-1.013.674-1.747 1.3-2.2.64-.467 1.334-.7 2.08-.7.574 0 1.1.093 1.58.28a3.32 3.32 0 0 1 1.3.9c.374.4.667.94.88 1.62.227.68.347 1.507.36 2.48.04 1.547-.18 2.813-.66 3.8-.48.987-1.193 1.673-2.14 2.06-.946.373-2.093.413-3.44.12zm-3.7-.04l1.48-7.78-1.54-3.32h1.58l1.42 3.38-1.4 7.72h-1.54zm12.53-4.2V263.24l-.26-2.34h1.52l.28 2.34v2.98l-.02 1.26-1.52.32zm5.252 4.4l-1.22-10.08 1.44-.8 1.14 9.46c.547-.053 1.074-.14 1.58-.26.507-.133.974-.32 1.4-.56.44-.253.82-.573 1.14-.96.32-.387.56-.86.72-1.42.16-.573.22-1.253.18-2.04v-.48c0-.56-.093-1.06-.28-1.5a2.237 2.237 0 0 0-.8-1.04c-.36-.267-.806-.4-1.34-.4h-5.18l-.14-1.22h5.46c1.2 0 2.12.373 2.76 1.12.654.747 1 1.733 1.04 2.96l.02.6c.04 1.213-.14 2.24-.54 3.08a5.06 5.06 0 0 1-1.7 2c-.733.493-1.586.86-2.56 1.1a16.26 16.26 0 0 1-3.12.44zm-120.037 40.04c-.293 0-.553-.107-.78-.32-.213-.213-.32-.493-.32-.84 0-.36.107-.647.32-.86.227-.213.487-.32.78-.32.307 0 .567.107.78.32.214.213.32.5.32.86 0 .347-.106.627-.32.84-.213.213-.473.32-.78.32zm10.484-.24v-7.44c0-.92-.2-1.553-.6-1.9-.4-.36-.927-.54-1.58-.54h-4.66v-1.22h5c.667 0 1.253.12 1.76.36.507.24.9.633 1.18 1.18.28.547.42 1.273.42 2.18V312h-1.52zm-6.86 0v-5.4l.22-1.34h1.3V312h-1.52zm12.258 0v-7.54c0-.507.047-.953.14-1.34.107-.4.247-.733.42-1h-2v-1.22h5.02v1.22h-1.58a2.9 2.9 0 0 0-.38 1.16c-.053.427-.08.82-.08 1.18V312h-1.54zm13.047 0v-7.16c0-1.813-.72-2.72-2.16-2.72h-4.94v-1.22h5.28c.693 0 1.293.147 1.8.44.506.28.893.72 1.16 1.32.266.587.4 1.333.4 2.24v7.1h-1.54zm-7.1 0v-10.58h1.54V312h-1.54zm14.849.04l.16-1.22c1.107.24 2 .213 2.68-.08.68-.293 1.18-.833 1.5-1.62.32-.787.46-1.807.42-3.06-.013-1.027-.153-1.827-.42-2.4-.253-.587-.593-1-1.02-1.24a2.665 2.665 0 0 0-1.42-.38c-.547 0-1.007.12-1.38.36a2.48 2.48 0 0 0-.88.9c-.2.373-.347.78-.44 1.22l-.46-.84c.24-1.013.673-1.747 1.3-2.2.64-.467 1.333-.7 2.08-.7.573 0 1.1.093 1.58.28.493.187.927.487 1.3.9.373.4.667.94.88 1.62.227.68.347 1.507.36 2.48.04 1.547-.18 2.813-.66 3.8-.48.987-1.193 1.673-2.14 2.06-.947.373-2.093.413-3.44.12zm-3.7-.04l1.48-7.78-1.54-3.32h1.58l1.42 3.38-1.4 7.72h-1.54zm19.029 0v-7.44c0-.92-.2-1.553-.6-1.9-.4-.36-.926-.54-1.58-.54h-4.66v-1.22h5c.667 0 1.254.12 1.76.36.507.24.9.633 1.18 1.18.28.547.42 1.273.42 2.18V312h-1.52zm-6.86 0v-5.4l.22-1.34h1.3V312h-1.52zm11.278 0v-8.76l-.26-2.34h1.52l.28 2.34V312h-1.54zm8.477-4.2V303.24l-.26-2.34h1.52l.28 2.34v2.98l-.02 1.26-1.52.32zm4.473 4.2v-8.76l-.26-2.34h1.52l.28 2.34V312h-1.54zm7.472 0l-.16-1.22c.454-.053.88-.147 1.28-.28a3.04 3.04 0 0 0 1.1-.68c.32-.32.58-.76.78-1.32.214-.573.354-1.3.42-2.18l.34-4.2h-7.2v-1.22h8.84l-.06 1.1-.32 4.02c-.053.987-.213 1.853-.48 2.6-.253.733-.6 1.347-1.04 1.84-.426.493-.94.867-1.54 1.12a5.42 5.42 0 0 1-1.96.42zm-3.4 4v-9.68l.22-1.36h1.32V316h-1.54zm11.377-8.2V303.24l-.26-2.34h1.52l.28 2.34v2.98l-.02 1.26-1.52.32zm11.272 4.2v-7.16c0-1.813-.72-2.72-2.16-2.72h-4.94v-1.22h5.28c.694 0 1.294.147 1.8.44.507.28.894.72 1.16 1.32.267.587.4 1.333.4 2.24v7.1h-1.54zm-7.1 0v-10.58h1.54V312h-1.54zm15.574 0v-8.76l-.26-2.34h1.52l.28 2.34V312h-1.54zm7.753.04l.16-1.22c1.106.24 2 .213 2.68-.08.68-.293 1.18-.833 1.5-1.62.32-.787.46-1.807.42-3.06-.014-1.027-.154-1.827-.42-2.4-.254-.587-.594-1-1.02-1.24a2.668 2.668 0 0 0-1.42-.38c-.547 0-1.007.12-1.38.36a2.472 2.472 0 0 0-.88.9c-.2.373-.347.78-.44 1.22l-.46-.84c.24-1.013.673-1.747 1.3-2.2.64-.467 1.333-.7 2.08-.7.573 0 1.1.093 1.58.28.493.187.926.487 1.3.9.373.4.666.94.88 1.62.226.68.346 1.507.36 2.48.04 1.547-.18 2.813-.66 3.8-.48.987-1.194 1.673-2.14 2.06-.947.373-2.094.413-3.44.12zm-3.7-.04l1.48-7.78-1.54-3.32h1.58l1.42 3.38-1.4 7.72h-1.54zm11.869 0v-1.22h2.64c.733 0 1.34-.14 1.82-.42.48-.28.84-.693 1.08-1.24.24-.56.36-1.24.36-2.04v-1.26c0-.813-.12-1.493-.36-2.04-.24-.547-.6-.96-1.08-1.24-.48-.28-1.087-.42-1.82-.42h-2.64v-1.22h2.94c.96 0 1.773.187 2.44.56.667.373 1.173.933 1.52 1.68.36.747.54 1.66.54 2.74v1.14c0 1.08-.18 1.993-.54 2.74-.347.747-.853 1.307-1.52 1.68s-1.48.56-2.44.56h-2.94zM117.279 80.41h2.03l-7.192 25.23h-2.03l7.192-25.23zm4.573 7.685l-.348-3.393h3.074l.377 3.393v4.408l-.029 1.827-3.074.58v-6.815zm17.871-3.393v2.581L134.3 101h-3.103l5.423-13.92h-8.729v-6.873h2.813v4.495h9.019zm3.199 3.393l-.348-3.393h3.074l.377 3.393V101h-3.103V88.095zm19.408 10.527V101h-13.166v-2.378h8.062V89.98c0-1.025-.222-1.76-.667-2.204-.445-.464-1.092-.696-1.943-.696h-5.452v-2.378h6.235c1.547 0 2.755.435 3.625 1.305.87.87 1.305 2.243 1.305 4.118v8.497h2.001zm17.724-5.829c0 2.707-.599 4.814-1.798 6.322-1.198 1.489-2.9 2.233-5.104 2.233-.812 0-1.643-.097-2.494-.29l.319-2.378c.735.155 1.363.232 1.885.232 1.47 0 2.543-.512 3.219-1.537.677-1.025 1.015-2.523 1.015-4.495 0-2.107-.328-3.615-.986-4.524-.638-.928-1.556-1.392-2.755-1.392-.928 0-1.691.27-2.291.812-.58.522-.966 1.228-1.16 2.117L167.961 101h-3.103l2.088-11.223-2.262-5.075h3.219l1.305 3.422c.406-1.218 1.025-2.127 1.856-2.726a4.639 4.639 0 0 1 2.842-.928c1.934 0 3.442.677 4.524 2.03 1.083 1.334 1.624 3.432 1.624 6.293zm3.338-4.698l-.348-3.393h3.074l.377 3.393v4.408l-.029 1.827-3.074.58v-6.815zm20.394 3.48c.116 3.345-.909 5.771-3.074 7.279-2.165 1.489-5.201 2.301-9.106 2.436l-1.682-14.21-.29-2.378h8.352c1.798 0 3.19.532 4.176 1.595 1.005 1.063 1.537 2.513 1.595 4.35l.029.928zm-9.454 6.902c2.165-.193 3.789-.812 4.872-1.856 1.083-1.063 1.585-2.765 1.508-5.104v-.783c0-1.083-.261-1.962-.783-2.639-.522-.677-1.247-1.015-2.175-1.015h-4.727l1.305 11.397zm23.409.145c.947-.097 1.74-.319 2.378-.667.657-.367 1.179-.967 1.566-1.798.406-.85.657-2.01.754-3.48l.435-5.597h-10.266v-2.378h13.601l-.116 2.088-.406 5.162c-.136 2.842-.841 5.046-2.117 6.612-1.276 1.566-3.123 2.388-5.539 2.465l-.29-2.407zm-5.191-5.8l.435-1.972h2.668v15.95h-3.103V92.822zm25.009-8.12c1.566 0 2.774.474 3.625 1.421.87.947 1.305 2.378 1.305 4.292V101h-3.103V90.27c0-2.127-.87-3.19-2.61-3.19h-4.466V101h-3.103V84.702h8.352zm24.218 4.466c.039 4.08-1.102 7.134-3.422 9.164-2.32 2.011-5.877 2.997-10.672 2.958l-2.117-16.588h2.958l.928 7.714c1.064-.522 1.789-1.208 2.175-2.059.387-.85.6-2.127.638-3.828v-1.798h2.958l-.029 1.74c-.038 2.127-.464 3.838-1.276 5.133-.812 1.276-2.204 2.31-4.176 3.103l.464 3.944c2.92-.193 5.066-1.063 6.438-2.61 1.392-1.547 2.079-3.79 2.059-6.728l-.058-4.611h3.103l.029 4.466zm18.106 3.625c0 2.707-.599 4.814-1.798 6.322-1.198 1.489-2.9 2.233-5.104 2.233-.812 0-1.643-.097-2.494-.29l.319-2.378c.735.155 1.363.232 1.885.232 1.47 0 2.543-.512 3.219-1.537.677-1.025 1.015-2.523 1.015-4.495 0-2.107-.328-3.615-.986-4.524-.638-.928-1.556-1.392-2.755-1.392-.928 0-1.691.27-2.291.812-.58.522-.966 1.228-1.16 2.117L267.79 101h-3.103l2.088-11.223-2.262-5.075h3.219l1.305 3.422c.406-1.218 1.025-2.127 1.856-2.726a4.639 4.639 0 0 1 2.842-.928c1.934 0 3.442.677 4.524 2.03 1.083 1.334 1.624 3.432 1.624 6.293zm-128.582 28.909c1.546 0 2.755.435 3.625 1.305.87.87 1.305 2.243 1.305 4.118V138h-13.34v-16.298h8.41zm1.827 13.92v-8.642c0-1.025-.223-1.759-.667-2.204-.445-.464-1.093-.696-1.943-.696h-4.524v11.542h7.134zm6.871-10.527l-.348-3.393h3.074l.377 3.393v4.408l-.029 1.827-3.074.58v-6.815zm6.213 10.527h4.698v-9.106c0-.831-.164-1.431-.493-1.798-.328-.387-.821-.628-1.479-.725l-1.972-.29.406-2.349 3.016.435c1.16.174 2.05.667 2.668 1.479.638.793.957 1.856.957 3.19V138h-7.801v-2.378zm11.485 0h5.249c1.334 0 2.388-.396 3.161-1.189.773-.793 1.16-2.001 1.16-3.625v-1.943c0-1.527-.309-2.707-.928-3.538s-1.547-1.247-2.784-1.247h-2.61l-.638 2.871a5.455 5.455 0 0 0-.145 1.131c0 .58.164 1.034.493 1.363.329.309.87.541 1.624.696l-.551 2.001c-1.508-.097-2.61-.474-3.306-1.131-.677-.677-1.015-1.605-1.015-2.784 0-.561.048-1.073.145-1.537l1.131-4.988h5.539c1.933 0 3.441.638 4.524 1.914 1.083 1.276 1.624 3.064 1.624 5.365v1.682c0 2.417-.619 4.244-1.856 5.481s-2.881 1.856-4.93 1.856h-5.887v-2.378zm20.359.667c1.122-.116 1.876-.416 2.262-.899.387-.483.58-1.266.58-2.349v-11.339h7.83c1.547 0 2.755.435 3.625 1.305.87.87 1.305 2.243 1.305 4.118V138h-3.103v-11.02c0-1.025-.222-1.759-.667-2.204-.444-.464-1.092-.696-1.943-.696h-3.944v8.613c0 1.914-.444 3.306-1.334 4.176-.889.87-2.329 1.402-4.321 1.595l-.29-2.175zm25.67-8.816c0-1.508.271-2.639.812-3.393h-7.83v-2.378h12.934v2.378h-2.175c-.425.812-.638 1.943-.638 3.393V138h-3.103v-10.527zm24.014 2.32c0 2.707-.599 4.814-1.798 6.322-1.199 1.489-2.9 2.233-5.104 2.233-.812 0-1.643-.097-2.494-.29l.319-2.378c.735.155 1.363.232 1.885.232 1.469 0 2.542-.512 3.219-1.537s1.015-2.523 1.015-4.495c0-2.107-.329-3.615-.986-4.524-.638-.928-1.556-1.392-2.755-1.392-.928 0-1.692.271-2.291.812-.58.522-.967 1.228-1.16 2.117L235.647 138h-3.103l2.088-11.223-2.262-5.075h3.219l1.305 3.422c.406-1.218 1.025-2.127 1.856-2.726.831-.619 1.779-.928 2.842-.928 1.933 0 3.441.677 4.524 2.03 1.083 1.334 1.624 3.432 1.624 6.293zm15.895-8.091c0 3.905-.155 6.844-.464 8.816-.29 1.953-1.015 3.548-2.175 4.785-1.141 1.218-2.987 2.078-5.539 2.581l-5.452 1.073-.435-2.436 4.901-.957-3.567-13.862h3.103l3.248 13.137c1.044-.464 1.798-1.16 2.262-2.088.464-.928.754-2.098.87-3.509.116-1.431.174-3.567.174-6.409v-1.131h3.074zm12.811 5.278c0-1.025-.222-1.759-.667-2.204-.444-.464-1.092-.696-1.943-.696h-7.134v-2.378h7.917c1.547 0 2.755.435 3.625 1.305.87.87 1.305 2.243 1.305 4.118V138h-3.103v-11.02zm-9.831 3.132l.435-1.943h2.668V138h-3.103v-7.888z" fill="#000"/></g><defs><filter id="filter0_d_367_799" x="0" y="0" width="305" height="418" filterUnits="userSpaceOnUse" color-interpolation-filters="sRGB"><feFlood flood-opacity="0" result="BackgroundImageFix"/><feColorMatrix in="SourceAlpha" values="0 0 0 0 0 0 0 0 0 0 0 0 0 0 0 0 0 0 127 0" result="hardAlpha"/><feOffset dy="4"/><feGaussianBlur stdDeviation="2"/><feComposite in2="hardAlpha" operator="out"/><feColorMatrix values="0 0 0 0 0 0 0 0 0 0 0 0 0 0 0 0 0 0 0.25 0"/><feBlend in2="BackgroundImageFix" result="effect1_dropShadow_367_799"/><feBlend in="SourceGraphic" in2="effect1_dropShadow_367_799" result="shape"/></filter><clipPath id="clip0_367_799"><path fill="#fff" transform="translate(4)" d="M0 0h297v410H0z"/></clipPath></defs></svg>