<svg width="305" height="418" fill="none" xmlns="http://www.w3.org/2000/svg"><g clip-path="url(#clip0_367_782)" filter="url(#filter0_d_367_782)"><path d="M263.198 17v15.126c2.118.88 3.955 2.524 5.257 4.708 1.303 2.184 2.007 4.798 2.015 7.481 0 1.695-.278 3.374-.819 4.94-.542 1.566-1.335 2.989-2.336 4.188-1.001 1.199-2.189 2.15-3.497 2.798a9.254 9.254 0 0 1-4.125.983c-2.849-.003-5.581-1.358-7.598-3.767-2.017-2.41-3.154-5.678-3.163-9.09.007-2.683.711-5.297 2.014-7.48 1.303-2.184 3.14-3.83 5.257-4.709V17h-23.269v15.126c2.118.88 3.955 2.524 5.257 4.708 1.303 2.184 2.007 4.798 2.015 7.481 0 3.424-1.136 6.707-3.158 9.128-2.022 2.42-4.764 3.781-7.623 3.781-2.85-.002-5.584-1.355-7.602-3.765-2.018-2.41-3.156-5.68-3.165-9.092.008-2.683.712-5.297 2.015-7.48 1.302-2.184 3.139-3.83 5.257-4.709V17h-23.269v15.126c2.117.88 3.954 2.524 5.257 4.708 1.303 2.184 2.006 4.798 2.014 7.481 0 3.424-1.136 6.707-3.157 9.128-2.022 2.42-4.764 3.781-7.624 3.781-2.85-.002-5.583-1.355-7.601-3.765s-3.156-5.68-3.165-9.092c.007-2.683.711-5.297 2.014-7.48 1.303-2.184 3.14-3.83 5.257-4.709V17h-23.269v15.126c2.118.88 3.955 2.524 5.257 4.708 1.303 2.184 2.007 4.798 2.015 7.481 0 3.424-1.136 6.707-3.158 9.128-2.022 2.42-4.764 3.781-7.623 3.781-2.85-.002-5.584-1.355-7.602-3.765-2.018-2.41-3.156-5.68-3.165-9.092.008-2.683.712-5.297 2.015-7.48 1.302-2.184 3.139-3.83 5.257-4.709V17h-23.269v15.126c2.117.88 3.954 2.524 5.257 4.708 1.303 2.184 2.007 4.798 2.014 7.481.003 1.7-.275 3.384-.817 4.955-.543 1.572-1.339 2.999-2.344 4.2-1.004 1.202-2.197 2.154-3.51 2.802a9.254 9.254 0 0 1-4.139.975c-2.848-.01-5.577-1.372-7.589-3.785-2.013-2.414-3.145-5.684-3.148-9.095.008-2.683.711-5.297 2.014-7.48 1.303-2.184 3.14-3.83 5.257-4.709V17H111.84v15.126c2.118.88 3.955 2.524 5.258 4.708 1.302 2.184 2.006 4.798 2.014 7.481a15.14 15.14 0 0 1-.819 4.94 13.307 13.307 0 0 1-2.336 4.188c-1 1.199-2.189 2.15-3.496 2.798a9.26 9.26 0 0 1-4.125.983c-2.85-.002-5.584-1.355-7.602-3.765-2.018-2.41-3.156-5.68-3.165-9.092.008-2.683.712-5.297 2.014-7.48 1.303-2.184 3.14-3.83 5.257-4.709V17H81.572v15.126c2.117.88 3.954 2.524 5.257 4.708 1.303 2.184 2.006 4.798 2.014 7.481 0 1.695-.277 3.374-.819 4.94-.54 1.566-1.335 2.989-2.335 4.188-1.001 1.199-2.19 2.15-3.497 2.798a9.257 9.257 0 0 1-4.125.983c-2.847-.006-5.577-1.362-7.592-3.771-2.015-2.41-3.151-5.676-3.16-9.086.008-2.683.712-5.297 2.014-7.48 1.303-2.184 3.14-3.83 5.257-4.709V17H51.318v15.126c2.117.88 3.954 2.524 5.257 4.708 1.302 2.184 2.006 4.798 2.014 7.481 0 1.695-.277 3.374-.819 4.94-.541 1.566-1.335 2.989-2.335 4.188-1.001 1.199-2.19 2.15-3.497 2.798a9.258 9.258 0 0 1-4.125.983c-2.854.006-5.594-1.344-7.617-3.755-2.023-2.41-3.165-5.684-3.174-9.102.008-2.683.712-5.297 2.014-7.48 1.303-2.184 3.14-3.83 5.258-4.709V17H6.482v333.627L4 409.988l295.221-2.839 1.798-61.439V17h-37.821z" fill="#CED3EE"/><g opacity=".3" stroke="#E8B797" stroke-width="1.86" stroke-miterlimit="10"><path d="M15.356 142.954h272.541M15.356 166.057h272.541M15.356 189.159h272.541M15.356 212.262h272.541M15.356 235.37h272.541M15.356 258.473h272.541M15.356 281.576h272.541M15.356 304.678h272.541M15.356 327.781h272.541M15.356 350.883h272.541M15.356 373.992h272.541M15.356 397.094h272.541"/></g><path d="M47.047 90.855h-.257c-8.08 0-14.654-9.484-14.654-21.145V26.758h4.15V69.71c0 8.921 4.711 16.177 10.504 16.177h.257c5.788 0 10.505-7.256 10.505-16.177V17.5c0-6.907-3.612-12.532-8.052-12.532H31.927c-4.363 0-8.018 5.671-8.018 12.497l-4.081.035c0-9.716 5.429-17.5 12.119-17.5h17.558c6.728 0 12.201 7.853 12.201 17.5v52.21c-.005 11.66-6.578 21.145-14.659 21.145z" fill="#231F20"/><path d="M80.069 214.645l-.43-3.182c1.147-.115 2.02-.358 2.623-.731a2.892 2.892 0 0 0 1.247-1.548c.23-.659.344-1.505.344-2.537v-16.813h11.61c1.433 0 2.695.272 3.784.817 1.118.516 1.978 1.362 2.58 2.537.63 1.175.946 2.738.946 4.687V214h-4.601v-16.34c0-1.605-.344-2.723-1.032-3.354-.688-.631-1.634-.946-2.838-.946h-5.848v12.771c0 1.892-.301 3.44-.903 4.644-.573 1.204-1.477 2.107-2.71 2.709-1.232.602-2.823.989-4.772 1.161zM108.37 214v-19.135l-.516-5.031h4.558l.559 5.031V214h-4.601zm13.856 0l8.041-20.64h-12.943v-3.526h17.544v3.827L126.827 214h-4.601zm-4.902-20.64v-10.191h4.171v10.191h-4.171zm36.22 20.64v-16.34c0-1.605-.358-2.723-1.075-3.354-.688-.631-1.62-.946-2.795-.946h-10.578v-3.526h11.739c1.433 0 2.695.272 3.784.817 1.089.516 1.949 1.362 2.58 2.537.631 1.175.946 2.738.946 4.687V214h-4.601zm-14.577 0v-11.696l.645-2.881h3.956V214h-4.601zm23.505 0v-3.526h6.966v-13.502c0-1.29-.258-2.207-.774-2.752-.516-.545-1.233-.874-2.15-.989l-2.924-.43.602-3.483 4.472.645c1.72.229 3.038.946 3.956 2.15.946 1.204 1.419 2.795 1.419 4.773V214h-11.567zm15.481.645l-.43-3.182c1.146-.115 2.021-.358 2.623-.731a2.896 2.896 0 0 0 1.247-1.548c.229-.659.344-1.505.344-2.537v-16.813h11.61c1.433 0 2.694.272 3.784.817 1.118.516 1.978 1.362 2.58 2.537.63 1.175.946 2.738.946 4.687V214h-4.601v-16.34c0-1.605-.344-2.723-1.032-3.354-.688-.631-1.634-.946-2.838-.946h-5.848v12.771c0 1.892-.301 3.44-.903 4.644-.574 1.204-1.477 2.107-2.709 2.709-1.233.602-2.824.989-4.773 1.161zm42.233-.645v-16.34c0-1.605-.359-2.723-1.075-3.354-.688-.631-1.62-.946-2.795-.946h-10.578v-3.526h11.739c1.433 0 2.694.272 3.784.817 1.089.516 1.949 1.362 2.58 2.537.63 1.175.946 2.738.946 4.687V214h-4.601zm-14.577 0v-11.696l.645-2.881h3.956V214h-4.601zM83.231 274v-16.34c0-1.605-.344-2.723-1.032-3.354-.688-.631-1.634-.946-2.838-.946h-8.428v-3.526h9.59c1.433 0 2.694.272 3.783.817 1.118.516 1.978 1.362 2.58 2.537.631 1.175.946 2.738.946 4.687V274h-4.6zm-14.104 0v-3.526h17.114L86.026 274H69.127zm-1.075 0v-24.166h4.601V274h-4.6zm25.369-9.03v-10.105l-.516-5.031h4.558l.559 5.031v6.536l-.043 2.709-4.558.86zm20.65 9.03v-16.34c0-1.605-.344-2.723-1.032-3.354-.688-.631-1.634-.946-2.838-.946h-7.955v-3.526h9.116c1.433 0 2.694.272 3.784.817 1.118.516 1.978 1.362 2.58 2.537.63 1.175.946 2.738.946 4.687V274h-4.601zm18.166.043l.473-3.483c2.265.487 4.056.444 5.375-.129 1.347-.573 2.308-1.634 2.881-3.182.602-1.548.874-3.512.817-5.891-.029-2.035-.287-3.641-.774-4.816-.459-1.204-1.104-2.064-1.935-2.58-.803-.516-1.749-.774-2.838-.774-1.003 0-1.863.215-2.58.645-.717.401-1.29.96-1.72 1.677a7.354 7.354 0 0 0-.903 2.408l-1.161-2.193c.516-2.179 1.448-3.755 2.795-4.73 1.347-1.003 2.809-1.505 4.386-1.505 1.347 0 2.566.229 3.655.688 1.118.43 2.078 1.132 2.881 2.107.803.946 1.419 2.179 1.849 3.698.459 1.491.702 3.282.731 5.375.057 3.239-.459 5.92-1.548 8.041-1.061 2.121-2.637 3.598-4.73 4.429-2.093.831-4.644.903-7.654.215zm-8.6-.043l3.096-16.641-3.354-7.525h4.773l2.967 7.697L128.238 274h-4.601zm27.481 0v-19.135l-.516-5.031h4.558l.559 5.031V274h-4.601zm24.95 0v-15.91c0-3.153-1.29-4.73-3.87-4.73h-11.223v-3.526h12.384c1.491 0 2.781.301 3.87.903 1.089.602 1.935 1.534 2.537 2.795.602 1.233.903 2.824.903 4.773V274h-4.601zm-15.093 0v-22.317h4.601V274h-4.601zm48.905 0v-16.34c0-1.605-.344-2.723-1.032-3.354-.688-.631-1.634-.946-2.838-.946h-8.428v-3.526h9.589c1.433 0 2.694.272 3.784.817 1.118.516 1.978 1.362 2.58 2.537.63 1.175.946 2.738.946 4.687V274h-4.601zm-14.104 0v-3.526h17.114l-.215 3.526h-16.899zm-1.075 0v-24.166h4.601V274h-4.601zm23.777 1.419l-.645-3.612 8.686-1.677c1.577-.287 2.838-.745 3.784-1.376a6.331 6.331 0 0 0 2.236-2.451c.545-1.032.932-2.308 1.161-3.827.229-1.519.358-3.325.387-5.418.029-2.093.043-4.501.043-7.224h4.558c0 2.953-.057 5.604-.172 7.955-.086 2.351-.33 4.429-.731 6.235-.401 1.806-1.032 3.354-1.892 4.644-.86 1.29-2.05 2.365-3.569 3.225-1.491.831-3.411 1.476-5.762 1.935l-8.084 1.591zm6.751-4.601l-5.418-20.984h4.601l5.203 20.984h-4.386z" fill="#000"/></g><defs><filter id="filter0_d_367_782" x="0" y="0" width="305" height="418" filterUnits="userSpaceOnUse" color-interpolation-filters="sRGB"><feFlood flood-opacity="0" result="BackgroundImageFix"/><feColorMatrix in="SourceAlpha" values="0 0 0 0 0 0 0 0 0 0 0 0 0 0 0 0 0 0 127 0" result="hardAlpha"/><feOffset dy="4"/><feGaussianBlur stdDeviation="2"/><feComposite in2="hardAlpha" operator="out"/><feColorMatrix values="0 0 0 0 0 0 0 0 0 0 0 0 0 0 0 0 0 0 0.25 0"/><feBlend in2="BackgroundImageFix" result="effect1_dropShadow_367_782"/><feBlend in="SourceGraphic" in2="effect1_dropShadow_367_782" result="shape"/></filter><clipPath id="clip0_367_782"><path fill="#fff" transform="translate(4)" d="M0 0h297v410H0z"/></clipPath></defs></svg>