<svg width="305" height="418" fill="none" xmlns="http://www.w3.org/2000/svg"><g clip-path="url(#clip0_367_710)" filter="url(#filter0_d_367_710)"><path d="M263.198 17v15.126c2.118.88 3.955 2.524 5.257 4.708 1.303 2.184 2.007 4.798 2.015 7.481 0 1.695-.278 3.374-.819 4.94-.542 1.566-1.335 2.989-2.336 4.188-1.001 1.199-2.189 2.15-3.497 2.798a9.254 9.254 0 0 1-4.125.983c-2.849-.003-5.581-1.358-7.598-3.767-2.017-2.41-3.154-5.678-3.163-9.09.007-2.683.711-5.297 2.014-7.48 1.303-2.184 3.14-3.83 5.257-4.709V17h-23.269v15.126c2.118.88 3.955 2.524 5.257 4.708 1.303 2.184 2.007 4.798 2.015 7.481 0 3.424-1.136 6.707-3.158 9.128-2.022 2.42-4.764 3.781-7.623 3.781-2.85-.002-5.584-1.355-7.602-3.765-2.018-2.41-3.156-5.68-3.165-9.092.008-2.683.712-5.297 2.015-7.48 1.302-2.184 3.139-3.83 5.257-4.709V17h-23.269v15.126c2.117.88 3.954 2.524 5.257 4.708 1.303 2.184 2.006 4.798 2.014 7.481 0 3.424-1.136 6.707-3.157 9.128-2.022 2.42-4.764 3.781-7.624 3.781-2.85-.002-5.583-1.355-7.601-3.765s-3.156-5.68-3.165-9.092c.007-2.683.711-5.297 2.014-7.48 1.303-2.184 3.14-3.83 5.257-4.709V17h-23.269v15.126c2.118.88 3.955 2.524 5.257 4.708 1.303 2.184 2.007 4.798 2.015 7.481 0 3.424-1.136 6.707-3.158 9.128-2.022 2.42-4.764 3.781-7.623 3.781-2.85-.002-5.584-1.355-7.602-3.765-2.018-2.41-3.156-5.68-3.165-9.092.008-2.683.712-5.297 2.015-7.48 1.302-2.184 3.139-3.83 5.257-4.709V17h-23.269v15.126c2.117.88 3.954 2.524 5.257 4.708 1.303 2.184 2.007 4.798 2.014 7.481.003 1.7-.275 3.384-.817 4.955-.543 1.572-1.339 2.999-2.344 4.2-1.004 1.202-2.197 2.154-3.51 2.802a9.254 9.254 0 0 1-4.139.975c-2.848-.01-5.577-1.372-7.589-3.785-2.013-2.414-3.145-5.684-3.148-9.095.008-2.683.711-5.297 2.014-7.48 1.303-2.184 3.14-3.83 5.257-4.709V17H111.84v15.126c2.118.88 3.955 2.524 5.258 4.708 1.302 2.184 2.006 4.798 2.014 7.481a15.14 15.14 0 0 1-.819 4.94 13.307 13.307 0 0 1-2.336 4.188c-1 1.199-2.189 2.15-3.496 2.798a9.26 9.26 0 0 1-4.125.983c-2.85-.002-5.584-1.355-7.602-3.765-2.018-2.41-3.156-5.68-3.165-9.092.008-2.683.712-5.297 2.014-7.48 1.303-2.184 3.14-3.83 5.257-4.709V17H81.572v15.126c2.117.88 3.954 2.524 5.257 4.708 1.303 2.184 2.006 4.798 2.014 7.481 0 1.695-.277 3.374-.819 4.94-.54 1.566-1.335 2.989-2.335 4.188-1.001 1.199-2.19 2.15-3.497 2.798a9.257 9.257 0 0 1-4.125.983c-2.847-.006-5.577-1.362-7.592-3.771-2.015-2.41-3.151-5.676-3.16-9.086.008-2.683.712-5.297 2.014-7.48 1.303-2.184 3.14-3.83 5.257-4.709V17H51.318v15.126c2.117.88 3.954 2.524 5.257 4.708 1.302 2.184 2.006 4.798 2.014 7.481 0 1.695-.277 3.374-.819 4.94-.541 1.566-1.335 2.989-2.335 4.188-1.001 1.199-2.19 2.15-3.497 2.798a9.258 9.258 0 0 1-4.125.983c-2.854.006-5.594-1.344-7.617-3.755-2.023-2.41-3.165-5.684-3.174-9.102.008-2.683.712-5.297 2.014-7.48 1.303-2.184 3.14-3.83 5.258-4.709V17H6.482v333.627L4 409.988l295.221-2.839 1.798-61.439V17h-37.821z" fill="#FFE2E6"/><g opacity=".3" stroke="#E8B797" stroke-width="1.86" stroke-miterlimit="10"><path d="M15.356 142.954h272.541M15.356 166.057h272.541M15.356 189.159h272.541M15.356 212.262h272.541M15.356 235.37h272.541M15.356 258.473h272.541M15.356 281.576h272.541M15.356 304.678h272.541M15.356 327.781h272.541M15.356 350.883h272.541M15.356 373.992h272.541M15.356 397.094h272.541"/></g><path d="M47.047 90.855h-.257c-8.081 0-14.654-9.484-14.654-21.145V26.758h4.15V69.71c0 8.921 4.711 16.177 10.504 16.177h.257c5.788 0 10.505-7.256 10.505-16.177V17.5c0-6.907-3.612-12.532-8.052-12.532H31.927c-4.363 0-8.018 5.671-8.018 12.497l-4.081.035c0-9.716 5.429-17.5 12.119-17.5h17.558c6.728 0 12.201 7.853 12.201 17.5v52.21c-.005 11.66-6.578 21.145-14.66 21.145z" fill="#231F20"/><path d="M67.168 212.675l-.45-3.33c1.2-.12 2.115-.375 2.745-.765.63-.39 1.065-.93 1.305-1.62.24-.69.36-1.575.36-2.655V186.71h12.15c1.5 0 2.82.285 3.96.855 1.17.54 2.07 1.425 2.7 2.655.66 1.23.99 2.865.99 4.905V212h-4.815v-17.1c0-1.68-.36-2.85-1.08-3.51-.72-.66-1.71-.99-2.97-.99h-6.12v13.365c0 1.98-.315 3.6-.945 4.86-.6 1.26-1.545 2.205-2.835 2.835-1.29.63-2.955 1.035-4.995 1.215zM96.785 212v-20.025l-.54-5.265h4.77l.585 5.265V212h-4.815zm10.631 0v-3.69h8.145c.99 0 1.89-.135 2.7-.405.81-.3 1.515-.75 2.115-1.35.6-.6 1.065-1.365 1.395-2.295.33-.96.495-2.1.495-3.42v-3.015c0-1.56-.21-2.895-.63-4.005-.39-1.11-1.02-1.95-1.89-2.52-.84-.6-1.92-.9-3.24-.9h-4.05l-.99 4.455c-.3 1.44-.255 2.55.135 3.33.42.75 1.395 1.29 2.925 1.62l-.855 3.105c-1.95-.12-3.45-.54-4.5-1.26-1.05-.75-1.725-1.74-2.025-2.97-.27-1.23-.255-2.64.045-4.23l1.755-7.74h8.595c2.01 0 3.72.45 5.13 1.35 1.41.87 2.49 2.145 3.24 3.825.78 1.68 1.17 3.72 1.17 6.12v2.61c0 1.95-.27 3.645-.81 5.085-.51 1.44-1.245 2.625-2.205 3.555-.93.93-2.04 1.62-3.33 2.07-1.29.45-2.685.675-4.185.675h-9.135zm23.033.675l-.45-3.33c1.2-.12 2.115-.375 2.745-.765.63-.39 1.065-.93 1.305-1.62.24-.69.36-1.575.36-2.655V186.71h12.15c1.5 0 2.82.285 3.96.855 1.17.54 2.07 1.425 2.7 2.655.66 1.23.99 2.865.99 4.905V212h-4.815v-17.1c0-1.68-.36-2.85-1.08-3.51-.72-.66-1.71-.99-2.97-.99h-6.12v13.365c0 1.98-.315 3.6-.945 4.86-.6 1.26-1.545 2.205-2.835 2.835-1.29.63-2.955 1.035-4.995 1.215zm27.818 0l-.45-3.33c1.2-.12 2.115-.375 2.745-.765.63-.39 1.065-.93 1.305-1.62.24-.69.36-1.575.36-2.655V186.71h12.15c1.5 0 2.82.285 3.96.855 1.17.54 2.07 1.425 2.7 2.655.66 1.23.99 2.865.99 4.905V212h-4.815v-17.1c0-1.68-.36-2.85-1.08-3.51-.72-.66-1.71-.99-2.97-.99h-6.12v13.365c0 1.98-.315 3.6-.945 4.86-.6 1.26-1.545 2.205-2.835 2.835-1.29.63-2.955 1.035-4.995 1.215zm31.777-.225l-3.285-25.74h4.59l2.61 21.645c2.31-.15 4.29-.555 5.94-1.215 1.68-.69 3.045-1.635 4.095-2.835 1.08-1.23 1.875-2.715 2.385-4.455.51-1.74.765-3.735.765-5.985l-.09-7.155h4.815l.045 6.93c.03 4.2-.75 7.695-2.34 10.485-1.56 2.79-3.96 4.89-7.2 6.3-3.24 1.38-7.35 2.055-12.33 2.025zm2.43-9.945l-1.125-3.195c1.5-.57 2.655-1.23 3.465-1.98.84-.78 1.425-1.785 1.755-3.015.36-1.23.555-2.82.585-4.77v-2.79h4.59l-.045 2.7c-.03 2.22-.33 4.155-.9 5.805-.57 1.65-1.53 3.06-2.88 4.23-1.32 1.17-3.135 2.175-5.445 3.015zM231.819 212v-17.1c0-1.68-.375-2.85-1.125-3.51-.72-.66-1.695-.99-2.925-.99h-11.07v-3.69h12.285c1.5 0 2.82.285 3.96.855 1.14.54 2.04 1.425 2.7 2.655.66 1.23.99 2.865.99 4.905V212h-4.815zm-15.255 0v-12.24l.675-3.015h4.14V212h-4.815z" fill="#000"/></g><defs><filter id="filter0_d_367_710" x="0" y="0" width="305" height="418" filterUnits="userSpaceOnUse" color-interpolation-filters="sRGB"><feFlood flood-opacity="0" result="BackgroundImageFix"/><feColorMatrix in="SourceAlpha" values="0 0 0 0 0 0 0 0 0 0 0 0 0 0 0 0 0 0 127 0" result="hardAlpha"/><feOffset dy="4"/><feGaussianBlur stdDeviation="2"/><feComposite in2="hardAlpha" operator="out"/><feColorMatrix values="0 0 0 0 0 0 0 0 0 0 0 0 0 0 0 0 0 0 0.25 0"/><feBlend in2="BackgroundImageFix" result="effect1_dropShadow_367_710"/><feBlend in="SourceGraphic" in2="effect1_dropShadow_367_710" result="shape"/></filter><clipPath id="clip0_367_710"><path fill="#fff" transform="translate(4)" d="M0 0h297v410H0z"/></clipPath></defs></svg>