<svg width="305" height="418" fill="none" xmlns="http://www.w3.org/2000/svg"><g clip-path="url(#clip0_367_818)" filter="url(#filter0_d_367_818)"><path d="M263.198 17v15.126c2.118.88 3.955 2.524 5.257 4.708 1.303 2.184 2.007 4.798 2.015 7.481 0 1.695-.278 3.374-.819 4.94-.542 1.566-1.335 2.989-2.336 4.188-1.001 1.199-2.189 2.15-3.497 2.798a9.254 9.254 0 0 1-4.125.983c-2.849-.003-5.581-1.358-7.598-3.767-2.017-2.41-3.154-5.678-3.163-9.09.007-2.683.711-5.297 2.014-7.48 1.303-2.184 3.14-3.83 5.257-4.709V17h-23.269v15.126c2.118.88 3.955 2.524 5.257 4.708 1.303 2.184 2.007 4.798 2.015 7.481 0 3.424-1.136 6.707-3.158 9.128-2.022 2.42-4.764 3.781-7.623 3.781-2.85-.002-5.584-1.355-7.602-3.765-2.018-2.41-3.156-5.68-3.165-9.092.008-2.683.712-5.297 2.015-7.48 1.302-2.184 3.139-3.83 5.257-4.709V17h-23.269v15.126c2.117.88 3.954 2.524 5.257 4.708 1.303 2.184 2.006 4.798 2.014 7.481 0 3.424-1.136 6.707-3.157 9.128-2.022 2.42-4.764 3.781-7.624 3.781-2.85-.002-5.583-1.355-7.601-3.765s-3.156-5.68-3.165-9.092c.007-2.683.711-5.297 2.014-7.48 1.303-2.184 3.14-3.83 5.257-4.709V17h-23.269v15.126c2.118.88 3.955 2.524 5.257 4.708 1.303 2.184 2.007 4.798 2.015 7.481 0 3.424-1.136 6.707-3.158 9.128-2.022 2.42-4.764 3.781-7.623 3.781-2.85-.002-5.584-1.355-7.602-3.765-2.018-2.41-3.156-5.68-3.165-9.092.008-2.683.712-5.297 2.015-7.48 1.302-2.184 3.139-3.83 5.257-4.709V17h-23.269v15.126c2.117.88 3.954 2.524 5.257 4.708 1.303 2.184 2.007 4.798 2.014 7.481.003 1.7-.275 3.384-.817 4.955-.543 1.572-1.339 2.999-2.344 4.2-1.004 1.202-2.197 2.154-3.51 2.802a9.254 9.254 0 0 1-4.139.975c-2.848-.01-5.577-1.372-7.589-3.785-2.013-2.414-3.145-5.684-3.148-9.095.008-2.683.711-5.297 2.014-7.48 1.303-2.184 3.14-3.83 5.257-4.709V17H111.84v15.126c2.118.88 3.955 2.524 5.258 4.708 1.302 2.184 2.006 4.798 2.014 7.481a15.14 15.14 0 0 1-.819 4.94 13.307 13.307 0 0 1-2.336 4.188c-1 1.199-2.189 2.15-3.496 2.798a9.26 9.26 0 0 1-4.125.983c-2.85-.002-5.584-1.355-7.602-3.765-2.018-2.41-3.156-5.68-3.165-9.092.008-2.683.712-5.297 2.014-7.48 1.303-2.184 3.14-3.83 5.257-4.709V17H81.572v15.126c2.117.88 3.954 2.524 5.257 4.708 1.303 2.184 2.006 4.798 2.014 7.481 0 1.695-.277 3.374-.819 4.94-.54 1.566-1.335 2.989-2.335 4.188-1.001 1.199-2.19 2.15-3.497 2.798a9.257 9.257 0 0 1-4.125.983c-2.847-.006-5.577-1.362-7.592-3.771-2.015-2.41-3.151-5.676-3.16-9.086.008-2.683.712-5.297 2.014-7.48 1.303-2.184 3.14-3.83 5.257-4.709V17H51.318v15.126c2.117.88 3.954 2.524 5.257 4.708 1.302 2.184 2.006 4.798 2.014 7.481 0 1.695-.277 3.374-.819 4.94-.541 1.566-1.335 2.989-2.335 4.188-1.001 1.199-2.19 2.15-3.497 2.798a9.258 9.258 0 0 1-4.125.983c-2.854.006-5.594-1.344-7.617-3.755-2.023-2.41-3.165-5.684-3.174-9.102.008-2.683.712-5.297 2.014-7.48 1.303-2.184 3.14-3.83 5.258-4.709V17H6.482v333.627L4 409.988l295.221-2.839 1.798-61.439V17h-37.821z" fill="#D4F5EF"/><g opacity=".3" stroke="#E8B797" stroke-width="1.86" stroke-miterlimit="10"><path d="M15.356 142.954h272.541M15.356 166.057h272.541M15.356 189.159h272.541M15.356 212.262h272.541M15.356 235.37h272.541M15.356 258.473h272.541M15.356 281.576h272.541M15.356 304.678h272.541M15.356 327.781h272.541M15.356 350.883h272.541M15.356 373.992h272.541M15.356 397.094h272.541"/></g><path d="M47.047 90.855h-.257c-8.081 0-14.654-9.484-14.654-21.145V26.758h4.15V69.71c0 8.921 4.711 16.177 10.504 16.177h.257c5.788 0 10.505-7.256 10.505-16.177V17.5c0-6.907-3.612-12.532-8.052-12.532H31.927c-4.363 0-8.018 5.671-8.018 12.497l-4.081.035c0-9.716 5.429-17.5 12.119-17.5h17.558c6.728 0 12.201 7.853 12.201 17.5v52.21c-.005 11.66-6.578 21.145-14.66 21.145z" fill="#231F20"/><path d="M29.328 219.72l10.416-36.54h2.94l-10.416 36.54h-2.94zm25.447-15.54V194.31l-.504-4.914h4.452l.546 4.914v6.384l-.042 2.646-4.452.84zM68.309 213l7.854-20.16H63.52v-3.444h17.136v3.738L72.803 213h-4.494zm-4.788-20.16v-9.954h4.074v9.954H63.52zM85.29 213v-18.69l-.504-4.914h4.452l.546 4.914V213H85.29zm20.715 0v-15.96c0-1.568-.35-2.66-1.05-3.276-.672-.616-1.582-.924-2.73-.924H94.33v-3.444h9.03c1.4 0 2.632.266 3.696.798 1.064.504 1.904 1.33 2.52 2.478.616 1.148.924 2.674.924 4.578V213h-4.494zm-11.676 0v-3.444h19.068V213H94.33zm31.13.042l.462-3.402c2.212.476 3.962.434 5.25-.126 1.316-.56 2.254-1.596 2.814-3.108.588-1.512.854-3.43.798-5.754-.028-1.988-.28-3.556-.756-4.704-.448-1.176-1.078-2.016-1.89-2.52-.784-.504-1.708-.756-2.772-.756-.98 0-1.82.21-2.52.63a4.49 4.49 0 0 0-1.68 1.638c-.42.7-.714 1.484-.882 2.352l-1.134-2.142c.504-2.128 1.414-3.668 2.73-4.62 1.316-.98 2.744-1.47 4.284-1.47 1.316 0 2.506.224 3.57.672 1.092.42 2.03 1.106 2.814 2.058.784.924 1.386 2.128 1.806 3.612.448 1.456.686 3.206.714 5.25.056 3.164-.448 5.782-1.512 7.854-1.036 2.072-2.576 3.514-4.62 4.326-2.044.812-4.536.882-7.476.21zm-8.4-.042l3.024-16.254-3.276-7.35h4.662l2.898 7.518L121.554 213h-4.494zm26.842-8.82V194.31l-.504-4.914h4.452l.546 4.914v6.384l-.042 2.646-4.452.84zm11.896 9.24l-2.436-20.58 4.242-2.142 2.142 18.648a15.894 15.894 0 0 0 3.234-.546c1.008-.28 1.89-.658 2.646-1.134a6.749 6.749 0 0 0 1.89-1.89c.532-.784.924-1.708 1.176-2.772.252-1.064.35-2.31.294-3.738v-1.134c0-1.036-.168-1.946-.504-2.73-.336-.784-.826-1.4-1.47-1.848-.616-.476-1.386-.714-2.31-.714h-11.34l-.42-3.444h12.096c2.632 0 4.662.784 6.09 2.352 1.428 1.568 2.184 3.654 2.268 6.258l.042 1.344c.084 2.576-.294 4.746-1.134 6.51a10.708 10.708 0 0 1-3.654 4.242c-1.596 1.064-3.486 1.862-5.67 2.394-2.184.504-4.578.812-7.182.924zm38.27-.42l-.42-3.444c.952-.084 1.82-.266 2.604-.546a5.691 5.691 0 0 0 2.058-1.386c.588-.616 1.064-1.47 1.428-2.562.364-1.092.602-2.464.714-4.116l.63-8.106h-14.868v-3.444h19.698l-.168 3.024-.588 7.476c-.084 2.016-.378 3.822-.882 5.418s-1.218 2.968-2.142 4.116a9.078 9.078 0 0 1-3.36 2.604c-1.344.616-2.912.938-4.704.966zm-7.938 8.4v-20.244l.63-2.856h3.864v23.1h-4.494zm38.866-8.4v-15.54c0-3.08-1.26-4.62-3.78-4.62h-10.962v-3.444h12.096c1.456 0 2.716.294 3.78.882 1.064.588 1.89 1.498 2.478 2.73.588 1.204.882 2.758.882 4.662V213h-4.494zm-14.742 0v-21.798h4.494V213h-4.494zm26.76.42l-3.066-24.024h4.284l2.436 20.202c2.156-.14 4.004-.518 5.544-1.134 1.568-.644 2.842-1.526 3.822-2.646 1.008-1.148 1.75-2.534 2.226-4.158.476-1.624.714-3.486.714-5.586l-.084-6.678h4.494l.042 6.468c.028 3.92-.7 7.182-2.184 9.786-1.456 2.604-3.696 4.564-6.72 5.88-3.024 1.288-6.86 1.918-11.508 1.89zm2.268-9.282l-1.05-2.982c1.4-.532 2.478-1.148 3.234-1.848.784-.728 1.33-1.666 1.638-2.814.336-1.148.518-2.632.546-4.452v-2.604h4.284l-.042 2.52c-.028 2.072-.308 3.878-.84 5.418s-1.428 2.856-2.688 3.948c-1.232 1.092-2.926 2.03-5.082 2.814zm30.758 8.904l.462-3.402c2.212.476 3.962.434 5.25-.126 1.316-.56 2.254-1.596 2.814-3.108.588-1.512.854-3.43.798-5.754-.028-1.988-.28-3.556-.756-4.704-.448-1.176-1.078-2.016-1.89-2.52-.784-.504-1.708-.756-2.772-.756-.98 0-1.82.21-2.52.63a4.49 4.49 0 0 0-1.68 1.638c-.42.7-.714 1.484-.882 2.352l-1.134-2.142c.504-2.128 1.414-3.668 2.73-4.62 1.316-.98 2.744-1.47 4.284-1.47 1.316 0 2.506.224 3.57.672 1.092.42 2.03 1.106 2.814 2.058.784.924 1.386 2.128 1.806 3.612.448 1.456.686 3.206.714 5.25.056 3.164-.448 5.782-1.512 7.854-1.036 2.072-2.576 3.514-4.62 4.326-2.044.812-4.536.882-7.476.21zm-8.4-.042l3.024-16.254-3.276-7.35h4.662l2.898 7.518L266.134 213h-4.494zM69.042 273v-15.96c0-1.568-.336-2.66-1.008-3.276-.672-.616-1.596-.924-2.772-.924H57.03v-3.444h9.366c1.4 0 2.632.266 3.696.798 1.092.504 1.932 1.33 2.52 2.478.616 1.148.924 2.674.924 4.578V273h-4.494zm-13.776 0v-3.444h16.716l-.21 3.444H55.266zm-1.05 0v-23.604h4.494V273h-4.494zm24.779-8.82V254.31l-.504-4.914h4.452l.546 4.914v6.384l-.042 2.646-4.452.84zm8.998 8.82v-3.444h6.803v-13.188c0-1.26-.252-2.156-.756-2.688s-1.204-.854-2.1-.966l-2.855-.42.588-3.402 4.367.63c1.68.224 2.968.924 3.864 2.1.925 1.176 1.386 2.73 1.386 4.662V273H87.993zm16.633 0v-3.444h7.602c.924 0 1.764-.126 2.52-.378.756-.28 1.414-.7 1.974-1.26s.994-1.274 1.302-2.142c.308-.896.462-1.96.462-3.192v-2.814c0-1.456-.196-2.702-.588-3.738-.364-1.036-.952-1.82-1.764-2.352-.784-.56-1.792-.84-3.024-.84h-3.78l-.924 4.158c-.28 1.344-.238 2.38.126 3.108.392.7 1.302 1.204 2.73 1.512l-.798 2.898c-1.82-.112-3.22-.504-4.2-1.176-.98-.7-1.61-1.624-1.89-2.772-.252-1.148-.238-2.464.042-3.948l1.638-7.224h8.022c1.876 0 3.472.42 4.788 1.26 1.316.812 2.324 2.002 3.024 3.57.728 1.568 1.092 3.472 1.092 5.712v2.436c0 1.82-.252 3.402-.756 4.746-.476 1.344-1.162 2.45-2.058 3.318a8.106 8.106 0 0 1-3.108 1.932c-1.204.42-2.506.63-3.906.63h-8.526zm29.905.63l-.42-3.108c1.12-.112 1.974-.35 2.562-.714a2.823 2.823 0 0 0 1.218-1.512c.224-.644.336-1.47.336-2.478v-16.422h11.34c1.4 0 2.632.266 3.696.798 1.092.504 1.932 1.33 2.52 2.478.616 1.148.924 2.674.924 4.578V273h-4.494v-15.96c0-1.568-.336-2.66-1.008-3.276-.672-.616-1.596-.924-2.772-.924h-5.712v12.474c0 1.848-.294 3.36-.882 4.536-.56 1.176-1.442 2.058-2.646 2.646-1.204.588-2.758.966-4.662 1.134zm36.757-.63v-15.246c0-1.092.098-2.044.294-2.856.224-.84.518-1.526.882-2.058h-11.34v-3.444h18.732v3.444h-3.15c-.392.7-.644 1.512-.756 2.436a20.085 20.085 0 0 0-.168 2.478V273h-4.494zm21.171.042l.462-3.402c2.212.476 3.962.434 5.25-.126 1.316-.56 2.254-1.596 2.814-3.108.588-1.512.854-3.43.798-5.754-.028-1.988-.28-3.556-.756-4.704-.448-1.176-1.078-2.016-1.89-2.52-.784-.504-1.708-.756-2.772-.756-.98 0-1.82.21-2.52.63a4.49 4.49 0 0 0-1.68 1.638c-.42.7-.714 1.484-.882 2.352l-1.134-2.142c.504-2.128 1.414-3.668 2.73-4.62 1.316-.98 2.744-1.47 4.284-1.47 1.316 0 2.506.224 3.57.672 1.092.42 2.03 1.106 2.814 2.058.784.924 1.386 2.128 1.806 3.612.448 1.456.686 3.206.714 5.25.056 3.164-.448 5.782-1.512 7.854-1.036 2.072-2.576 3.514-4.62 4.326-2.044.812-4.536.882-7.476.21zm-8.4-.042l3.024-16.254-3.276-7.35h4.662l2.898 7.518L188.553 273h-4.494zm25.288 1.386l-.63-3.528 8.484-1.638c1.54-.28 2.772-.728 3.696-1.344a6.182 6.182 0 0 0 2.184-2.394c.532-1.008.91-2.254 1.134-3.738.224-1.484.35-3.248.378-5.292.028-2.044.042-4.396.042-7.056h4.452c0 2.884-.056 5.474-.168 7.77-.084 2.296-.322 4.326-.714 6.09-.392 1.764-1.008 3.276-1.848 4.536-.84 1.26-2.002 2.31-3.486 3.15-1.456.812-3.332 1.442-5.628 1.89l-7.896 1.554zm6.594-4.494l-5.292-20.496h4.494l5.082 20.496h-4.284zM247.642 273v-15.96c0-1.568-.35-2.66-1.05-3.276-.672-.616-1.582-.924-2.73-.924H233.53v-3.444h11.466c1.4 0 2.632.266 3.696.798 1.064.504 1.904 1.33 2.52 2.478.616 1.148.924 2.674.924 4.578V273h-4.494zm-14.238 0v-11.424l.63-2.814h3.864V273h-4.494z" fill="#000"/></g><defs><filter id="filter0_d_367_818" x="0" y="0" width="305" height="418" filterUnits="userSpaceOnUse" color-interpolation-filters="sRGB"><feFlood flood-opacity="0" result="BackgroundImageFix"/><feColorMatrix in="SourceAlpha" values="0 0 0 0 0 0 0 0 0 0 0 0 0 0 0 0 0 0 127 0" result="hardAlpha"/><feOffset dy="4"/><feGaussianBlur stdDeviation="2"/><feComposite in2="hardAlpha" operator="out"/><feColorMatrix values="0 0 0 0 0 0 0 0 0 0 0 0 0 0 0 0 0 0 0.25 0"/><feBlend in2="BackgroundImageFix" result="effect1_dropShadow_367_818"/><feBlend in="SourceGraphic" in2="effect1_dropShadow_367_818" result="shape"/></filter><clipPath id="clip0_367_818"><path fill="#fff" transform="translate(4)" d="M0 0h297v410H0z"/></clipPath></defs></svg>