<svg width="305" height="418" fill="none" xmlns="http://www.w3.org/2000/svg"><g clip-path="url(#clip0_367_691)" filter="url(#filter0_d_367_691)"><path d="M263.198 17.012V32.14c2.118.879 3.955 2.524 5.257 4.707 1.303 2.184 2.007 4.798 2.015 7.482 0 1.694-.278 3.373-.819 4.94-.542 1.565-1.335 2.988-2.336 4.187-1.001 1.199-2.189 2.15-3.497 2.799a9.254 9.254 0 0 1-4.125.982c-2.849-.003-5.581-1.357-7.598-3.767-2.017-2.41-3.154-5.678-3.163-9.09.007-2.683.711-5.297 2.014-7.48 1.303-2.184 3.14-3.829 5.257-4.708V17.012h-23.269V32.14c2.118.879 3.955 2.524 5.257 4.707 1.303 2.184 2.007 4.798 2.015 7.482 0 3.423-1.136 6.707-3.158 9.127-2.022 2.421-4.764 3.781-7.623 3.781-2.85-.001-5.584-1.355-7.602-3.765-2.018-2.41-3.156-5.679-3.165-9.091.008-2.684.712-5.298 2.015-7.481 1.302-2.184 3.139-3.829 5.257-4.708V17.012h-23.269V32.14c2.117.879 3.954 2.524 5.257 4.707 1.303 2.184 2.006 4.798 2.014 7.482 0 3.423-1.136 6.707-3.157 9.127-2.022 2.421-4.764 3.781-7.624 3.781-2.85-.001-5.583-1.355-7.601-3.765s-3.156-5.679-3.165-9.091c.007-2.684.711-5.298 2.014-7.481 1.303-2.184 3.14-3.829 5.257-4.708V17.012h-23.269V32.14c2.118.879 3.955 2.524 5.257 4.707 1.303 2.184 2.007 4.798 2.015 7.482 0 3.423-1.136 6.707-3.158 9.127-2.022 2.421-4.764 3.781-7.623 3.781-2.85-.001-5.584-1.355-7.602-3.765-2.018-2.41-3.156-5.679-3.165-9.091.008-2.684.712-5.298 2.015-7.481 1.302-2.184 3.139-3.829 5.257-4.708V17.012h-23.269V32.14c2.117.879 3.954 2.524 5.257 4.707 1.303 2.184 2.007 4.798 2.014 7.482.003 1.7-.275 3.384-.817 4.955-.543 1.57-1.339 2.998-2.344 4.2-1.004 1.202-2.197 2.154-3.51 2.802a9.254 9.254 0 0 1-4.139.975c-2.848-.011-5.577-1.372-7.589-3.786-2.013-2.414-3.145-5.684-3.148-9.094.008-2.684.711-5.298 2.014-7.481 1.303-2.184 3.14-3.829 5.257-4.708V17.012H111.84V32.14c2.118.879 3.955 2.524 5.258 4.707 1.302 2.184 2.006 4.798 2.014 7.482a15.14 15.14 0 0 1-.819 4.94 13.307 13.307 0 0 1-2.336 4.187c-1 1.199-2.189 2.15-3.496 2.799a9.26 9.26 0 0 1-4.125.982c-2.85-.001-5.584-1.355-7.602-3.765-2.018-2.41-3.156-5.679-3.165-9.091.008-2.684.712-5.298 2.014-7.481 1.303-2.184 3.14-3.829 5.257-4.708V17.012H81.572V32.14c2.117.879 3.954 2.524 5.257 4.707 1.303 2.184 2.006 4.798 2.014 7.482 0 1.694-.277 3.373-.819 4.94-.54 1.565-1.335 2.988-2.335 4.187-1.001 1.199-2.19 2.15-3.497 2.799a9.257 9.257 0 0 1-4.125.982c-2.847-.006-5.577-1.362-7.592-3.77-2.015-2.41-3.151-5.677-3.16-9.086.008-2.684.712-5.298 2.014-7.481 1.303-2.184 3.14-3.829 5.257-4.708V17.012H51.318V32.14c2.117.879 3.954 2.524 5.257 4.707 1.302 2.184 2.006 4.798 2.014 7.482 0 1.694-.277 3.373-.819 4.94-.541 1.565-1.335 2.988-2.335 4.187-1.001 1.199-2.19 2.15-3.497 2.799a9.258 9.258 0 0 1-4.125.982c-2.854.007-5.594-1.344-7.617-3.755-2.023-2.41-3.165-5.684-3.174-9.101.008-2.684.712-5.298 2.014-7.481 1.303-2.184 3.14-3.829 5.258-4.708V17.012H6.482V350.64L4 410l295.221-2.838 1.798-61.439V17.013h-37.821z" fill="#F9F2DE"/><g opacity=".3" stroke="#E8B797" stroke-width="1.86" stroke-miterlimit="10"><path d="M15.356 142.954h272.541M15.356 166.057h272.541M15.356 189.159h272.541M15.356 212.262h272.541M15.356 235.37h272.541M15.356 258.473h272.541M15.356 281.576h272.541M15.356 304.678h272.541M15.356 327.781h272.541M15.356 350.883h272.541M15.356 373.992h272.541M15.356 397.094h272.541"/></g><path d="M301.16 64H6.424v88.226H301.16V64z" fill="#FFE2E5"/><path d="M47.047 90.855h-.257c-8.081 0-14.654-9.484-14.654-21.145V26.758h4.15V69.71c0 8.921 4.711 16.177 10.504 16.177h.257c5.788 0 10.505-7.256 10.505-16.177V17.5c0-6.907-3.612-12.532-8.052-12.532H31.927c-4.363 0-8.018 5.671-8.018 12.497l-4.081.035c0-9.716 5.429-17.5 12.119-17.5h17.558c6.728 0 12.201 7.853 12.201 17.5v52.21c-.005 11.66-6.578 21.145-14.66 21.145z" fill="#231F20"/><path d="M42.553 188.629v-7.44c0-.92-.2-1.553-.6-1.9-.387-.36-.907-.54-1.56-.54h-4.12v-1.22h4.46c.666 0 1.246.12 1.74.36.506.24.9.633 1.18 1.18.293.547.44 1.273.44 2.18v7.38h-1.54zm-6.8 0v-1.22h7.82l-.14 1.22h-7.68zm-.4 0v-11.1h1.54V188.629h-1.54zm11.661-4.2V179.869l-.26-2.34h1.52l.28 2.34v2.98l-.02 1.26-1.52.32zm9.033 4.2v-7.54c0-.507.047-.953.14-1.34.093-.4.227-.733.4-1h-5.6v-1.22h8.56v1.22h-1.48c-.2.333-.334.72-.4 1.16-.067.427-.1.82-.1 1.18v7.54h-1.52zm7.783 0l3.86-9.88h-6.2v-1.22h7.74v1.3l-3.86 9.8h-1.54zm-2.34-9.88v-4.46h1.4v4.46h-1.4zm10.212 5.68V179.869l-.26-2.34h1.52l.28 2.34v2.98l-.02 1.26-1.52.32zm15.616 4.2v-7.44c0-.92-.2-1.553-.6-1.9-.386-.36-.906-.54-1.56-.54h-4.12v-1.22h4.46c.667 0 1.247.12 1.74.36.507.24.9.633 1.18 1.18.294.547.44 1.273.44 2.18v7.38h-1.54zm-6.8 0v-1.22h7.82l-.14 1.22h-7.68zm-.4 0v-11.1h1.54V188.629h-1.54zm10.842.58l-.22-1.24 3.56-.68c.787-.147 1.427-.367 1.92-.66.507-.293.893-.68 1.16-1.16.28-.48.48-1.08.6-1.8.133-.72.213-1.587.24-2.6.026-1.013.04-2.193.04-3.54h1.52c0 1.44-.027 2.713-.08 3.82-.053 1.107-.174 2.073-.36 2.9-.187.813-.48 1.5-.88 2.06-.387.56-.92 1.027-1.6 1.4-.667.36-1.513.64-2.54.84l-3.36.66zm3.36-1.8l-2.62-9.88h1.54l2.58 9.88h-1.5zm18.589 1.22v-7.44c0-.92-.2-1.553-.6-1.9-.4-.36-.927-.54-1.58-.54h-4.66v-1.22h5c.666 0 1.253.12 1.76.36.506.24.9.633 1.18 1.18.28.547.42 1.273.42 2.18v7.38h-1.52zm-6.86 0v-5.4l.22-1.34h1.3v6.74h-1.52zm11.278-4.2V179.869l-.26-2.34h1.52l.28 2.34v2.98l-.02 1.26-1.52.32zm10.712 4.2l-6.62-11.1h1.58l6.62 11.1h-1.58zm-7.02 0v-1.22h7.58l.46 1.22h-8.04zm5.56-4.64l-.86-1.36 2.18-5.1h1.56l-2.88 6.46zm8.533 4.64l-.16-1.22a6.41 6.41 0 0 0 1.28-.28c.413-.147.78-.373 1.1-.68.32-.32.58-.76.78-1.32.213-.573.353-1.3.42-2.18l.34-4.2h-7.2v-1.22h8.84l-.06 1.1-.32 4.02c-.053.987-.213 1.853-.48 2.6-.253.733-.6 1.347-1.04 1.84a4.14 4.14 0 0 1-1.54 1.12 5.424 5.424 0 0 1-1.96.42zm-3.4 4v-9.68l.22-1.36h1.32v11.04h-1.54zm20.316-4h-1.68l-4.56-6.82-2.14 6.82h-1.46l2.18-6.88.54-1.32-1.84-2.9h1.58l1.78 2.8 1.88 2.8.46-1.68 1.2-3.92h1.48l-2.24 6.94 2.82 4.16zm7.212 0v-7.44c0-.92-.2-1.553-.6-1.9-.387-.36-.907-.54-1.56-.54h-3.54v-1.22h3.88c.667 0 1.247.12 1.74.36.507.24.9.633 1.18 1.18.293.547.44 1.273.44 2.18v7.38h-1.54zm5.233.2l-1.34-11.3h1.54l1.16 9.88a8.412 8.412 0 0 0 1.96-.42 4.87 4.87 0 0 0 1.62-.98c.48-.427.847-.967 1.1-1.62.254-.667.36-1.467.32-2.4v-.5c0-.547-.093-1.02-.28-1.42a2.07 2.07 0 0 0-.84-.98c-.373-.253-.86-.4-1.46-.44l-.98-.06.1-1.24 1.12.08c.76.04 1.42.207 1.98.5.574.293 1.02.713 1.34 1.26.32.547.494 1.247.52 2.1l.02.56c.04 1.213-.133 2.253-.52 3.12a5.336 5.336 0 0 1-1.66 2.12c-.72.547-1.566.96-2.54 1.24-.973.28-2.026.447-3.16.5zm9.422-.2v-1.22h3.48v-6.66c0-.68-.14-1.167-.42-1.46-.267-.307-.647-.5-1.14-.58l-1.34-.2.22-1.2 1.74.26c.8.12 1.413.447 1.84.98.426.52.64 1.24.64 2.16v7.92h-5.02zm7.963-4.2V179.869l-.26-2.34h1.52l.28 2.34v2.98l-.02 1.26-1.52.32zm13.413 4.2h-1.68l-4.56-6.82-2.14 6.82h-1.46l2.18-6.88.54-1.32-1.84-2.9h1.58l1.78 2.8 1.88 2.8.46-1.68 1.2-3.92h1.48l-2.24 6.94 2.82 4.16zm8.751 0v-7.44c0-.92-.2-1.553-.6-1.9-.4-.36-.927-.54-1.58-.54h-4.66v-1.22h5c.667 0 1.253.12 1.76.36.507.24.9.633 1.18 1.18.28.547.42 1.273.42 2.18v7.38h-1.52zm-6.86 0v-5.4l.22-1.34h1.3v6.74h-1.52zm14.322.28l-.16-1.1c.547-.053.967-.173 1.26-.36.307-.187.52-.447.64-.78.12-.347.18-.767.18-1.26v-7.88h4.9c.667 0 1.247.12 1.74.36.507.24.9.633 1.18 1.18.293.547.44 1.273.44 2.18v7.38h-1.54v-7.44c0-.92-.2-1.553-.6-1.9-.387-.36-.907-.54-1.56-.54h-3.02v6.5c0 .787-.127 1.44-.38 1.96-.24.507-.613.9-1.12 1.18-.493.267-1.147.44-1.96.52zm17.629-.28v-7.54c0-.507.047-.953.14-1.34.094-.4.227-.733.4-1h-5.6v-1.22h8.56v1.22h-1.48c-.2.333-.333.72-.4 1.16-.066.427-.1.82-.1 1.18v7.54h-1.52zm6.143-4.2V179.869l-.26-2.34h1.52l.28 2.34v2.98l-.02 1.26-1.52.32zm7.753 4.24l.16-1.22c1.107.24 2 .213 2.68-.08.68-.293 1.18-.833 1.5-1.62.32-.787.46-1.807.42-3.06-.013-1.027-.153-1.827-.42-2.4-.253-.587-.593-1-1.02-1.24a2.665 2.665 0 0 0-1.42-.38c-.547 0-1.007.12-1.38.36a2.48 2.48 0 0 0-.88.9c-.2.373-.347.78-.44 1.22l-.46-.84c.24-1.013.673-1.747 1.3-2.2.64-.467 1.333-.7 2.08-.7.573 0 1.1.093 1.58.28.493.187.927.487 1.3.9.373.4.667.94.88 1.62.227.68.347 1.507.36 2.48.04 1.547-.18 2.813-.66 3.8-.48.987-1.193 1.673-2.14 2.06-.947.373-2.093.413-3.44.12zm-3.7-.04l1.48-7.78-1.54-3.32h1.58l1.42 3.38-1.4 7.72h-1.54zm16.533-4.2V179.869l-.26-2.34h1.52l.28 2.34v2.98l-.02 1.26-1.52.32zm10.973 4.2v-7.44c0-.92-.2-1.553-.6-1.9-.4-.36-.927-.54-1.58-.54h-4.66v-1.22h5c.667 0 1.253.12 1.76.36.507.24.9.633 1.18 1.18.28.547.42 1.273.42 2.18v7.38h-1.52zm-6.86 0v-5.4l.22-1.34h1.3v6.74h-1.52zm14.558.04l.16-1.22c1.107.24 2 .213 2.68-.08.68-.293 1.18-.833 1.5-1.62.32-.787.46-1.807.42-3.06-.013-1.027-.153-1.827-.42-2.4-.253-.587-.593-1-1.02-1.24a2.665 2.665 0 0 0-1.42-.38c-.547 0-1.007.12-1.38.36a2.48 2.48 0 0 0-.88.9c-.2.373-.347.78-.44 1.22l-.46-.84c.24-1.013.673-1.747 1.3-2.2.64-.467 1.333-.7 2.08-.7.573 0 1.1.093 1.58.28.493.187.927.487 1.3.9.373.4.667.94.88 1.62.227.68.347 1.507.36 2.48.04 1.547-.18 2.813-.66 3.8-.48.987-1.193 1.673-2.14 2.06-.947.373-2.093.413-3.44.12zm-3.7-.04l1.48-7.78-1.54-3.32h1.58l1.42 3.38-1.4 7.72h-1.54zm-198.548 34.28l-.16-1.1c.547-.053.967-.173 1.26-.36.307-.187.52-.447.64-.78.12-.347.18-.767.18-1.26v-7.88h4.9c.667 0 1.247.12 1.74.36.507.24.9.633 1.18 1.18.294.547.44 1.273.44 2.18v7.38h-1.54v-7.44c0-.92-.2-1.553-.6-1.9-.387-.36-.907-.54-1.56-.54h-3.02v6.5c0 .787-.126 1.44-.38 1.96-.24.507-.613.9-1.12 1.18-.493.267-1.146.44-1.96.52zm17.63-.28v-7.54c0-.507.046-.953.14-1.34.093-.4.226-.733.4-1h-5.6v-1.22h8.56v1.22h-1.48c-.2.333-.334.72-.4 1.16-.067.427-.1.82-.1 1.18v7.54h-1.52zm6.143-4.2V213.869l-.26-2.34h1.52l.28 2.34v2.98l-.02 1.26-1.52.32zm7.752 4.24l.16-1.22c1.107.24 2 .213 2.68-.08.68-.293 1.18-.833 1.5-1.62.32-.787.46-1.807.42-3.06-.013-1.027-.153-1.827-.42-2.4-.253-.587-.593-1-1.02-1.24a2.663 2.663 0 0 0-1.42-.38c-.546 0-1.006.12-1.38.36a2.488 2.488 0 0 0-.88.9 4.6 4.6 0 0 0-.44 1.22l-.46-.84c.24-1.013.674-1.747 1.3-2.2.64-.467 1.334-.7 2.08-.7.574 0 1.1.093 1.58.28a3.32 3.32 0 0 1 1.3.9c.374.4.667.94.88 1.62.227.68.347 1.507.36 2.48.04 1.547-.18 2.813-.66 3.8-.48.987-1.193 1.673-2.14 2.06-.946.373-2.093.413-3.44.12zm-3.7-.04l1.48-7.78-1.54-3.32h1.58l1.42 3.38-1.4 7.72h-1.54zm16.534-4.2V213.869l-.26-2.34h1.52l.28 2.34v2.98l-.02 1.26-1.52.32zm10.972 4.2v-7.44c0-.92-.2-1.553-.6-1.9-.4-.36-.926-.54-1.58-.54h-4.66v-1.22h5c.667 0 1.254.12 1.76.36.507.24.9.633 1.18 1.18.28.547.42 1.273.42 2.18v7.38h-1.52zm-6.86 0v-5.4l.22-1.34h1.3v6.74h-1.52zm14.558.04l.16-1.22c1.107.24 2 .213 2.68-.08.68-.293 1.18-.833 1.5-1.62.32-.787.46-1.807.42-3.06-.013-1.027-.153-1.827-.42-2.4-.253-.587-.593-1-1.02-1.24a2.663 2.663 0 0 0-1.42-.38c-.546 0-1.006.12-1.38.36a2.488 2.488 0 0 0-.88.9 4.6 4.6 0 0 0-.44 1.22l-.46-.84c.24-1.013.674-1.747 1.3-2.2.64-.467 1.334-.7 2.08-.7.574 0 1.1.093 1.58.28a3.32 3.32 0 0 1 1.3.9c.374.4.667.94.88 1.62.227.68.347 1.507.36 2.48.04 1.547-.18 2.813-.66 3.8-.48.987-1.193 1.673-2.14 2.06-.946.373-2.093.413-3.44.12zm-3.7-.04l1.48-7.78-1.54-3.32h1.58l1.42 3.38-1.4 7.72h-1.54zm18.174-3.88c-.08-.627-.04-1.187.12-1.68.16-.493.38-.94.66-1.34.293-.4.593-.78.9-1.14.306-.373.566-.747.78-1.12.213-.373.32-.78.32-1.22 0-.373-.074-.713-.22-1.02a1.595 1.595 0 0 0-.68-.74c-.294-.187-.667-.28-1.12-.28-.44 0-.867.107-1.28.32-.4.2-.76.487-1.08.86l-.84-.78c.413-.467.9-.853 1.46-1.16.56-.307 1.193-.46 1.9-.46.666 0 1.246.133 1.74.4.493.253.873.62 1.14 1.1.28.467.42 1.02.42 1.66 0 .52-.114 1-.34 1.44-.214.427-.48.833-.8 1.22-.307.373-.607.76-.9 1.16a5.572 5.572 0 0 0-.72 1.26c-.174.453-.227.96-.16 1.52h-1.3zm.7 4.12c-.294 0-.554-.107-.78-.32-.214-.213-.32-.493-.32-.84 0-.36.106-.647.32-.86.226-.213.486-.32.78-.32.306 0 .566.107.78.32.213.213.32.5.32.86 0 .347-.107.627-.32.84-.214.213-.474.32-.78.32zm12.538-.24v-7.44c0-.92-.2-1.553-.6-1.9-.4-.36-.926-.54-1.58-.54h-4.66v-1.22h5c.667 0 1.254.12 1.76.36.507.24.9.633 1.18 1.18.28.547.42 1.273.42 2.18v7.38h-1.52zm-6.86 0v-5.4l.22-1.34h1.3v6.74h-1.52zm16.498 0v-7.44c0-.92-.2-1.553-.6-1.9-.386-.36-.906-.54-1.56-.54h-3.6v-1.22h3.94c.667 0 1.254.12 1.76.36.507.24.9.633 1.18 1.18.28.547.42 1.273.42 2.18v7.38h-1.54zm-5.76 0v-1.22h8.72v1.22h-8.72zm11.068-4.2V213.869l-.26-2.34h1.52l.28 2.34v2.98l-.02 1.26-1.52.32zm9.692 4.2v-7.44c0-.92-.2-1.553-.6-1.9-.386-.36-.906-.54-1.56-.54h-3.6v-1.22h3.94c.667 0 1.254.12 1.76.36.507.24.9.633 1.18 1.18.28.547.42 1.273.42 2.18v7.38h-1.54zm-5.76 0v-1.22h8.72v1.22h-8.72zm11.848.2l-1.22-10.08 1.44-.8 1.14 9.46a11.81 11.81 0 0 0 1.58-.26c.506-.133.973-.32 1.4-.56.44-.253.82-.573 1.14-.96.32-.387.56-.86.72-1.42.16-.573.22-1.253.18-2.04v-.48c0-.56-.094-1.06-.28-1.5a2.243 2.243 0 0 0-.8-1.04c-.36-.267-.807-.4-1.34-.4h-5.18l-.14-1.22h5.46c1.2 0 2.12.373 2.76 1.12.653.747 1 1.733 1.04 2.96l.02.6c.04 1.213-.14 2.24-.54 3.08a5.068 5.068 0 0 1-1.7 2c-.734.493-1.587.86-2.56 1.1-.974.24-2.014.387-3.12.44zm15.748-.2v-7.44c0-.92-.2-1.553-.6-1.9-.386-.36-.906-.54-1.56-.54h-3.6v-1.22h3.94c.667 0 1.254.12 1.76.36.507.24.9.633 1.18 1.18.28.547.42 1.273.42 2.18v7.38h-1.54zm-5.76 0v-1.22h8.72v1.22h-8.72zm14.112.28l-.16-1.1c.546-.053.966-.173 1.26-.36a1.48 1.48 0 0 0 .64-.78c.12-.347.18-.767.18-1.26v-7.88h4.9c.666 0 1.246.12 1.74.36.506.24.9.633 1.18 1.18.293.547.44 1.273.44 2.18v7.38h-1.54v-7.44c0-.92-.2-1.553-.6-1.9-.387-.36-.907-.54-1.56-.54h-3.02v6.5c0 .787-.127 1.44-.38 1.96-.24.507-.614.9-1.12 1.18-.494.267-1.147.44-1.96.52zm13.069-.28v-8.76l-.26-2.34h1.52l.28 2.34v8.76h-1.54zm6.113 0l3.86-9.88h-6.2v-1.22h7.74v1.3l-3.86 9.8h-1.54zm-2.34-9.88v-4.46h1.4v4.46h-1.4zm10.171 9.88v-1.22h3.26c.494 0 .947-.06 1.36-.18.414-.133.774-.34 1.08-.62.307-.293.547-.68.72-1.16.187-.48.28-1.073.28-1.78v-1.22c0-.813-.106-1.493-.32-2.04-.2-.547-.513-.96-.94-1.24-.413-.28-.933-.42-1.56-.42h-2.1l-.52 2.22c-.16.773-.146 1.367.04 1.78.2.4.68.673 1.44.82l-.32 1.06c-.786-.08-1.393-.28-1.82-.6a2.082 2.082 0 0 1-.78-1.28c-.106-.533-.086-1.16.06-1.88l.76-3.34h3.5c.854 0 1.58.187 2.18.56.614.373 1.087.927 1.42 1.66.334.733.5 1.647.5 2.74v1.12c0 .92-.126 1.7-.38 2.34-.24.64-.58 1.16-1.02 1.56a4.078 4.078 0 0 1-1.5.86c-.56.173-1.16.26-1.8.26h-3.54zm11.621.2l-1.34-11.3h1.54l1.16 9.88a8.434 8.434 0 0 0 1.96-.42 4.89 4.89 0 0 0 1.62-.98c.48-.427.846-.967 1.1-1.62.253-.667.36-1.467.32-2.4v-.5c0-.547-.094-1.02-.28-1.42a2.081 2.081 0 0 0-.84-.98c-.374-.253-.86-.4-1.46-.44l-.98-.06.1-1.24 1.12.08c.76.04 1.42.207 1.98.5.573.293 1.02.713 1.34 1.26.32.547.493 1.247.52 2.1l.02.56c.04 1.213-.134 2.253-.52 3.12a5.345 5.345 0 0 1-1.66 2.12c-.72.547-1.567.96-2.54 1.24-.974.28-2.027.447-3.16.5zm13.574-.16l.16-1.22c1.107.24 2 .213 2.68-.08.68-.293 1.18-.833 1.5-1.62.32-.787.46-1.807.42-3.06-.013-1.027-.153-1.827-.42-2.4-.253-.587-.593-1-1.02-1.24a2.663 2.663 0 0 0-1.42-.38c-.546 0-1.006.12-1.38.36a2.488 2.488 0 0 0-.88.9 4.6 4.6 0 0 0-.44 1.22l-.46-.84c.24-1.013.674-1.747 1.3-2.2.64-.467 1.334-.7 2.08-.7.574 0 1.1.093 1.58.28a3.32 3.32 0 0 1 1.3.9c.374.4.667.94.88 1.62.227.68.347 1.507.36 2.48.04 1.547-.18 2.813-.66 3.8-.48.987-1.193 1.673-2.14 2.06-.946.373-2.093.413-3.44.12zm-3.7-.04l1.48-7.78-1.54-3.32h1.58l1.42 3.38-1.4 7.72h-1.54zm12.53 0v-8.76l-.26-2.34h1.52l.28 2.34v8.76h-1.54zm-239.794 34v-7.44c0-.92-.2-1.553-.6-1.9-.387-.36-.907-.54-1.56-.54h-4.12v-1.22h4.46c.667 0 1.247.12 1.74.36.507.24.9.633 1.18 1.18.293.547.44 1.273.44 2.18v7.38h-1.54zm-6.8 0v-1.22h7.82l-.14 1.22h-7.68zm-.4 0v-11.1h1.54V256.629h-1.54zm11.662-4.2V247.869l-.26-2.34h1.52l.28 2.34v2.98l-.02 1.26-1.52.32zm7.952 4.2l-.76-4.18v-3.72c0-.627-.08-1.1-.24-1.42-.146-.333-.466-.533-.96-.6l-1.28-.2.22-1.2 1.66.26c.8.12 1.354.427 1.66.92.307.493.46 1.2.46 2.12v3.86l.72 4.16h-1.48zm-3.96.28l-.56-1.24c.92-.333 1.694-.773 2.32-1.32.64-.56 1.16-1.293 1.56-2.2l.5.98a7.092 7.092 0 0 1-.92 1.7c-.36.48-.78.893-1.26 1.24a7.317 7.317 0 0 1-1.64.84zm14.162-.28l-6.62-11.1h1.58l6.62 11.1h-1.58zm-7.02 0v-1.22h7.58l.46 1.22h-8.04zm5.56-4.64l-.86-1.36 2.18-5.1h1.56l-2.88 6.46zm5.532 4.64v-8.76l-.26-2.34h1.52l.28 2.34v8.76h-1.54zm7.753.04l.16-1.22c1.106.24 2 .213 2.68-.08.68-.293 1.18-.833 1.5-1.62.32-.787.46-1.807.42-3.06-.014-1.027-.153-1.827-.42-2.4-.254-.587-.594-1-1.02-1.24a2.665 2.665 0 0 0-1.42-.38c-.547 0-1.007.12-1.38.36a2.48 2.48 0 0 0-.88.9c-.2.373-.347.78-.44 1.22l-.46-.84c.24-1.013.673-1.747 1.3-2.2.64-.467 1.333-.7 2.08-.7.573 0 1.1.093 1.58.28.493.187.927.487 1.3.9.373.4.666.94.88 1.62.227.68.346 1.507.36 2.48.04 1.547-.18 2.813-.66 3.8-.48.987-1.194 1.673-2.14 2.06-.947.373-2.093.413-3.44.12zm-3.7-.04l1.48-7.78-1.54-3.32h1.58l1.42 3.38-1.4 7.72h-1.54zm19.03 0v-7.44c0-.92-.2-1.553-.6-1.9-.4-.36-.927-.54-1.58-.54h-4.66v-1.22h5c.666 0 1.253.12 1.76.36.506.24.9.633 1.18 1.18.28.547.42 1.273.42 2.18v7.38h-1.52zm-6.86 0v-5.4l.22-1.34h1.3v6.74h-1.52zm21.781 0v-7.44c0-.92-.2-1.553-.6-1.9-.4-.36-.927-.54-1.58-.54h-4.66v-1.22h5c.667 0 1.253.12 1.76.36.507.24.9.633 1.18 1.18.28.547.42 1.273.42 2.18v7.38h-1.52zm-6.86 0v-5.4l.22-1.34h1.3v6.74h-1.52zm12.918 0l3.86-9.88h-6.2v-1.22h7.74v1.3l-3.86 9.8h-1.54zm-2.34-9.88v-4.46h1.4v4.46h-1.4zm10.212 9.88v-8.76l-.26-2.34h1.52l.28 2.34v8.76h-1.54zm3.652.58l-.22-1.24 3.56-.68c.787-.147 1.427-.367 1.92-.66a3.02 3.02 0 0 0 1.16-1.16c.28-.48.48-1.08.6-1.8.134-.72.214-1.587.24-2.6.027-1.013.04-2.193.04-3.54h1.52a79.5 79.5 0 0 1-.08 3.82c-.053 1.107-.173 2.073-.36 2.9-.186.813-.48 1.5-.88 2.06-.386.56-.92 1.027-1.6 1.4-.666.36-1.513.64-2.54.84l-3.36.66zm3.36-1.8l-2.62-9.88h1.54l2.58 9.88h-1.5zm8.045 1.22v-1.22h3.26c.494 0 .947-.06 1.36-.18.414-.133.774-.34 1.08-.62.307-.293.547-.68.72-1.16.187-.48.28-1.073.28-1.78v-1.22c0-.813-.106-1.493-.32-2.04-.2-.547-.513-.96-.94-1.24-.413-.28-.933-.42-1.56-.42h-2.1l-.52 2.22c-.16.773-.146 1.367.04 1.78.2.4.68.673 1.44.82l-.32 1.06c-.786-.08-1.393-.28-1.82-.6a2.082 2.082 0 0 1-.78-1.28c-.106-.533-.086-1.16.06-1.88l.76-3.34h3.5c.854 0 1.58.187 2.18.56.614.373 1.087.927 1.42 1.66.334.733.5 1.647.5 2.74v1.12c0 .92-.126 1.7-.38 2.34-.24.64-.58 1.16-1.02 1.56a4.078 4.078 0 0 1-1.5.86c-.56.173-1.16.26-1.8.26h-3.54zm17.361 0v-7.44c0-.92-.2-1.553-.6-1.9-.4-.36-.927-.54-1.58-.54h-4.66v-1.22h5c.666 0 1.253.12 1.76.36.506.24.9.633 1.18 1.18.28.547.42 1.273.42 2.18v7.38h-1.52zm-6.86 0v-5.4l.22-1.34h1.3v6.74h-1.52zm19.282-11.1c.853 0 1.573.187 2.16.56.6.373 1.053.927 1.36 1.66.32.733.48 1.647.48 2.74v10.14h-1.54v-10.18c0-.813-.1-1.493-.3-2.04-.187-.547-.487-.96-.9-1.24-.414-.28-.94-.42-1.58-.42h-2.12l-.36 1.84c-.094.52-.134.967-.12 1.34.026.373.126.68.3.92.186.24.46.407.82.5l-.38 1c-.494-.08-.9-.22-1.22-.42a2.114 2.114 0 0 1-.7-.8 2.658 2.658 0 0 1-.26-1.12 6.67 6.67 0 0 1 .14-1.48l.64-3h3.58zm6.937 11.1v-8.76l-.26-2.34h1.52l.28 2.34v8.76h-1.54zm3.513.28l-.16-1.1c.546-.053.966-.173 1.26-.36a1.48 1.48 0 0 0 .64-.78c.12-.347.18-.767.18-1.26v-7.88h4.9c.666 0 1.246.12 1.74.36.506.24.9.633 1.18 1.18.293.547.44 1.273.44 2.18v7.38h-1.54v-7.44c0-.92-.2-1.553-.6-1.9-.387-.36-.907-.54-1.56-.54h-3.02v6.5c0 .787-.127 1.44-.38 1.96-.24.507-.614.9-1.12 1.18-.494.267-1.147.44-1.96.52zm13.069-4.48V247.869l-.26-2.34h1.52l.28 2.34v2.98l-.02 1.26-1.52.32zm5.293 4.4l-1.4-11.3h1.48l1.2 9.96c1.04-.067 1.953-.253 2.74-.56.787-.32 1.447-.76 1.98-1.32.547-.573.953-1.287 1.22-2.14.267-.867.393-1.873.38-3.02l-.02-2.92h1.54l.02 2.86c.013 1.893-.32 3.46-1 4.7-.667 1.24-1.68 2.173-3.04 2.8-1.36.613-3.06.927-5.1.94zm.62-4.32l-.36-1.08c.707-.333 1.267-.687 1.68-1.06.427-.373.733-.847.92-1.42.187-.573.287-1.307.3-2.2l.02-1.18h1.48l-.02 1.16c-.013 1-.153 1.86-.42 2.58a4.43 4.43 0 0 1-1.28 1.84c-.573.507-1.347.96-2.32 1.36zm11.158 4.12v-8.76l-.26-2.34h1.52l.28 2.34v8.76h-1.54zm7.516.28l-.16-1.1c.547-.053.967-.173 1.26-.36.307-.187.52-.447.64-.78.12-.347.18-.767.18-1.26v-7.88h4.9c.667 0 1.247.12 1.74.36.507.24.9.633 1.18 1.18.293.547.44 1.273.44 2.18v7.38h-1.54v-7.44c0-.92-.2-1.553-.6-1.9-.387-.36-.907-.54-1.56-.54h-3.02v6.5c0 .787-.127 1.44-.38 1.96-.24.507-.613.9-1.12 1.18-.493.267-1.147.44-1.96.52zm13.069-.28v-8.76l-.26-2.34h1.52l.28 2.34v8.76h-1.54zm13.413 0h-1.68l-4.56-6.82-2.14 6.82h-1.46l2.18-6.88.54-1.32-1.84-2.9h1.58l1.78 2.8 1.88 2.8.46-1.68 1.2-3.92h1.48l-2.24 6.94 2.82 4.16zm5.532.04l.16-1.22c1.106.24 2 .213 2.68-.08.68-.293 1.18-.833 1.5-1.62.32-.787.46-1.807.42-3.06-.014-1.027-.154-1.827-.42-2.4-.254-.587-.594-1-1.02-1.24a2.668 2.668 0 0 0-1.42-.38c-.547 0-1.007.12-1.38.36a2.472 2.472 0 0 0-.88.9c-.2.373-.347.78-.44 1.22l-.46-.84c.24-1.013.673-1.747 1.3-2.2.64-.467 1.333-.7 2.08-.7.573 0 1.1.093 1.58.28.493.187.926.487 1.3.9.373.4.666.94.88 1.62.226.68.346 1.507.36 2.48.04 1.547-.18 2.813-.66 3.8-.48.987-1.194 1.673-2.14 2.06-.947.373-2.094.413-3.44.12zm-3.7-.04l1.48-7.78-1.54-3.32h1.58l1.42 3.38-1.4 7.72h-1.54zm18.769 0l-6.62-11.1h1.58l6.62 11.1h-1.58zm-7.02 0v-1.22h7.58l.46 1.22h-8.04zm5.56-4.64l-.86-1.36 2.18-5.1h1.56l-2.88 6.46zm4.712 5.22l-.22-1.24 3.56-.68c.787-.147 1.427-.367 1.92-.66a3.02 3.02 0 0 0 1.16-1.16c.28-.48.48-1.08.6-1.8.134-.72.214-1.587.24-2.6.027-1.013.04-2.193.04-3.54h1.52a79.5 79.5 0 0 1-.08 3.82c-.053 1.107-.173 2.073-.36 2.9-.186.813-.48 1.5-.88 2.06-.386.56-.92 1.027-1.6 1.4-.666.36-1.513.64-2.54.84l-3.36.66zm3.36-1.8l-2.62-9.88h1.54l2.58 9.88h-1.5zm14.585 1.22v-7.44c0-.92-.2-1.553-.6-1.9-.4-.36-.926-.54-1.58-.54h-4.66v-1.22h5c.667 0 1.254.12 1.76.36.507.24.9.633 1.18 1.18.28.547.42 1.273.42 2.18v7.38h-1.52zm-6.86 0v-5.4l.22-1.34h1.3v6.74h-1.52zm-215.312 34l-.16-1.22c.454-.053.88-.147 1.28-.28.414-.147.78-.373 1.1-.68.32-.32.58-.76.78-1.32.214-.573.354-1.3.42-2.18l.34-4.2h-7.2v-1.22h8.84l-.06 1.1-.32 4.02c-.053.987-.213 1.853-.48 2.6-.253.733-.6 1.347-1.04 1.84-.426.493-.94.867-1.54 1.12a5.422 5.422 0 0 1-1.96.42zm-3.4 4v-9.68l.22-1.36h1.32v11.04h-1.54zm18.177-4v-7.16c0-1.813-.72-2.72-2.16-2.72h-4.94v-1.22h5.28c.693 0 1.293.147 1.8.44.507.28.893.72 1.16 1.32.267.587.4 1.333.4 2.24v7.1h-1.54zm-7.1 0v-10.58h1.54v10.58h-1.54zm12.39.2l-1.4-11.3h1.48l1.2 9.96c1.04-.067 1.953-.253 2.74-.56.786-.32 1.446-.76 1.98-1.32.546-.573.953-1.287 1.22-2.14.266-.867.393-1.873.38-3.02l-.02-2.92h1.54l.02 2.86c.013 1.893-.32 3.46-1 4.7-.667 1.24-1.68 2.173-3.04 2.8-1.36.613-3.06.927-5.1.94zm.62-4.32l-.36-1.08c.706-.333 1.266-.687 1.68-1.06.426-.373.733-.847.92-1.42.186-.573.286-1.307.3-2.2l.02-1.18h1.48l-.02 1.16c-.014 1-.154 1.86-.42 2.58a4.43 4.43 0 0 1-1.28 1.84c-.574.507-1.347.96-2.32 1.36zm14.437 4.16l.16-1.22c1.107.24 2 .213 2.68-.08.68-.293 1.18-.833 1.5-1.62.32-.787.46-1.807.42-3.06-.013-1.027-.153-1.827-.42-2.4-.253-.587-.593-1-1.02-1.24a2.665 2.665 0 0 0-1.42-.38c-.546 0-1.006.12-1.38.36a2.48 2.48 0 0 0-.88.9c-.2.373-.346.78-.44 1.22l-.46-.84c.24-1.013.674-1.747 1.3-2.2.64-.467 1.334-.7 2.08-.7.574 0 1.1.093 1.58.28.494.187.927.487 1.3.9.374.4.667.94.88 1.62.227.68.347 1.507.36 2.48.04 1.547-.18 2.813-.66 3.8-.48.987-1.193 1.673-2.14 2.06-.946.373-2.093.413-3.44.12zm-3.7-.04l1.48-7.78-1.54-3.32h1.58l1.42 3.38-1.4 7.72h-1.54zm20.014 0l-.76-4.18v-3.72c0-.627-.08-1.1-.24-1.42-.147-.333-.467-.533-.96-.6l-1.28-.2.22-1.2 1.66.26c.8.12 1.353.427 1.66.92.306.493.46 1.2.46 2.12v3.86l.72 4.16h-1.48zm-3.96.28l-.56-1.24c.92-.333 1.693-.773 2.32-1.32.64-.56 1.16-1.293 1.56-2.2l.5.98a7.116 7.116 0 0 1-.92 1.7c-.36.48-.78.893-1.26 1.24a7.326 7.326 0 0 1-1.64.84zm7.921-.28v-8.76l-.26-2.34h1.52l.28 2.34v8.76h-1.54zm5.253.2l-1.22-10.08 1.44-.8 1.14 9.46a11.81 11.81 0 0 0 1.58-.26c.506-.133.973-.32 1.4-.56.44-.253.82-.573 1.14-.96.32-.387.56-.86.72-1.42.16-.573.22-1.253.18-2.04v-.48c0-.56-.094-1.06-.28-1.5a2.243 2.243 0 0 0-.8-1.04c-.36-.267-.807-.4-1.34-.4h-5.18l-.14-1.22h5.46c1.2 0 2.12.373 2.76 1.12.653.747 1 1.733 1.04 2.96l.02.6c.04 1.213-.14 2.24-.54 3.08a5.068 5.068 0 0 1-1.7 2c-.734.493-1.587.86-2.56 1.1-.974.24-2.014.387-3.12.44zm21.032-.2v-7.44c0-.92-.2-1.553-.6-1.9-.4-.36-.927-.54-1.58-.54h-4.66v-1.22h5c.667 0 1.253.12 1.76.36.507.24.9.633 1.18 1.18.28.547.42 1.273.42 2.18v7.38h-1.52zm-6.86 0v-5.4l.22-1.34h1.3v6.74h-1.52zm12.258 0v-7.54c0-.507.047-.953.14-1.34.107-.4.247-.733.42-1h-2v-1.22h5.02v1.22h-1.58a2.9 2.9 0 0 0-.38 1.16c-.053.427-.08.82-.08 1.18v7.54h-1.54zm6.247-4.2V281.869l-.26-2.34h1.52l.28 2.34v2.98l-.02 1.26-1.52.32zm13.412 4.2h-1.68l-4.56-6.82-2.14 6.82h-1.46l2.18-6.88.54-1.32-1.84-2.9h1.58l1.78 2.8 1.88 2.8.46-1.68 1.2-3.92h1.48l-2.24 6.94 2.82 4.16zm7.896 0l3.86-9.88h-6.2v-1.22h7.74v1.3l-3.86 9.8h-1.54zm-2.34-9.88v-4.46h1.4v4.46h-1.4zm11.031 10.08l-1.4-11.3h1.48l1.2 9.96c1.04-.067 1.954-.253 2.74-.56.787-.32 1.447-.76 1.98-1.32.547-.573.954-1.287 1.22-2.14.267-.867.394-1.873.38-3.02l-.02-2.92h1.54l.02 2.86c.014 1.893-.32 3.46-1 4.7-.666 1.24-1.68 2.173-3.04 2.8-1.36.613-3.06.927-5.1.94zm.62-4.32l-.36-1.08c.707-.333 1.267-.687 1.68-1.06.427-.373.734-.847.92-1.42.187-.573.287-1.307.3-2.2l.02-1.18h1.48l-.02 1.16c-.013 1-.153 1.86-.42 2.58a4.42 4.42 0 0 1-1.28 1.84c-.573.507-1.346.96-2.32 1.36zm14.438 4.16l.16-1.22c1.107.24 2 .213 2.68-.08.68-.293 1.18-.833 1.5-1.62.32-.787.46-1.807.42-3.06-.013-1.027-.153-1.827-.42-2.4-.253-.587-.593-1-1.02-1.24a2.665 2.665 0 0 0-1.42-.38c-.547 0-1.007.12-1.38.36a2.48 2.48 0 0 0-.88.9c-.2.373-.347.78-.44 1.22l-.46-.84c.24-1.013.673-1.747 1.3-2.2.64-.467 1.333-.7 2.08-.7.573 0 1.1.093 1.58.28.493.187.927.487 1.3.9.373.4.667.94.88 1.62.227.68.347 1.507.36 2.48.04 1.547-.18 2.813-.66 3.8-.48.987-1.193 1.673-2.14 2.06-.947.373-2.093.413-3.44.12zm-3.7-.04l1.48-7.78-1.54-3.32h1.58l1.42 3.38-1.4 7.72h-1.54zm14.169 0l3.86-9.88h-6.2v-1.22h7.74v1.3l-3.86 9.8h-1.54zm-2.34-9.88v-4.46h1.4v4.46h-1.4zm15.856 6c-.08-.627-.04-1.187.12-1.68.16-.493.38-.94.66-1.34.293-.4.593-.78.9-1.14.307-.373.567-.747.78-1.12.213-.373.32-.78.32-1.22 0-.373-.073-.713-.22-1.02a1.59 1.59 0 0 0-.68-.74c-.293-.187-.667-.28-1.12-.28-.44 0-.867.107-1.28.32-.4.2-.76.487-1.08.86l-.84-.78c.413-.467.9-.853 1.46-1.16.56-.307 1.193-.46 1.9-.46.667 0 1.247.133 1.74.4.493.253.873.62 1.14 1.1.28.467.42 1.02.42 1.66 0 .52-.113 1-.34 1.44-.213.427-.48.833-.8 1.22-.307.373-.607.76-.9 1.16a5.65 5.65 0 0 0-.72 1.26c-.173.453-.227.96-.16 1.52h-1.3zm.7 4.12c-.293 0-.553-.107-.78-.32-.213-.213-.32-.493-.32-.84 0-.36.107-.647.32-.86.227-.213.487-.32.78-.32.307 0 .567.107.78.32.213.213.32.5.32.86 0 .347-.107.627-.32.84-.213.213-.473.32-.78.32zm9.039-.24l-.16-1.22a6.41 6.41 0 0 0 1.28-.28c.413-.147.78-.373 1.1-.68.32-.32.58-.76.78-1.32.213-.573.353-1.3.42-2.18l.34-4.2h-7.2v-1.22h8.84l-.06 1.1-.32 4.02c-.053.987-.213 1.853-.48 2.6-.253.733-.6 1.347-1.04 1.84a4.14 4.14 0 0 1-1.54 1.12 5.424 5.424 0 0 1-1.96.42zm-3.4 4v-9.68l.22-1.36h1.32v11.04h-1.54zm18.176-4v-7.16c0-1.813-.72-2.72-2.16-2.72h-4.94v-1.22h5.28c.694 0 1.294.147 1.8.44.507.28.894.72 1.16 1.32.267.587.4 1.333.4 2.24v7.1h-1.54zm-7.1 0v-10.58h1.54v10.58h-1.54zm12.39.2l-1.4-11.3h1.48l1.2 9.96c1.04-.067 1.953-.253 2.74-.56.787-.32 1.447-.76 1.98-1.32.547-.573.953-1.287 1.22-2.14.267-.867.393-1.873.38-3.02l-.02-2.92h1.54l.02 2.86c.013 1.893-.32 3.46-1 4.7-.667 1.24-1.68 2.173-3.04 2.8-1.36.613-3.06.927-5.1.94zm.62-4.32l-.36-1.08c.707-.333 1.267-.687 1.68-1.06.427-.373.733-.847.92-1.42.187-.573.287-1.307.3-2.2l.02-1.18h1.48l-.02 1.16c-.013 1-.153 1.86-.42 2.58a4.43 4.43 0 0 1-1.28 1.84c-.573.507-1.347.96-2.32 1.36zm14.438 4.16l.16-1.22c1.106.24 2 .213 2.68-.08.68-.293 1.18-.833 1.5-1.62.32-.787.46-1.807.42-3.06-.014-1.027-.154-1.827-.42-2.4-.254-.587-.594-1-1.02-1.24a2.668 2.668 0 0 0-1.42-.38c-.547 0-1.007.12-1.38.36a2.472 2.472 0 0 0-.88.9c-.2.373-.347.78-.44 1.22l-.46-.84c.24-1.013.673-1.747 1.3-2.2.64-.467 1.333-.7 2.08-.7.573 0 1.1.093 1.58.28.493.187.926.487 1.3.9.373.4.666.94.88 1.62.226.68.346 1.507.36 2.48.04 1.547-.18 2.813-.66 3.8-.48.987-1.194 1.673-2.14 2.06-.947.373-2.094.413-3.44.12zm-3.7-.04l1.48-7.78-1.54-3.32h1.58l1.42 3.38-1.4 7.72h-1.54zm17.749 0v-7.44c0-.92-.2-1.553-.6-1.9-.387-.36-.907-.54-1.56-.54h-3.6v-1.22h3.94c.667 0 1.253.12 1.76.36.507.24.9.633 1.18 1.18.28.547.42 1.273.42 2.18v7.38h-1.54zm-5.76 0v-1.22h8.72v1.22h-8.72zm-232.296 34v-7.44c0-.92-.2-1.553-.6-1.9-.4-.36-.927-.54-1.58-.54h-4.66v-1.22h5c.667 0 1.253.12 1.76.36.507.24.9.633 1.18 1.18.28.547.42 1.273.42 2.18v7.38h-1.52zm-6.86 0v-5.4l.22-1.34h1.3v6.74h-1.52zm14.558.04l.16-1.22c1.107.24 2 .213 2.68-.08.68-.293 1.18-.833 1.5-1.62.32-.787.46-1.807.42-3.06-.013-1.027-.153-1.827-.42-2.4-.253-.587-.593-1-1.02-1.24a2.665 2.665 0 0 0-1.42-.38c-.547 0-1.007.12-1.38.36a2.481 2.481 0 0 0-.88.9c-.2.373-.347.78-.44 1.22l-.46-.84c.24-1.013.673-1.747 1.3-2.2.64-.467 1.333-.7 2.08-.7.573 0 1.1.093 1.58.28.493.187.927.487 1.3.9.373.4.667.94.88 1.62.227.68.347 1.507.36 2.48.04 1.547-.18 2.813-.66 3.8-.48.987-1.193 1.673-2.14 2.06-.947.373-2.093.413-3.44.12zm-3.7-.04l1.48-7.78-1.54-3.32h1.58l1.42 3.38-1.4 7.72h-1.54zm15.81.04l.16-1.22c1.106.24 2 .213 2.68-.08.68-.293 1.18-.833 1.5-1.62.32-.787.46-1.807.42-3.06-.014-1.027-.154-1.827-.42-2.4-.254-.587-.594-1-1.02-1.24a2.665 2.665 0 0 0-1.42-.38c-.547 0-1.007.12-1.38.36a2.48 2.48 0 0 0-.88.9c-.2.373-.347.78-.44 1.22l-.46-.84c.24-1.013.673-1.747 1.3-2.2.64-.467 1.333-.7 2.08-.7.573 0 1.1.093 1.58.28.493.187.926.487 1.3.9.373.4.666.94.88 1.62.226.68.346 1.507.36 2.48.04 1.547-.18 2.813-.66 3.8-.48.987-1.194 1.673-2.14 2.06-.947.373-2.094.413-3.44.12zm-3.7-.04l1.48-7.78-1.54-3.32h1.58l1.42 3.38-1.4 7.72h-1.54zm18.173-3.88c-.08-.627-.04-1.187.12-1.68.16-.493.38-.94.66-1.34.293-.4.593-.78.9-1.14.306-.373.566-.747.78-1.12.213-.373.32-.78.32-1.22 0-.373-.074-.713-.22-1.02a1.59 1.59 0 0 0-.68-.74c-.294-.187-.667-.28-1.12-.28-.44 0-.867.107-1.28.32-.4.2-.76.487-1.08.86l-.84-.78c.413-.467.9-.853 1.46-1.16.56-.307 1.193-.46 1.9-.46.666 0 1.246.133 1.74.4.493.253.873.62 1.14 1.1.28.467.42 1.02.42 1.66 0 .52-.114 1-.34 1.44-.214.427-.48.833-.8 1.22-.307.373-.607.76-.9 1.16a5.626 5.626 0 0 0-.72 1.26c-.174.453-.227.96-.16 1.52h-1.3zm.7 4.12c-.294 0-.554-.107-.78-.32-.214-.213-.32-.493-.32-.84 0-.36.106-.647.32-.86.226-.213.486-.32.78-.32.306 0 .566.107.78.32.213.213.32.5.32.86 0 .347-.107.627-.32.84-.214.213-.474.32-.78.32zm6.039 3.76v-12.76l-.26-2.34h1.52l.28 2.34v12.76h-1.54zm3.872-4v-1.22h3.48v-6.66c0-.68-.14-1.167-.42-1.46-.266-.307-.646-.5-1.14-.58l-1.34-.2.22-1.2 1.74.26c.8.12 1.414.447 1.84.98.427.52.64 1.24.64 2.16v7.92h-5.02zm7.964 0v-8.76l-.26-2.34h1.52l.28 2.34v8.76h-1.54zm9.692 0v-7.44c0-.92-.2-1.553-.6-1.9-.386-.36-.906-.54-1.56-.54h-3.6v-1.22h3.94c.667 0 1.254.12 1.76.36.507.24.9.633 1.18 1.18.28.547.42 1.273.42 2.18v7.38h-1.54zm-5.76 0v-1.22h8.72v1.22h-8.72zm10.108.28l-.16-1.1c.546-.053.966-.173 1.26-.36a1.48 1.48 0 0 0 .64-.78c.12-.347.18-.767.18-1.26v-7.88h4.9c.666 0 1.246.12 1.74.36.506.24.9.633 1.18 1.18.293.547.44 1.273.44 2.18v7.38h-1.54v-7.44c0-.92-.2-1.553-.6-1.9-.387-.36-.907-.54-1.56-.54h-3.02v6.5c0 .787-.127 1.44-.38 1.96-.24.507-.614.9-1.12 1.18-.494.267-1.147.44-1.96.52zm16.349-.24l.16-1.22c1.107.24 2 .213 2.68-.08.68-.293 1.18-.833 1.5-1.62.32-.787.46-1.807.42-3.06-.013-1.027-.153-1.827-.42-2.4-.253-.587-.593-1-1.02-1.24a2.665 2.665 0 0 0-1.42-.38c-.547 0-1.007.12-1.38.36a2.48 2.48 0 0 0-.88.9c-.2.373-.347.78-.44 1.22l-.46-.84c.24-1.013.673-1.747 1.3-2.2.64-.467 1.333-.7 2.08-.7.573 0 1.1.093 1.58.28.493.187.927.487 1.3.9.373.4.667.94.88 1.62.227.68.347 1.507.36 2.48.04 1.547-.18 2.813-.66 3.8-.48.987-1.193 1.673-2.14 2.06-.947.373-2.093.413-3.44.12zm-3.7-.04l1.48-7.78-1.54-3.32h1.58l1.42 3.38-1.4 7.72h-1.54zm15.173 3.2l5.54-17.4h1.08l-5.54 17.4h-1.08zm12.951-3.2v-7.54c0-.507.047-.953.14-1.34.094-.4.227-.733.4-1h-5.6v-1.22h8.56v1.22h-1.48c-.2.333-.333.72-.4 1.16-.066.427-.1.82-.1 1.18v7.54h-1.52zm11.364 0v-7.44c0-.92-.2-1.553-.6-1.9-.387-.36-.907-.54-1.56-.54h-3.6v-1.22h3.94c.666 0 1.253.12 1.76.36.506.24.9.633 1.18 1.18.28.547.42 1.273.42 2.18v7.38h-1.54zm-5.76 0v-1.22h8.72v1.22h-8.72zm12.707 0l3.86-9.88h-6.2v-1.22h7.74v1.3l-3.86 9.8h-1.54zm-2.34-9.88v-4.46h1.4v4.46h-1.4zm15.856 6c-.08-.627-.04-1.187.12-1.68.16-.493.38-.94.66-1.34.293-.4.593-.78.9-1.14.306-.373.566-.747.78-1.12.213-.373.32-.78.32-1.22 0-.373-.074-.713-.22-1.02a1.595 1.595 0 0 0-.68-.74c-.294-.187-.667-.28-1.12-.28-.44 0-.867.107-1.28.32-.4.2-.76.487-1.08.86l-.84-.78c.413-.467.9-.853 1.46-1.16.56-.307 1.193-.46 1.9-.46.666 0 1.246.133 1.74.4.493.253.873.62 1.14 1.1.28.467.42 1.02.42 1.66 0 .52-.114 1-.34 1.44-.214.427-.48.833-.8 1.22-.307.373-.607.76-.9 1.16a5.572 5.572 0 0 0-.72 1.26c-.174.453-.227.96-.16 1.52h-1.3zm.7 4.12c-.294 0-.554-.107-.78-.32-.214-.213-.32-.493-.32-.84 0-.36.106-.647.32-.86.226-.213.486-.32.78-.32.306 0 .566.107.78.32.213.213.32.5.32.86 0 .347-.107.627-.32.84-.214.213-.474.32-.78.32zm5.298-4.68v-1.14h4.54v1.14h-4.54zm13.393 4.44v-7.44c0-.92-.2-1.553-.6-1.9-.4-.36-.927-.54-1.58-.54h-4.66v-1.22h5c.666 0 1.253.12 1.76.36.506.24.9.633 1.18 1.18.28.547.42 1.273.42 2.18v7.38h-1.52zm-6.86 0v-5.4l.22-1.34h1.3v6.74h-1.52zm11.238 0v-1.22h3.26c.493 0 .946-.06 1.36-.18.413-.133.773-.34 1.08-.62.306-.293.546-.68.72-1.16.186-.48.28-1.073.28-1.78v-1.22c0-.813-.107-1.493-.32-2.04-.2-.547-.514-.96-.94-1.24-.414-.28-.934-.42-1.56-.42h-2.1l-.52 2.22c-.16.773-.147 1.367.04 1.78.2.4.68.673 1.44.82l-.32 1.06c-.787-.08-1.394-.28-1.82-.6a2.073 2.073 0 0 1-.78-1.28c-.107-.533-.087-1.16.06-1.88l.76-3.34h3.5c.853 0 1.58.187 2.18.56.613.373 1.086.927 1.42 1.66.333.733.5 1.647.5 2.74v1.12c0 .92-.127 1.7-.38 2.34-.24.64-.58 1.16-1.02 1.56a4.095 4.095 0 0 1-1.5.86c-.56.173-1.16.26-1.8.26h-3.54zm17.1 0l-6.62-11.1h1.58l6.62 11.1h-1.58zm-7.02 0v-1.22h7.58l.46 1.22h-8.04zm5.56-4.64l-.86-1.36 2.18-5.1h1.56l-2.88 6.46zm4.933 4.64v-1.22h3.48v-6.66c0-.68-.14-1.167-.42-1.46-.267-.307-.647-.5-1.14-.58l-1.34-.2.22-1.2 1.74.26c.8.12 1.413.447 1.84.98.426.52.64 1.24.64 2.16v7.92h-5.02zm11.967-4.2V315.869l-.26-2.34h1.52l.28 2.34v2.98l-.02 1.26-1.52.32zm3.259 4.48l-.16-1.1c.546-.053.966-.173 1.26-.36a1.48 1.48 0 0 0 .64-.78c.12-.347.18-.767.18-1.26v-7.88h4.9c.666 0 1.246.12 1.74.36.506.24.9.633 1.18 1.18.293.547.44 1.273.44 2.18v7.38h-1.54v-7.44c0-.92-.2-1.553-.6-1.9-.387-.36-.907-.54-1.56-.54h-3.02v6.5c0 .787-.127 1.44-.38 1.96-.24.507-.614.9-1.12 1.18-.494.267-1.147.44-1.96.52zm18.029-.28v-7.44c0-.92-.2-1.553-.6-1.9-.387-.36-.907-.54-1.56-.54h-3.54v-1.22h3.88c.667 0 1.247.12 1.74.36.507.24.9.633 1.18 1.18.293.547.44 1.273.44 2.18v7.38h-1.54zm9.693 0v-7.44c0-.92-.2-1.553-.6-1.9-.386-.36-.906-.54-1.56-.54h-3.6v-1.22h3.94c.667 0 1.254.12 1.76.36.507.24.9.633 1.18 1.18.28.547.42 1.273.42 2.18v7.38h-1.54zm-5.76 0v-1.22h8.72v1.22h-8.72zm17.868 0v-7.16c0-1.813-.72-2.72-2.16-2.72h-4.94v-1.22h5.28c.693 0 1.293.147 1.8.44.506.28.893.72 1.16 1.32.266.587.4 1.333.4 2.24v7.1h-1.54zm-7.1 0v-10.58h1.54v10.58h-1.54zm-198.47 34.2l-1.4-11.3h1.48l1.2 9.96c1.04-.067 1.953-.253 2.74-.56.787-.32 1.447-.76 1.98-1.32.547-.573.953-1.287 1.22-2.14.267-.867.393-1.873.38-3.02l-.02-2.92h1.54l.02 2.86c.013 1.893-.32 3.46-1 4.7-.667 1.24-1.68 2.173-3.04 2.8-1.36.613-3.06.927-5.1.94zm.62-4.32l-.36-1.08c.707-.333 1.267-.687 1.68-1.06.427-.373.733-.847.92-1.42.187-.573.287-1.307.3-2.2l.02-1.18h1.48l-.02 1.16c-.013 1-.153 1.86-.42 2.58a4.43 4.43 0 0 1-1.28 1.84c-.573.507-1.347.96-2.32 1.36zm14.438 4.16l.16-1.22c1.106.24 2 .213 2.68-.08.68-.293 1.18-.833 1.5-1.62.32-.787.46-1.807.42-3.06-.014-1.027-.154-1.827-.42-2.4-.254-.587-.594-1-1.02-1.24a2.665 2.665 0 0 0-1.42-.38c-.547 0-1.007.12-1.38.36a2.481 2.481 0 0 0-.88.9c-.2.373-.347.78-.44 1.22l-.46-.84c.24-1.013.673-1.747 1.3-2.2.64-.467 1.333-.7 2.08-.7.573 0 1.1.093 1.58.28.493.187.926.487 1.3.9.373.4.666.94.88 1.62.226.68.346 1.507.36 2.48.04 1.547-.18 2.813-.66 3.8-.48.987-1.194 1.673-2.14 2.06-.947.373-2.094.413-3.44.12zm-3.7-.04l1.48-7.78-1.54-3.32h1.58l1.42 3.38-1.4 7.72h-1.54zm11.569.28l-.16-1.1c.547-.053.967-.173 1.26-.36.307-.187.52-.447.64-.78.12-.347.18-.767.18-1.26v-7.88h4.9c.667 0 1.247.12 1.74.36.507.24.9.633 1.18 1.18.293.547.44 1.273.44 2.18v7.38h-1.54v-7.44c0-.92-.2-1.553-.6-1.9-.387-.36-.907-.54-1.56-.54h-3.02v6.5c0 .787-.127 1.44-.38 1.96-.24.507-.613.9-1.12 1.18-.493.267-1.147.44-1.96.52zm13.889-.08l-1.4-11.3h1.48l1.2 9.96c1.04-.067 1.954-.253 2.74-.56.787-.32 1.447-.76 1.98-1.32.547-.573.954-1.287 1.22-2.14.267-.867.394-1.873.38-3.02l-.02-2.92h1.54l.02 2.86c.014 1.893-.32 3.46-1 4.7-.666 1.24-1.68 2.173-3.04 2.8-1.36.613-3.06.927-5.1.94zm.62-4.32l-.36-1.08c.707-.333 1.267-.687 1.68-1.06.427-.373.734-.847.92-1.42.187-.573.287-1.307.3-2.2l.02-1.18h1.48l-.02 1.16c-.013 1-.153 1.86-.42 2.58a4.42 4.42 0 0 1-1.28 1.84c-.573.507-1.346.96-2.32 1.36zm14.438 4.16l.16-1.22c1.107.24 2 .213 2.68-.08.68-.293 1.18-.833 1.5-1.62.32-.787.46-1.807.42-3.06-.013-1.027-.153-1.827-.42-2.4-.253-.587-.593-1-1.02-1.24a2.665 2.665 0 0 0-1.42-.38c-.547 0-1.007.12-1.38.36a2.48 2.48 0 0 0-.88.9c-.2.373-.347.78-.44 1.22l-.46-.84c.24-1.013.673-1.747 1.3-2.2.64-.467 1.333-.7 2.08-.7.573 0 1.1.093 1.58.28.493.187.927.487 1.3.9.373.4.667.94.88 1.62.227.68.347 1.507.36 2.48.04 1.547-.18 2.813-.66 3.8-.48.987-1.193 1.673-2.14 2.06-.947.373-2.093.413-3.44.12zm-3.7-.04l1.48-7.78-1.54-3.32h1.58l1.42 3.38-1.4 7.72h-1.54zm25.473 0h-1.68l-4.56-6.82-2.14 6.82h-1.46l2.18-6.88.54-1.32-1.84-2.9h1.58l1.78 2.8 1.88 2.8.46-1.68 1.2-3.92h1.48l-2.24 6.94 2.82 4.16zm2.252 0v-8.76l-.26-2.34h1.52l.28 2.34v8.76h-1.54zm10.972 0v-7.44c0-.92-.2-1.553-.6-1.9-.4-.36-.926-.54-1.58-.54h-4.66v-1.22h5c.667 0 1.254.12 1.76.36.507.24.9.633 1.18 1.18.28.547.42 1.273.42 2.18v7.38h-1.52zm-6.86 0v-5.4l.22-1.34h1.3v6.74h-1.52zm20.862 4v-11.44c0-.92-.2-1.553-.6-1.9-.4-.36-.92-.54-1.56-.54h-3.88v-1.22h4.2c.667 0 1.254.12 1.76.36.507.24.9.633 1.18 1.18.28.547.42 1.273.42 2.18v11.38h-1.52zm4.479-8.2V349.869l-.26-2.34h1.52l.28 2.34v2.98l-.02 1.26-1.52.32zm13.413 4.2h-1.68l-4.56-6.82-2.14 6.82h-1.46l2.18-6.88.54-1.32-1.84-2.9h1.58l1.78 2.8 1.88 2.8.46-1.68 1.2-3.92h1.48l-2.24 6.94 2.82 4.16zm7.895-3.88c-.08-.627-.04-1.187.12-1.68.16-.493.38-.94.66-1.34.293-.4.593-.78.9-1.14.306-.373.566-.747.78-1.12.213-.373.32-.78.32-1.22 0-.373-.074-.713-.22-1.02a1.595 1.595 0 0 0-.68-.74c-.294-.187-.667-.28-1.12-.28-.44 0-.867.107-1.28.32-.4.2-.76.487-1.08.86l-.84-.78c.413-.467.9-.853 1.46-1.16.56-.307 1.193-.46 1.9-.46.666 0 1.246.133 1.74.4.493.253.873.62 1.14 1.1.28.467.42 1.02.42 1.66 0 .52-.114 1-.34 1.44-.214.427-.48.833-.8 1.22-.307.373-.607.76-.9 1.16a5.572 5.572 0 0 0-.72 1.26c-.174.453-.227.96-.16 1.52h-1.3zm.7 4.12c-.294 0-.554-.107-.78-.32-.214-.213-.32-.493-.32-.84 0-.36.106-.647.32-.86.226-.213.486-.32.78-.32.306 0 .566.107.78.32.213.213.32.5.32.86 0 .347-.107.627-.32.84-.214.213-.474.32-.78.32zm10.599-.24v-7.54c0-.507.046-.953.14-1.34.093-.4.226-.733.4-1h-5.6v-1.22h8.56v1.22h-1.48c-.2.333-.334.72-.4 1.16-.067.427-.1.82-.1 1.18v7.54h-1.52zm7.783 0l3.86-9.88h-6.2v-1.22h7.74v1.3l-3.86 9.8h-1.54zm-2.34-9.88v-4.46h1.4v4.46h-1.4zm10.212 5.68V349.869l-.26-2.34h1.52l.28 2.34v2.98l-.02 1.26-1.52.32zm10.972 4.2v-7.44c0-.92-.2-1.553-.6-1.9-.4-.36-.926-.54-1.58-.54h-4.66v-1.22h5c.667 0 1.254.12 1.76.36.507.24.9.633 1.18 1.18.28.547.42 1.273.42 2.18v7.38h-1.52zm-6.86 0v-5.4l.22-1.34h1.3v6.74h-1.52zm18.282 0l-.16-1.22a6.41 6.41 0 0 0 1.28-.28c.413-.147.78-.373 1.1-.68.32-.32.58-.76.78-1.32.213-.573.353-1.3.42-2.18l.34-4.2h-7.2v-1.22h8.84l-.06 1.1-.32 4.02c-.053.987-.213 1.853-.48 2.6-.253.733-.6 1.347-1.04 1.84a4.14 4.14 0 0 1-1.54 1.12 5.424 5.424 0 0 1-1.96.42zm-3.4 4v-9.68l.22-1.36h1.32v11.04h-1.54zm18.177-4v-7.16c0-1.813-.72-2.72-2.16-2.72h-4.94v-1.22h5.28c.693 0 1.293.147 1.8.44.506.28.893.72 1.16 1.32.266.587.4 1.333.4 2.24v7.1h-1.54zm-7.1 0v-10.58h1.54v10.58h-1.54zm11.569 0v-8.76l-.26-2.34h1.52l.28 2.34v8.76h-1.54zm10.713 0l-6.62-11.1h1.58l6.62 11.1h-1.58zm-7.02 0v-1.22h7.58l.46 1.22h-8.04zm5.56-4.64l-.86-1.36 2.18-5.1h1.56l-2.88 6.46zm-153.121 34.76c-.08-.627-.04-1.187.12-1.68.16-.493.38-.94.66-1.34.294-.4.594-.78.9-1.14.307-.373.567-.747.78-1.12.214-.373.32-.78.32-1.22 0-.373-.073-.713-.22-1.02a1.585 1.585 0 0 0-.68-.74c-.293-.187-.666-.28-1.12-.28-.44 0-.866.107-1.28.32-.4.2-.76.487-1.08.86l-.84-.78c.414-.467.9-.853 1.46-1.16.56-.307 1.194-.46 1.9-.46.667 0 1.247.133 1.74.4.494.253.874.62 1.14 1.1.28.467.42 1.02.42 1.66 0 .52-.113 1-.34 1.44-.213.427-.48.833-.8 1.22-.306.373-.606.76-.9 1.16a5.65 5.65 0 0 0-.72 1.26c-.173.453-.226.96-.16 1.52h-1.3zm.7 4.12c-.293 0-.553-.107-.78-.32-.213-.213-.32-.493-.32-.84 0-.36.107-.647.32-.86.227-.213.487-.32.78-.32.307 0 .567.107.78.32.214.213.32.5.32.86 0 .347-.106.627-.32.84-.213.213-.473.32-.78.32zm13.043-.24l-.16-1.22c.454-.053.88-.147 1.28-.28a3.04 3.04 0 0 0 1.1-.68c.32-.32.58-.76.78-1.32.214-.573.354-1.3.42-2.18l.34-4.2h-7.2v-1.22h8.84l-.06 1.1-.32 4.02c-.053.987-.213 1.853-.48 2.6-.253.733-.6 1.347-1.04 1.84-.426.493-.94.867-1.54 1.12a5.42 5.42 0 0 1-1.96.42zm-3.4 4v-9.68l.22-1.36h1.32v11.04h-1.54zm18.177-4v-7.16c0-1.813-.72-2.72-2.16-2.72h-4.94v-1.22h5.28c.693 0 1.293.147 1.8.44.506.28.893.72 1.16 1.32.266.587.4 1.333.4 2.24v7.1h-1.54zm-7.1 0v-10.58h1.54v10.58h-1.54zm12.389.2l-1.4-11.3h1.48l1.2 9.96c1.04-.067 1.954-.253 2.74-.56.787-.32 1.447-.76 1.98-1.32.547-.573.954-1.287 1.22-2.14.267-.867.394-1.873.38-3.02l-.02-2.92h1.54l.02 2.86c.014 1.893-.32 3.46-1 4.7-.666 1.24-1.68 2.173-3.04 2.8-1.36.613-3.06.927-5.1.94zm.62-4.32l-.36-1.08c.707-.333 1.267-.687 1.68-1.06.427-.373.734-.847.92-1.42.187-.573.287-1.307.3-2.2l.02-1.18h1.48l-.02 1.16c-.013 1-.153 1.86-.42 2.58a4.42 4.42 0 0 1-1.28 1.84c-.573.507-1.346.96-2.32 1.36zm14.438 4.16l.16-1.22c1.107.24 2 .213 2.68-.08.68-.293 1.18-.833 1.5-1.62.32-.787.46-1.807.42-3.06-.013-1.027-.153-1.827-.42-2.4-.253-.587-.593-1-1.02-1.24a2.665 2.665 0 0 0-1.42-.38c-.547 0-1.007.12-1.38.36a2.48 2.48 0 0 0-.88.9c-.2.373-.347.78-.44 1.22l-.46-.84c.24-1.013.673-1.747 1.3-2.2.64-.467 1.333-.7 2.08-.7.573 0 1.1.093 1.58.28.493.187.927.487 1.3.9.373.4.667.94.88 1.62.227.68.347 1.507.36 2.48.04 1.547-.18 2.813-.66 3.8-.48.987-1.193 1.673-2.14 2.06-.947.373-2.093.413-3.44.12zm-3.7-.04l1.48-7.78-1.54-3.32h1.58l1.42 3.38-1.4 7.72h-1.54zm19.029 0v-7.44c0-.92-.2-1.553-.6-1.9-.4-.36-.926-.54-1.58-.54h-4.66v-1.22h5c.667 0 1.254.12 1.76.36.507.24.9.633 1.18 1.18.28.547.42 1.273.42 2.18v7.38h-1.52zm-6.86 0v-5.4l.22-1.34h1.3v6.74h-1.52zm20.862 4v-11.44c0-.92-.2-1.553-.6-1.9-.4-.36-.92-.54-1.56-.54h-3.88v-1.22h4.2c.667 0 1.254.12 1.76.36.507.24.9.633 1.18 1.18.28.547.42 1.273.42 2.18v11.38h-1.52zm4.479-4v-8.76l-.26-2.34h1.52l.28 2.34v8.76h-1.54zm3.512.28l-.16-1.1c.547-.053.967-.173 1.26-.36.307-.187.52-.447.64-.78.12-.347.18-.767.18-1.26v-7.88h4.9c.667 0 1.247.12 1.74.36.507.24.9.633 1.18 1.18.294.547.44 1.273.44 2.18v7.38h-1.54v-7.44c0-.92-.2-1.553-.6-1.9-.386-.36-.906-.54-1.56-.54h-3.02v6.5c0 .787-.126 1.44-.38 1.96-.24.507-.613.9-1.12 1.18-.493.267-1.146.44-1.96.52zm18.29-.28v-7.44c0-.92-.2-1.553-.6-1.9-.387-.36-.907-.54-1.56-.54h-3.6v-1.22h3.94c.666 0 1.253.12 1.76.36.506.24.9.633 1.18 1.18.28.547.42 1.273.42 2.18v7.38h-1.54zm-5.76 0v-1.22h8.72v1.22h-8.72zm21.571 0v-7.44c0-.92-.2-1.553-.6-1.9-.4-.36-.927-.54-1.58-.54h-4.66v-1.22h5c.667 0 1.253.12 1.76.36.507.24.9.633 1.18 1.18.28.547.42 1.273.42 2.18v7.38h-1.52zm-6.86 0v-5.4l.22-1.34h1.3v6.74h-1.52zm11.238 0v-1.22h3.26c.493 0 .947-.06 1.36-.18.413-.133.773-.34 1.08-.62.307-.293.547-.68.72-1.16.187-.48.28-1.073.28-1.78v-1.22c0-.813-.107-1.493-.32-2.04-.2-.547-.513-.96-.94-1.24-.413-.28-.933-.42-1.56-.42h-2.1l-.52 2.22c-.16.773-.147 1.367.04 1.78.2.4.68.673 1.44.82l-.32 1.06c-.787-.08-1.393-.28-1.82-.6a2.082 2.082 0 0 1-.78-1.28c-.107-.533-.087-1.16.06-1.88l.76-3.34h3.5c.853 0 1.58.187 2.18.56.613.373 1.087.927 1.42 1.66.333.733.5 1.647.5 2.74v1.12c0 .92-.127 1.7-.38 2.34-.24.64-.58 1.16-1.02 1.56a4.095 4.095 0 0 1-1.5.86c-.56.173-1.16.26-1.8.26h-3.54zm11.68.2l-1.4-11.3h1.48l1.2 9.96c1.04-.067 1.954-.253 2.74-.56.787-.32 1.447-.76 1.98-1.32.547-.573.954-1.287 1.22-2.14.267-.867.394-1.873.38-3.02l-.02-2.92h1.54l.02 2.86c.014 1.893-.32 3.46-1 4.7-.666 1.24-1.68 2.173-3.04 2.8-1.36.613-3.06.927-5.1.94zm.62-4.32l-.36-1.08c.707-.333 1.267-.687 1.68-1.06.427-.373.734-.847.92-1.42.187-.573.287-1.307.3-2.2l.02-1.18h1.48l-.02 1.16c-.013 1-.153 1.86-.42 2.58a4.42 4.42 0 0 1-1.28 1.84c-.573.507-1.346.96-2.32 1.36zm16.378 4.12v-7.44c0-.92-.2-1.553-.6-1.9-.387-.36-.907-.54-1.56-.54h-3.6v-1.22h3.94c.667 0 1.253.12 1.76.36.507.24.9.633 1.18 1.18.28.547.42 1.273.42 2.18v7.38h-1.54zm-5.76 0v-1.22h8.72v1.22h-8.72zM162.692 120.465l-.31-2.294c.827-.083 1.457-.258 1.891-.527.434-.269.734-.641.899-1.116.166-.475.248-1.085.248-1.829v-12.121h8.37c1.034 0 1.943.196 2.728.589.806.372 1.426.982 1.86 1.829.455.847.682 1.974.682 3.379V120h-3.317v-11.78c0-1.157-.248-1.963-.744-2.418-.496-.455-1.178-.682-2.046-.682h-4.216v9.207c0 1.364-.217 2.48-.651 3.348-.413.868-1.064 1.519-1.953 1.953-.888.434-2.035.713-3.441.837zm20.404-.465v-13.795l-.372-3.627h3.286l.403 3.627V120h-3.317zm7.323 0v-2.542h5.611c.682 0 1.302-.093 1.86-.279a4.013 4.013 0 0 0 1.457-.93c.413-.413.733-.94.961-1.581.227-.661.341-1.447.341-2.356v-2.077c0-1.075-.145-1.994-.434-2.759-.269-.765-.703-1.343-1.302-1.736-.579-.413-1.323-.62-2.232-.62h-2.79l-.682 3.069c-.207.992-.176 1.757.093 2.294.289.517.961.889 2.015 1.116l-.589 2.139c-1.344-.083-2.377-.372-3.1-.868a3.445 3.445 0 0 1-1.395-2.046c-.186-.847-.176-1.819.031-2.914l1.209-5.332h5.921c1.384 0 2.562.31 3.534.93.971.599 1.715 1.478 2.232 2.635.537 1.157.806 2.563.806 4.216v1.798c0 1.343-.186 2.511-.558 3.503-.352.992-.858 1.808-1.519 2.449a5.986 5.986 0 0 1-2.294 1.426c-.889.31-1.85.465-2.883.465h-6.293zm15.867.465l-.31-2.294c.827-.083 1.457-.258 1.891-.527.434-.269.734-.641.899-1.116.166-.475.248-1.085.248-1.829v-12.121h8.37c1.034 0 1.943.196 2.728.589.806.372 1.426.982 1.86 1.829.455.847.682 1.974.682 3.379V120h-3.317v-11.78c0-1.157-.248-1.963-.744-2.418-.496-.455-1.178-.682-2.046-.682h-4.216v9.207c0 1.364-.217 2.48-.651 3.348-.413.868-1.064 1.519-1.953 1.953-.888.434-2.035.713-3.441.837zm19.163 0l-.31-2.294c.827-.083 1.457-.258 1.891-.527.434-.269.734-.641.899-1.116.166-.475.248-1.085.248-1.829v-12.121h8.37c1.034 0 1.943.196 2.728.589.806.372 1.426.982 1.86 1.829.455.847.682 1.974.682 3.379V120H238.5v-11.78c0-1.157-.248-1.963-.744-2.418-.496-.455-1.178-.682-2.046-.682h-4.216v9.207c0 1.364-.217 2.48-.651 3.348-.413.868-1.064 1.519-1.953 1.953-.888.434-2.035.713-3.441.837zm21.891-.155l-2.263-17.732h3.162l1.798 14.911c1.592-.103 2.956-.382 4.092-.837 1.158-.475 2.098-1.126 2.821-1.953.744-.847 1.292-1.87 1.643-3.069.352-1.199.527-2.573.527-4.123l-.062-4.929h3.317l.031 4.774c.021 2.893-.516 5.301-1.612 7.223-1.074 1.922-2.728 3.369-4.96 4.34-2.232.951-5.063 1.416-8.494 1.395zm1.674-6.851l-.775-2.201c1.034-.393 1.829-.847 2.387-1.364.579-.537.982-1.23 1.209-2.077.248-.847.383-1.943.403-3.286v-1.922h3.162l-.031 1.86c-.02 1.529-.227 2.862-.62 3.999a6.683 6.683 0 0 1-1.984 2.914c-.909.806-2.159 1.498-3.751 2.077zM276.119 120v-11.78c0-1.157-.258-1.963-.775-2.418-.496-.455-1.168-.682-2.015-.682h-7.626v-2.542h8.463c1.033 0 1.943.196 2.728.589.785.372 1.405.982 1.86 1.829.455.847.682 1.974.682 3.379V120h-3.317zm-10.509 0v-8.432l.465-2.077h2.852V120h-3.317z" fill="#000"/></g><defs><filter id="filter0_d_367_691" x="0" y="0" width="305" height="418" filterUnits="userSpaceOnUse" color-interpolation-filters="sRGB"><feFlood flood-opacity="0" result="BackgroundImageFix"/><feColorMatrix in="SourceAlpha" values="0 0 0 0 0 0 0 0 0 0 0 0 0 0 0 0 0 0 127 0" result="hardAlpha"/><feOffset dy="4"/><feGaussianBlur stdDeviation="2"/><feComposite in2="hardAlpha" operator="out"/><feColorMatrix values="0 0 0 0 0 0 0 0 0 0 0 0 0 0 0 0 0 0 0.25 0"/><feBlend in2="BackgroundImageFix" result="effect1_dropShadow_367_691"/><feBlend in="SourceGraphic" in2="effect1_dropShadow_367_691" result="shape"/></filter><clipPath id="clip0_367_691"><path fill="#fff" transform="translate(4)" d="M0 0h297v410H0z"/></clipPath></defs></svg>